<svg width="24" height="24" viewBox="0 0 24 24" fill="none" xmlns="http://www.w3.org/2000/svg">
<g clip-path="url(#clip0_193_250)">
<path d="M4.87169 5.08832C5.08072 5.15909 5.28015 5.24731 5.4785 5.34375C5.50948 5.35875 5.54047 5.37376 5.57239 5.38922C5.76376 5.48854 5.8847 5.58371 5.99999 5.76563C6.0134 5.89506 6.01807 6.00382 6.0117 6.13184C6.01086 6.16431 6.01001 6.19679 6.00914 6.23026C6.00695 6.30978 6.00358 6.38927 5.99999 6.46875C6.51059 6.47132 7.02116 6.47185 7.53176 6.46984C7.76891 6.46897 8.00601 6.46878 8.24315 6.47019C8.47234 6.47153 8.70147 6.47102 8.93065 6.46928C9.01775 6.46893 9.10486 6.46923 9.19195 6.47021C9.74486 6.4759 10.0773 6.4383 10.5 6.04688C11.2764 5.55099 12.1601 5.4221 13.058 5.5964C13.7823 5.75631 14.4675 6.09721 15.1444 6.39087C15.7465 6.65106 16.3567 6.88914 16.9687 7.125C16.974 7.0834 16.974 7.0834 16.9794 7.04095C17.012 6.8445 17.0423 6.72697 17.1733 6.57257C17.3948 6.41652 17.6596 6.34272 17.915 6.26074C17.9709 6.24257 18.0268 6.2244 18.0843 6.20568C19.6916 5.69667 21.3892 5.48815 23.0713 5.4668C23.127 5.46557 23.1827 5.46435 23.2401 5.46309C23.5369 5.46249 23.7309 5.46535 23.9531 5.67188C24.0263 5.81827 24.0071 5.97407 24.0072 6.13479C24.0074 6.17337 24.0076 6.21195 24.0078 6.2517C24.0085 6.38172 24.0087 6.51173 24.009 6.64175C24.0094 6.73467 24.0098 6.82759 24.0102 6.92051C24.0114 7.22628 24.0121 7.53206 24.0128 7.83783C24.0131 7.94297 24.0133 8.04811 24.0136 8.15324C24.0146 8.59046 24.0155 9.02768 24.016 9.4649C24.0167 10.0922 24.0183 10.7194 24.021 11.3467C24.0228 11.7874 24.0237 12.228 24.0239 12.6687C24.0241 12.9321 24.0247 13.1955 24.0262 13.4589C24.0276 13.7066 24.0279 13.9543 24.0274 14.2021C24.0273 14.2931 24.0277 14.3841 24.0286 14.475C24.0296 14.5992 24.0292 14.7232 24.0285 14.8474C24.0291 14.8834 24.0298 14.9195 24.0305 14.9567C24.0277 15.1447 24.0074 15.2252 23.8869 15.3728C23.6977 15.5224 23.5962 15.5222 23.3559 15.5247C23.3071 15.5252 23.3071 15.5252 23.2574 15.5258C23.1497 15.527 23.042 15.5278 22.9343 15.5284C22.8975 15.5287 22.8607 15.5289 22.8228 15.5292C22.628 15.5305 22.4331 15.5314 22.2383 15.532C22.0373 15.5328 21.8363 15.5349 21.6352 15.5373C21.4805 15.5389 21.3258 15.5394 21.171 15.5397C21.0969 15.54 21.0228 15.5407 20.9488 15.5418C20.8449 15.5433 20.741 15.5433 20.6371 15.543C20.5485 15.5435 20.5485 15.5435 20.4582 15.5441C20.2436 15.5062 20.1685 15.4345 20.0156 15.2812C19.9574 15.1558 19.9574 15.1558 19.9277 15.0322C19.9172 14.9908 19.9067 14.9494 19.8959 14.9068C19.889 14.8757 19.8821 14.8446 19.875 14.8125C19.7209 14.8125 19.6222 14.9122 19.4971 14.9971C19.4462 15.0313 19.3954 15.0656 19.3431 15.1009C19.2275 15.176 19.2275 15.176 19.1719 15.2344C19.1656 15.3349 19.161 15.4355 19.1572 15.5361C19.1183 16.0924 18.9351 16.4549 18.5156 16.8281C18.2546 17.0172 18.0246 17.1145 17.7041 17.1475C17.5051 17.1709 17.5051 17.1709 17.3527 17.2906C17.3073 17.3638 17.2637 17.4381 17.222 17.5135C16.9967 17.8956 16.584 18.0784 16.1796 18.217C16.0558 18.2382 15.9345 18.236 15.8092 18.236C15.5025 18.2328 15.5025 18.2328 15.2312 18.3545C15.1652 18.4478 15.1652 18.4478 15.1097 18.5502C14.9007 18.903 14.5125 19.1495 14.1229 19.2523C13.8625 19.3045 13.635 19.3129 13.3711 19.2832C13.1297 19.2578 12.9869 19.2754 12.782 19.4059C12.4173 19.6242 11.76 19.5449 11.3639 19.4608C10.5929 19.2645 9.98669 18.8416 9.37208 18.3529C9.24588 18.2534 9.1173 18.1574 8.98827 18.0615C8.52637 17.716 8.07123 17.3621 7.61827 17.005C7.51037 16.92 7.40222 16.8352 7.29381 16.7509C6.88714 16.4339 6.48791 16.1085 6.09154 15.7787C6.01286 15.7138 5.93327 15.6499 5.8535 15.5863C5.47908 15.2826 5.13948 14.945 4.79881 14.6045C4.77352 14.5792 4.74822 14.554 4.72215 14.528C4.64927 14.4551 4.5766 14.382 4.50401 14.3088C4.4615 14.2659 4.41898 14.223 4.37518 14.1789C4.28332 14.0813 4.20223 13.9842 4.12499 13.875C4.10795 13.9233 4.10795 13.9233 4.09056 13.9726C4.07485 14.0148 4.05914 14.0571 4.04296 14.1006C4.02773 14.1425 4.0125 14.1843 3.99681 14.2275C3.90493 14.4076 3.79797 14.4684 3.60936 14.5312C3.5064 14.5362 3.40329 14.5382 3.30021 14.5388C3.26902 14.539 3.23783 14.5393 3.20569 14.5395C3.10258 14.5402 2.99947 14.5405 2.89635 14.5408C2.8246 14.541 2.75284 14.5413 2.68109 14.5416C2.53064 14.5421 2.3802 14.5423 2.22975 14.5425C2.03719 14.5428 1.84464 14.5439 1.65208 14.5452C1.50385 14.5461 1.35563 14.5463 1.2074 14.5464C1.13642 14.5466 1.06544 14.5469 0.994462 14.5476C0.895052 14.5484 0.79568 14.5483 0.696268 14.548C0.639754 14.5481 0.583241 14.5483 0.525014 14.5485C0.358675 14.5294 0.274412 14.4893 0.140612 14.3906C0.103093 14.365 0.103093 14.365 0.0648162 14.3389C-0.0383321 14.1975 -0.0194944 14.0437 -0.018186 13.8752C-0.0184384 13.8366 -0.0186908 13.798 -0.0189509 13.7582C-0.0196235 13.6283 -0.0192865 13.4984 -0.0189534 13.3686C-0.0192206 13.2756 -0.019547 13.1827 -0.0199283 13.0898C-0.0207715 12.837 -0.0207135 12.5842 -0.0204465 12.3314C-0.020302 12.1206 -0.0205869 11.9097 -0.0208703 11.6989C-0.0215295 11.2015 -0.0214549 10.7042 -0.0209218 10.2068C-0.0203837 9.69333 -0.0210431 9.1799 -0.0222998 8.66645C-0.0233376 8.22597 -0.0236498 7.78548 -0.0233744 7.34499C-0.0232162 7.08176 -0.0233314 6.81854 -0.0241362 6.55531C-0.0248599 6.30776 -0.0246773 6.06022 -0.0237936 5.81268C-0.0236204 5.72177 -0.0237678 5.63085 -0.0242571 5.53994C-0.0248736 5.41593 -0.0243374 5.29197 -0.0235075 5.16796C-0.0239577 5.1319 -0.0244079 5.09583 -0.0248718 5.05867C-0.0216912 4.82801 0.0222492 4.70842 0.187487 4.54688C1.21161 4.03482 3.85876 4.77471 4.87169 5.08832ZM1.03124 5.57813C1.03124 8.19234 1.03124 10.8066 1.03124 13.5C1.71186 13.5 2.39249 13.5 3.09374 13.5C3.20838 13.2361 3.20838 13.2361 3.3009 12.9688C3.31208 12.9321 3.32327 12.8953 3.33479 12.8574C3.34648 12.8182 3.35818 12.779 3.37023 12.7386C3.38294 12.6965 3.39566 12.6543 3.40876 12.6108C3.45052 12.4717 3.49191 12.3326 3.53319 12.1934C3.5475 12.1452 3.56182 12.097 3.57656 12.0474C4.5516 9.19144 4.5516 9.19144 4.92186 6.23438C4.04346 5.89374 3.1069 5.77101 2.17674 5.65723C2.14364 5.65314 2.11054 5.64905 2.07644 5.64483C1.98094 5.63318 1.88541 5.62195 1.78984 5.6109C1.735 5.60454 1.68016 5.59817 1.62366 5.59162C1.42675 5.57604 1.22876 5.57813 1.03124 5.57813ZM18.2812 7.26563C18.3094 7.43035 18.3528 7.57108 18.4208 7.72357C18.4402 7.76808 18.4597 7.81259 18.4798 7.85845C18.5013 7.90742 18.5228 7.95639 18.5449 8.00684C19.3311 9.83497 19.9673 11.7328 20.5867 13.6228C20.5977 13.6564 20.6087 13.6899 20.6201 13.7244C20.6497 13.8142 20.6791 13.904 20.7084 13.9938C20.767 14.1601 20.8368 14.3223 20.9062 14.4844C21.5869 14.4844 22.2675 14.4844 22.9687 14.4844C22.9687 11.8547 22.9687 9.225 22.9687 6.51563C21.4105 6.51563 19.7524 6.74865 18.2812 7.26563ZM9.21092 8.60449C8.81094 9.1522 8.44574 9.70829 8.48436 10.4062C8.83871 10.6067 9.18638 10.6688 9.58519 10.5628C9.90529 10.4353 10.1558 10.2183 10.3669 9.94885C10.6099 9.64451 10.8069 9.51032 11.1847 9.43892C11.4763 9.38377 11.7311 9.28077 11.9989 9.15395C12.2353 9.04769 12.4443 9.01194 12.7031 9.04688C12.8132 9.09522 12.8132 9.09522 12.8935 9.16406C12.9396 9.20276 12.9396 9.20276 12.9866 9.24225C13.1115 9.35942 13.2315 9.48081 13.3509 9.60352C13.5018 9.75056 13.6651 9.88022 13.8292 10.012C13.9765 10.1313 14.1206 10.2538 14.2646 10.377C14.5013 10.5787 14.7436 10.772 14.9891 10.9629C15.2023 11.1293 15.4088 11.3024 15.6141 11.4784C15.798 11.6353 15.9866 11.7848 16.1777 11.9326C16.4297 12.128 16.6669 12.333 16.9008 12.5499C17.0011 12.6428 17.1028 12.7336 17.206 12.8232C18.2607 13.7425 18.2607 13.7425 18.6094 14.25C18.8343 14.174 19.0156 14.0488 19.2099 13.916C19.2424 13.8941 19.2749 13.8721 19.3084 13.8495C19.388 13.7957 19.4674 13.7416 19.5469 13.6875C19.2458 12.7504 18.9204 11.823 18.583 10.8984C18.5554 10.8226 18.5554 10.8226 18.5273 10.7452C18.4368 10.4969 18.3452 10.2491 18.2512 10.0021C18.1733 9.79625 18.1039 9.58932 18.0383 9.37921C17.8746 8.81013 17.8746 8.81013 17.4842 8.39658C17.3079 8.3185 17.1268 8.27198 16.9391 8.23034C16.7568 8.18564 16.587 8.11311 16.4137 8.04199C16.3438 8.01452 16.2738 7.98717 16.2038 7.95993C16.1316 7.93163 16.0595 7.90332 15.9873 7.875C15.9496 7.86024 15.912 7.84549 15.8732 7.83028C15.4431 7.66139 15.0152 7.48868 14.5913 7.30463C14.5547 7.28874 14.518 7.27286 14.4803 7.25649C14.3068 7.18104 14.1337 7.10489 13.961 7.02768C13.4279 6.79184 12.8678 6.5702 12.2754 6.58301C12.2225 6.58373 12.2225 6.58373 12.1685 6.58446C11.0366 6.62697 9.87357 7.74711 9.21092 8.60449ZM5.81249 7.5C5.66377 8.09463 5.66377 8.09463 5.51686 8.68969C5.46473 8.90218 5.41221 9.11458 5.35966 9.32697C5.33121 9.44208 5.30282 9.5572 5.27451 9.67234C5.12908 10.2626 4.98177 10.8508 4.8012 11.4315C4.782 11.4938 4.782 11.4938 4.76242 11.5575C4.70343 11.7483 4.64262 11.9381 4.57844 12.1273C4.46049 12.4461 4.46049 12.4461 4.49808 12.7692C4.57073 12.8564 4.64226 12.9187 4.73436 12.9844C4.76331 13.0143 4.79225 13.0442 4.82207 13.075C4.8463 13.0983 4.87053 13.1215 4.89549 13.1455C5.00605 13.2538 5.10953 13.365 5.20989 13.4828C5.68983 14.0345 6.21837 14.5528 6.79686 15C6.8869 15.0728 6.9765 15.1461 7.06611 15.2195C7.41528 15.5052 7.76846 15.7854 8.12403 16.0631C8.2013 16.1236 8.27833 16.1844 8.35527 16.2453C8.8051 16.6011 9.2604 16.9497 9.71799 17.2955C9.80072 17.3581 9.88334 17.4208 9.96582 17.4838C10.9481 18.2458 10.9481 18.2458 12.1406 18.4688C11.8591 18.1247 11.5402 17.8184 11.2243 17.5065C10.941 17.2265 10.6635 16.9452 10.4062 16.6406C10.3557 16.5835 10.3557 16.5835 10.3041 16.5253C10.2778 16.4957 10.2516 16.4661 10.2246 16.4355C10.1976 16.4052 10.1707 16.3749 10.1429 16.3436C10.0233 16.1997 10.0147 16.0787 10.0188 15.8925C10.0399 15.7302 10.0923 15.6643 10.2187 15.5625C10.4101 15.505 10.5682 15.4819 10.7525 15.5678C10.9086 15.6805 11.0394 15.8089 11.1738 15.9463C11.2117 15.9842 11.2117 15.9842 11.2504 16.0229C11.3823 16.1562 11.5085 16.2924 11.6303 16.435C11.8523 16.6912 12.0926 16.9294 12.3322 17.169C12.4127 17.2496 12.4928 17.3305 12.5728 17.4115C13.0585 17.9532 13.0585 17.9532 13.6758 18.2666C14.0171 18.1944 14.1841 18.0329 14.3906 17.7656C14.3263 17.6212 14.2531 17.5231 14.1408 17.4122C14.109 17.3806 14.0773 17.3489 14.0445 17.3164C13.993 17.2657 13.993 17.2657 13.9404 17.2141C13.9049 17.1789 13.8693 17.1436 13.8328 17.1073C13.7191 16.9945 13.6052 16.882 13.4912 16.7695C13.3781 16.6577 13.265 16.5458 13.1521 16.4338C13.0819 16.3642 13.0116 16.2947 12.9411 16.2253C12.7529 16.0389 12.5738 15.848 12.402 15.6463C12.3272 15.5614 12.2481 15.4831 12.167 15.4043C12.0231 15.2365 12.0117 15.0871 12.0249 14.8707C12.0553 14.7252 12.1124 14.6606 12.2344 14.5781C12.3892 14.5007 12.537 14.4955 12.7031 14.5312C12.9668 14.7116 13.183 14.9645 13.3974 15.1992C13.7247 15.5516 14.0604 15.8954 14.3997 16.2362C14.4556 16.2924 14.5115 16.3488 14.5673 16.4052C15.0476 16.9551 15.0476 16.9551 15.6797 17.2324C15.9697 17.2109 16.1885 17.1005 16.3828 16.8867C16.4176 16.8345 16.4176 16.8345 16.4531 16.7812C16.3908 16.6392 16.3291 16.5571 16.2087 16.4603C15.9212 16.2167 15.6591 15.9473 15.3933 15.6807C15.302 15.5891 15.2104 15.4977 15.1187 15.4064C14.8609 15.1487 14.6055 14.892 14.3693 14.614C14.2304 14.4554 14.0782 14.3096 13.9277 14.1621C13.8652 14.1008 13.8029 14.0394 13.7406 13.9779C13.7135 13.9513 13.6863 13.9247 13.6584 13.8974C13.514 13.7428 13.5317 13.5808 13.5331 13.379C13.5469 13.2656 13.5469 13.2656 13.6348 13.1455C13.7904 13.0402 13.9091 13.0065 14.1002 13.0093C14.2281 13.0366 14.2827 13.0837 14.3783 13.1721C14.4108 13.2019 14.4433 13.2317 14.4767 13.2624C14.6464 13.4246 14.814 13.5885 14.9795 13.7549C15.013 13.7883 15.0466 13.8217 15.0812 13.856C15.2344 14.0096 15.3838 14.1641 15.5246 14.3291C15.7518 14.5925 15.9995 14.8364 16.2454 15.0822C16.3298 15.1667 16.4138 15.2516 16.4978 15.3365C16.9618 15.8644 16.9618 15.8644 17.5605 16.1396C17.7649 16.0602 17.9144 15.9743 18.0469 15.7969C18.126 15.5877 18.1192 15.3975 18.0293 15.1934C17.6368 14.5207 16.994 13.9358 16.3881 13.4583C16.2553 13.3511 16.1303 13.2378 16.0049 13.1221C15.8089 12.942 15.6079 12.7728 15.3988 12.6083C15.2783 12.5133 15.1595 12.4166 15.041 12.3193C14.8247 12.142 14.6078 11.9654 14.3906 11.7891C14.2946 11.7111 14.1986 11.6331 14.1027 11.5551C14.0266 11.4933 13.9505 11.4315 13.8744 11.3698C13.6455 11.1833 13.4182 10.9949 13.1924 10.8047C13.1668 10.7832 13.1412 10.7617 13.1148 10.7396C12.91 10.5666 12.7161 10.3836 12.5259 10.1946C12.4272 10.1136 12.4272 10.1136 12.3102 10.1305C12.1682 10.1784 12.0282 10.2285 11.8887 10.2832C11.8127 10.3128 11.8127 10.3128 11.7352 10.3429C11.6834 10.3638 11.6315 10.3847 11.5781 10.4062C11.5231 10.4264 11.468 10.4466 11.4113 10.4674C11.2306 10.5564 11.1157 10.6693 10.9834 10.8164C10.7272 11.0856 10.4636 11.278 10.125 11.4375C10.0898 11.4543 10.0547 11.4711 10.0184 11.4884C9.48834 11.6911 8.75865 11.6422 8.23607 11.4492C7.84613 11.2689 7.6496 11.0458 7.49999 10.6406C7.3147 9.94694 7.63493 9.21283 7.96546 8.61623C8.19217 8.23205 8.47081 7.88047 8.76561 7.54688C8.76561 7.53141 8.76561 7.51594 8.76561 7.5C7.79108 7.5 6.81655 7.5 5.81249 7.5Z" fill="#535353"/>
</g>
<defs>
<clipPath id="clip0_193_250">
<rect width="24" height="24" fill="white"/>
</clipPath>
</defs>
</svg>
