<svg width="24" height="24" viewBox="0 0 24 24" fill="none" xmlns="http://www.w3.org/2000/svg">
<g clip-path="url(#clip0_193_261)">
<path d="M19.9945 5.05419C20.0489 5.05359 20.1034 5.05298 20.1595 5.05236C20.2482 5.05184 20.2482 5.05184 20.3387 5.05132C20.4295 5.05075 20.4295 5.05075 20.5222 5.05017C20.6507 5.04946 20.7792 5.049 20.9076 5.04865C21.0718 5.04813 21.2359 5.04652 21.4 5.04466C21.557 5.04313 21.7139 5.04292 21.8709 5.04253C21.959 5.04129 21.959 5.04129 22.0489 5.04004C22.567 5.04133 22.567 5.04133 22.7813 5.24998C22.9494 5.46206 22.9961 5.62233 22.9929 5.88736C22.9932 5.92227 22.9936 5.95718 22.9939 5.99315C22.9947 6.10965 22.9943 6.22609 22.9938 6.34259C22.9941 6.4263 22.9945 6.51001 22.995 6.59372C22.9961 6.82073 22.9959 7.04773 22.9955 7.27474C22.9953 7.46428 22.9956 7.65381 22.996 7.84335C22.9967 8.29041 22.9966 8.73746 22.9958 9.18452C22.995 9.64581 22.9957 10.1071 22.9973 10.5684C22.9985 10.9645 22.9989 11.3606 22.9985 11.7567C22.9982 11.9932 22.9983 12.2298 22.9993 12.4663C23.0002 12.6887 22.9999 12.911 22.9987 13.1334C22.9985 13.215 22.9986 13.2966 22.9992 13.3782C23 13.4896 22.9993 13.6009 22.9982 13.7123C22.9988 13.7446 22.9993 13.777 22.9999 13.8103C22.9965 13.9865 22.9709 14.0598 22.8602 14.1997C22.7344 14.2969 22.7344 14.2969 22.5674 14.3262C22.4063 14.2969 22.4063 14.2969 22.3039 14.1992C22.197 14.0276 22.1957 13.9226 22.1962 13.7211C22.1961 13.6872 22.1959 13.6533 22.1957 13.6184C22.1954 13.5051 22.1965 13.3919 22.1975 13.2786C22.1975 13.1972 22.1975 13.1159 22.1974 13.0346C22.1974 12.814 22.1985 12.5934 22.1998 12.3728C22.2009 12.1422 22.201 11.9116 22.2013 11.681C22.2019 11.2444 22.2034 10.8078 22.2053 10.3712C22.2074 9.87411 22.2084 9.37703 22.2093 8.87994C22.2113 7.85745 22.2147 6.83497 22.2188 5.81248C21.4917 5.81248 20.7647 5.81248 20.0157 5.81248C20.0157 11.5823 20.0157 17.3522 20.0157 23.2969C20.7427 23.2969 21.4697 23.2969 22.2188 23.2969C22.218 23.0593 22.2173 22.8217 22.2165 22.5769C22.2142 21.7934 22.2127 21.0098 22.2115 20.2263C22.2108 19.751 22.2098 19.2758 22.2082 18.8006C22.2068 18.3864 22.2059 17.9723 22.2055 17.5581C22.2054 17.3388 22.2049 17.1194 22.2039 16.9001C22.203 16.6937 22.2027 16.4874 22.2029 16.281C22.2028 16.2052 22.2026 16.1294 22.202 16.0535C22.2013 15.9501 22.2015 15.8468 22.2019 15.7434C22.2017 15.6855 22.2016 15.6276 22.2015 15.5679C22.2203 15.4093 22.2454 15.3445 22.3594 15.2344C22.5457 15.1826 22.6449 15.168 22.8223 15.249C22.9219 15.3281 22.9219 15.3281 22.9688 15.4219C22.9732 15.5252 22.9745 15.6287 22.9744 15.7321C22.9745 15.7805 22.9745 15.7805 22.9745 15.8298C22.9746 15.9383 22.9744 16.0469 22.9741 16.1554C22.9741 16.233 22.9741 16.3106 22.9741 16.3882C22.9741 16.5993 22.9739 16.8104 22.9735 17.0216C22.9732 17.242 22.9732 17.4625 22.9732 17.6829C22.973 18.1006 22.9726 18.5183 22.9722 18.936C22.9716 19.4114 22.9714 19.8869 22.9711 20.3623C22.9706 21.3405 22.9698 22.3187 22.9688 23.2969C23.0106 23.2941 23.0524 23.2914 23.0955 23.2886C23.1504 23.2865 23.2052 23.2844 23.2617 23.2822C23.3161 23.2795 23.3705 23.2768 23.4265 23.274C23.5782 23.2969 23.5782 23.2969 23.6919 23.4043C23.7657 23.5312 23.7657 23.5312 23.7627 23.7012C23.7031 23.9156 23.7031 23.9156 23.5782 24C23.4485 24.0139 23.3294 24.019 23.1997 24.0179C23.1605 24.0182 23.1213 24.0184 23.0809 24.0186C22.9484 24.0193 22.8159 24.0189 22.6834 24.0185C22.5879 24.0187 22.4924 24.019 22.3969 24.0193C22.1336 24.0201 21.8702 24.02 21.6069 24.0197C21.3232 24.0196 21.0396 24.0203 20.7559 24.0209C20.1999 24.0219 19.6439 24.0221 19.0878 24.022C18.636 24.0219 18.1843 24.0221 17.7325 24.0225C17.6677 24.0225 17.6028 24.0226 17.538 24.0226C17.4897 24.0226 17.4897 24.0226 17.4405 24.0227C17.3921 24.0227 17.3921 24.0227 17.3428 24.0227C17.3105 24.0228 17.2782 24.0228 17.2449 24.0228C16.3362 24.0235 15.4274 24.0239 14.5187 24.0237C14.4673 24.0237 14.4673 24.0237 14.4149 24.0237C14.2411 24.0236 14.0674 24.0236 13.8936 24.0235C13.8591 24.0235 13.8246 24.0235 13.7891 24.0235C13.7193 24.0235 13.6495 24.0235 13.5797 24.0234C12.4937 24.0232 11.4077 24.0239 10.3217 24.0254C9.10237 24.0271 7.883 24.028 6.66362 24.0278C6.53368 24.0277 6.40374 24.0277 6.27381 24.0277C6.22581 24.0277 6.22581 24.0277 6.17685 24.0277C5.69319 24.0276 5.20953 24.0282 4.72587 24.0291C4.17602 24.0301 3.62617 24.0302 3.07632 24.0293C2.79557 24.0289 2.51484 24.0289 2.23409 24.0298C1.97736 24.0307 1.72065 24.0305 1.46392 24.0294C1.37077 24.0292 1.27762 24.0294 1.18447 24.0301C1.05836 24.0309 0.932333 24.0302 0.806222 24.0292C0.751295 24.0301 0.751295 24.0301 0.695258 24.031C0.51652 24.028 0.437568 24.0144 0.303951 23.8916C0.209058 23.7197 0.229501 23.6239 0.281279 23.4375C0.334745 23.3578 0.334745 23.3578 0.421904 23.2969C0.568937 23.2831 0.568937 23.2831 0.73538 23.2881C0.790669 23.2893 0.845957 23.2906 0.902922 23.2919C0.966458 23.2944 0.966458 23.2944 1.03128 23.2969C1.03115 23.2647 1.03102 23.2326 1.03089 23.1996C1.02778 22.4179 1.02545 21.6362 1.02399 20.8545C1.02327 20.4765 1.02228 20.0985 1.02067 19.7205C1.01927 19.391 1.01836 19.0615 1.01805 18.7319C1.01786 18.5575 1.01743 18.383 1.01641 18.2086C1.01528 18.0138 1.01525 17.819 1.01531 17.6241C1.01481 17.5664 1.0143 17.5087 1.01378 17.4492C1.01557 16.9575 1.01557 16.9575 1.1719 16.7344C1.37813 16.5436 1.527 16.4943 1.80367 16.4924C1.85625 16.492 1.90882 16.4915 1.96299 16.4911C2.04825 16.4908 2.04825 16.4908 2.13522 16.4905C2.19366 16.4902 2.2521 16.4899 2.31231 16.4897C2.43608 16.4892 2.55984 16.4889 2.68361 16.4887C2.81033 16.4885 2.93703 16.4879 3.06374 16.4868C3.24642 16.4854 3.42909 16.4849 3.61178 16.4846C3.66833 16.484 3.72489 16.4834 3.78315 16.4829C4.27668 16.4842 4.27668 16.4842 4.50003 16.6406C4.69066 16.8467 4.7403 16.9944 4.74004 17.271C4.74014 17.3505 4.74014 17.3505 4.74024 17.4317C4.73998 17.5191 4.73998 17.5191 4.73973 17.6082C4.73973 17.6695 4.73974 17.7307 4.73975 17.7939C4.73976 17.962 4.73948 18.1301 4.73916 18.2982C4.73886 18.4739 4.73884 18.6496 4.73878 18.8252C4.73864 19.1579 4.73825 19.4906 4.73778 19.8233C4.73726 20.202 4.737 20.5808 4.73676 20.9595C4.73627 21.7386 4.73544 22.5177 4.7344 23.2969C5.01284 23.2969 5.29128 23.2969 5.57815 23.2969C5.57768 23.1385 5.57769 23.1385 5.57721 22.977C5.57433 21.983 5.57224 20.9891 5.57087 19.9952C5.57014 19.4842 5.56915 18.9732 5.56754 18.4622C5.56614 18.0167 5.56524 17.5713 5.56492 17.1259C5.56474 16.8901 5.56431 16.6543 5.56328 16.4184C5.56233 16.1964 5.56204 15.9744 5.56225 15.7523C5.56221 15.6709 5.56193 15.5895 5.56139 15.5081C5.56069 15.3967 5.56086 15.2854 5.56124 15.174C5.56083 15.142 5.56042 15.1099 5.56 15.0769C5.56254 14.8029 5.63506 14.595 5.80081 14.376C6.08809 14.1605 6.44378 14.1887 6.78647 14.189C6.86559 14.1887 6.86559 14.1887 6.94631 14.1884C7.05753 14.1881 7.16875 14.1881 7.27997 14.1883C7.4495 14.1885 7.61899 14.1874 7.78851 14.1862C7.89688 14.1861 8.00525 14.186 8.11362 14.1861C8.16397 14.1856 8.21432 14.1852 8.2662 14.1848C8.55962 14.1866 8.78104 14.2163 9.0469 14.3437C9.26673 14.5692 9.28817 14.7588 9.28691 15.0613C9.28697 15.114 9.28698 15.114 9.28704 15.1678C9.28711 15.2859 9.28686 15.404 9.2866 15.5221C9.28659 15.6067 9.28659 15.6912 9.28662 15.7757C9.28663 16.0056 9.28636 16.2354 9.28603 16.4652C9.28574 16.7052 9.28571 16.9453 9.28566 17.1853C9.28551 17.64 9.28512 18.0947 9.28465 18.5494C9.28413 19.067 9.28387 19.5846 9.28364 20.1022C9.28315 21.1671 9.28231 22.232 9.28128 23.2969C9.57518 23.2969 9.86909 23.2969 10.1719 23.2969C10.1717 23.229 10.1716 23.1611 10.1714 23.0912C10.1673 21.4806 10.1642 19.8699 10.1623 18.2592C10.1621 18.061 10.1619 17.8628 10.1616 17.6646C10.1616 17.6252 10.1615 17.5857 10.1615 17.5451C10.1606 16.906 10.1592 16.2669 10.1574 15.6278C10.1557 14.9722 10.1546 14.3165 10.1543 13.6609C10.154 13.2562 10.1532 12.8516 10.1517 12.4469C10.1507 12.1695 10.1504 11.8921 10.1506 11.6147C10.1507 11.4546 10.1506 11.2945 10.1496 11.1344C10.1486 10.9609 10.1488 10.7873 10.1494 10.6138C10.1488 10.5632 10.1483 10.5125 10.1477 10.4604C10.15 10.1773 10.1697 10.012 10.3594 9.79686C10.5314 9.66296 10.6585 9.63842 10.8741 9.63729C10.9295 9.6367 10.9849 9.63611 11.0419 9.63549C11.1014 9.63563 11.1608 9.63577 11.222 9.63591C11.2834 9.63566 11.3449 9.63542 11.4082 9.63517C11.538 9.63475 11.6678 9.63486 11.7976 9.63533C11.9635 9.63586 12.1293 9.63492 12.2952 9.63355C12.4541 9.63248 12.6129 9.6328 12.7718 9.63298C12.8312 9.63245 12.8905 9.63193 12.9516 9.63138C13.4738 9.63552 13.4738 9.63552 13.6875 9.84373C13.8791 10.0721 13.8473 10.3255 13.8451 10.6081C13.8452 10.6623 13.8453 10.7165 13.8454 10.7723C13.8456 10.9225 13.8452 11.0727 13.8445 11.2229C13.8439 11.3849 13.8441 11.5469 13.8442 11.709C13.8443 11.9896 13.8438 12.2703 13.843 12.5509C13.8419 12.9567 13.8415 13.3625 13.8413 13.7683C13.841 14.4267 13.8401 15.0851 13.8388 15.7435C13.8375 16.383 13.8365 17.0225 13.8359 17.6621C13.8358 17.7015 13.8358 17.7409 13.8358 17.7815C13.8356 17.9793 13.8354 18.1771 13.8352 18.3749C13.8338 20.0155 13.8313 21.6562 13.8282 23.2969C14.1221 23.2969 14.416 23.2969 14.7188 23.2969C14.7184 23.1613 14.7179 23.0258 14.7175 22.8862C14.7138 21.6433 14.711 20.4003 14.7092 19.1574C14.709 18.9944 14.7087 18.8315 14.7085 18.6686C14.7084 18.6361 14.7084 18.6037 14.7083 18.5703C14.7075 18.0452 14.706 17.5201 14.7043 16.995C14.7026 16.4562 14.7015 15.9173 14.7011 15.3785C14.7009 15.0758 14.7003 14.7732 14.699 14.4706C14.6977 14.1857 14.6973 13.9009 14.6976 13.6161C14.6975 13.5115 14.6971 13.407 14.6964 13.3024C14.6955 13.1597 14.6957 13.0169 14.6962 12.8742C14.6957 12.8328 14.6951 12.7915 14.6946 12.7488C14.6972 12.4762 14.7493 12.3181 14.9063 12.0937C15.0926 11.9359 15.28 11.9288 15.5157 11.9297C15.5484 11.9283 15.5812 11.927 15.6149 11.9256C15.7997 11.9249 15.8835 11.9476 16.0313 12.0611C16.125 12.1875 16.125 12.1875 16.125 12.3574C16.0807 12.507 16.0611 12.5673 15.9375 12.6562C15.8438 12.7031 15.8438 12.7031 15.4688 12.7031C15.4688 16.199 15.4688 19.695 15.4688 23.2969C16.1958 23.2969 16.9228 23.2969 17.6719 23.2969C17.6719 19.8009 17.6719 16.305 17.6719 12.7031C17.5482 12.7031 17.4244 12.7031 17.2969 12.7031C17.0827 12.6028 17.0827 12.6028 17.0157 12.4687C16.9888 12.1791 16.9888 12.1791 17.0872 12.0377C17.2451 11.9225 17.3843 11.9255 17.5723 11.9297C17.6211 11.9286 17.6211 11.9286 17.671 11.9275C17.9121 11.9293 18.0484 11.9911 18.2344 12.1406C18.3925 12.3151 18.4278 12.4758 18.4277 12.7071C18.4278 12.745 18.4279 12.7829 18.428 12.822C18.4278 12.8634 18.4277 12.9048 18.4275 12.9475C18.4276 13.0137 18.4276 13.0137 18.4277 13.0814C18.4277 13.2298 18.4275 13.3782 18.4272 13.5266C18.4272 13.6328 18.4272 13.7391 18.4272 13.8453C18.4273 14.1341 18.427 14.4229 18.4267 14.7117C18.4264 15.0133 18.4263 15.315 18.4263 15.6167C18.4262 16.1231 18.4259 16.6296 18.4254 17.136C18.425 17.6576 18.4247 18.1793 18.4245 18.7009C18.4245 18.7491 18.4245 18.7491 18.4244 18.7983C18.4244 18.9597 18.4243 19.121 18.4243 19.2823C18.4238 20.6205 18.4229 21.9587 18.4219 23.2969C18.7003 23.2969 18.9788 23.2969 19.2657 23.2969C19.2655 23.2058 19.2654 23.1147 19.2653 23.0209C19.2622 20.8604 19.2599 18.6999 19.2585 16.5394C19.2583 16.2736 19.2581 16.0078 19.2579 15.742C19.2579 15.6891 19.2579 15.6362 19.2578 15.5817C19.2572 14.7244 19.2561 13.867 19.2548 13.0097C19.2535 12.1303 19.2527 11.2509 19.2524 10.3715C19.2522 9.82866 19.2516 9.28583 19.2505 8.74299C19.2497 8.37098 19.2495 7.99897 19.2497 7.62696C19.2498 7.41218 19.2496 7.19741 19.2489 6.98263C19.2482 6.78606 19.2482 6.58951 19.2487 6.39294C19.2487 6.32177 19.2485 6.2506 19.2481 6.17943C19.2475 6.08275 19.2478 5.98611 19.2484 5.88944C19.2483 5.80886 19.2483 5.80886 19.2482 5.72665C19.2754 5.49522 19.3541 5.34392 19.5264 5.18846C19.6976 5.06992 19.7872 5.05618 19.9945 5.05419ZM10.9219 10.4062C10.9219 14.6601 10.9219 18.914 10.9219 23.2969C11.6335 23.2969 12.345 23.2969 13.0782 23.2969C13.0782 19.043 13.0782 14.789 13.0782 10.4062C12.3666 10.4062 11.655 10.4062 10.9219 10.4062ZM6.32815 14.9531C6.32815 17.7065 6.32815 20.46 6.32815 23.2969C7.05518 23.2969 7.78222 23.2969 8.53128 23.2969C8.53128 20.5434 8.53128 17.79 8.53128 14.9531C7.80425 14.9531 7.07722 14.9531 6.32815 14.9531ZM1.78128 17.25C1.78128 19.2455 1.78128 21.2409 1.78128 23.2969C2.50831 23.2969 3.23534 23.2969 3.9844 23.2969C3.9844 21.3014 3.9844 19.3059 3.9844 17.25C3.25737 17.25 2.53034 17.25 1.78128 17.25Z" fill="#535353"/>
<path d="M21.9611 0.198147C22.2995 0.437839 22.4668 0.757863 22.5819 1.15103C22.6253 1.57479 22.5765 1.95201 22.327 2.30825C22.0789 2.61073 21.7677 2.84514 21.3748 2.90591C21.3206 2.89711 21.2663 2.8883 21.2104 2.87923C21.0005 2.84907 20.8257 2.82947 20.6248 2.90591C20.3392 3.13855 20.167 3.49863 19.9832 3.81118C19.9259 3.90418 19.8682 3.99699 19.8102 4.08962C19.6893 4.2831 19.5695 4.47722 19.4504 4.67176C19.1808 5.10817 18.8917 5.5314 18.6028 5.95514C18.4859 6.12667 18.3696 6.29862 18.2534 6.47061C18.1792 6.58039 18.1049 6.69011 18.0306 6.79981C18.0094 6.8313 17.9882 6.86279 17.9664 6.89524C17.9272 6.95296 17.8874 7.0103 17.847 7.06718C17.8019 7.13161 17.7599 7.19827 17.7186 7.26529C17.7449 7.38696 17.7979 7.47542 17.861 7.58169C18.0643 7.96778 18.0777 8.42033 17.9497 8.8334C17.7623 9.24093 17.512 9.50405 17.0975 9.67642C16.6897 9.80671 16.2968 9.80332 15.9053 9.62423C15.5263 9.40759 15.2852 9.10608 15.1258 8.70376C15.097 8.54934 15.0903 8.41845 15.0916 8.26229C15.0919 8.216 15.0922 8.1697 15.0925 8.122C15.0928 8.08679 15.0932 8.05157 15.0936 8.01529C14.8593 7.89758 14.625 7.77999 14.3906 7.66252C14.311 7.62259 14.2314 7.58263 14.1518 7.54263C14.037 7.48494 13.9221 7.42738 13.8073 7.36984C13.7721 7.35211 13.7368 7.33438 13.7005 7.31611C13.4957 7.21366 13.2894 7.11903 13.078 7.03091C13.0439 7.05892 13.0439 7.05892 13.0091 7.08749C12.5832 7.42414 12.2197 7.51244 11.6717 7.45279C11.5325 7.40638 11.3933 7.35997 11.2498 7.31216C10.43 8.132 9.61015 8.95185 8.76546 9.79654C8.81187 9.96669 8.85827 10.1368 8.90609 10.3122C8.94465 10.797 8.86153 11.1894 8.54866 11.5719C8.25007 11.8834 7.87715 12.0457 7.4471 12.0612C7.10758 12.0567 6.7882 11.9349 6.52132 11.7272C6.39086 11.6137 6.39086 11.6137 6.27428 11.6292C6.08177 11.6901 5.90753 11.7794 5.72792 11.8709C5.66912 11.9005 5.66912 11.9005 5.60912 11.9306C5.48434 11.9934 5.35976 12.0566 5.23519 12.1198C5.15045 12.1625 5.0657 12.2052 4.98094 12.2479C4.77355 12.3523 4.56633 12.4572 4.35921 12.5622C4.35935 12.5912 4.3595 12.6203 4.35964 12.6502C4.35975 12.6883 4.35986 12.7264 4.35998 12.7656C4.36012 12.8033 4.36026 12.8411 4.36041 12.88C4.35564 13.294 4.18754 13.5991 3.92269 13.9069C3.5002 14.2704 3.12249 14.3376 2.57576 14.3074C2.36005 14.2819 2.19149 14.1829 2.01546 14.0622C1.96519 14.0303 1.91491 13.9984 1.86312 13.9655C1.60589 13.7368 1.43094 13.3235 1.39656 12.9837C1.38644 12.5265 1.51107 12.1463 1.82796 11.8122C2.13492 11.521 2.48203 11.3905 2.90316 11.3698C3.23473 11.3813 3.56732 11.4829 3.81429 11.7096C3.92337 11.824 3.92337 11.824 4.03643 11.8076C4.2297 11.7471 4.40412 11.6577 4.58425 11.5659C4.64305 11.5363 4.64305 11.5363 4.70305 11.5062C4.82783 11.4434 4.95241 11.3802 5.07698 11.317C5.16172 11.2743 5.24646 11.2316 5.33123 11.189C5.53862 11.0845 5.74584 10.9797 5.95296 10.8747C5.95258 10.7857 5.95258 10.7857 5.95219 10.695C5.95025 10.24 6.06095 9.88514 6.37868 9.55429C6.74371 9.21289 7.09259 9.07881 7.59359 9.09341C7.68927 9.12647 7.7845 9.16087 7.87926 9.19646C8.08437 9.24545 8.16658 9.2544 8.3527 9.15019C8.51801 9.01573 8.66123 8.86018 8.80593 8.70431C8.86059 8.64825 8.91542 8.59235 8.97042 8.53661C9.11416 8.39001 9.25551 8.2413 9.39646 8.09203C9.54091 7.93989 9.68753 7.78986 9.83397 7.63964C10.1206 7.34501 10.4047 7.04811 10.6873 6.74966C10.6774 6.72106 10.6675 6.69246 10.6572 6.66299C10.6443 6.62527 10.6315 6.58756 10.6182 6.5487C10.6054 6.5114 10.5925 6.4741 10.5793 6.43566C10.4692 6.07107 10.5124 5.63393 10.6873 5.29654C10.9076 4.94225 11.1587 4.73387 11.5428 4.57876C11.9941 4.49602 12.4189 4.51084 12.8145 4.75637C13.1487 4.99758 13.3442 5.27357 13.453 5.67154C13.4621 5.84256 13.4621 5.84256 13.4588 6.01724C13.458 6.07561 13.4571 6.13398 13.4563 6.19412C13.4546 6.26028 13.4546 6.26028 13.453 6.32779C13.4916 6.33902 13.5302 6.35026 13.5699 6.36183C13.7636 6.4322 13.9335 6.52619 14.1127 6.6268C14.1863 6.66657 14.2599 6.70621 14.3336 6.74572C14.4489 6.80756 14.5636 6.86994 14.6773 6.9347C15.0324 7.14291 15.0324 7.14291 15.4217 7.26529C15.5964 7.21546 15.6925 7.15241 15.8273 7.032C16.0527 6.83781 16.2914 6.83147 16.5789 6.83462C16.64 6.83492 16.7011 6.83523 16.7641 6.83554C16.9217 6.84341 16.9217 6.84341 17.0623 6.89029C17.0725 6.85968 17.0826 6.82908 17.093 6.79755C17.179 6.60435 17.2954 6.43863 17.4148 6.26461C17.4412 6.22576 17.4676 6.18691 17.4948 6.14688C17.552 6.06266 17.6093 5.9785 17.6666 5.89439C17.8204 5.66898 17.9733 5.44303 18.1262 5.21707C18.1738 5.14674 18.1738 5.14674 18.2224 5.07498C18.5768 4.55076 18.926 4.02311 19.2743 3.49478C19.304 3.4498 19.3337 3.40482 19.3643 3.35848C19.4483 3.2312 19.5323 3.10382 19.6161 2.97641C19.641 2.93865 19.666 2.9009 19.6917 2.86201C19.7145 2.82716 19.7374 2.79232 19.761 2.75642C19.7808 2.72627 19.8007 2.69613 19.8211 2.66507C19.8766 2.57491 19.9274 2.48793 19.9686 2.39029C19.9317 2.29025 19.9317 2.29025 19.8631 2.194C19.6404 1.82101 19.5945 1.45673 19.6873 1.03091C19.7914 0.74845 19.9248 0.524387 20.1561 0.327786C20.2097 0.278479 20.2097 0.278479 20.2645 0.228177C20.7708 -0.125098 21.4375 -0.10551 21.9611 0.198147ZM20.6734 0.874905C20.5332 1.02276 20.4474 1.14032 20.3846 1.3356C20.3941 1.60063 20.4529 1.79651 20.6424 1.98599C20.8801 2.13313 21.0404 2.17722 21.3179 2.13705C21.5556 2.07292 21.6738 1.92455 21.7938 1.71939C21.8723 1.44695 21.8467 1.26607 21.7147 1.01626C21.5717 0.845536 21.4533 0.771845 21.2401 0.711575C21.014 0.698011 20.85 0.724597 20.6734 0.874905ZM11.4221 5.55636C11.2908 5.75775 11.2511 5.95066 11.2967 6.18716C11.3646 6.3747 11.4615 6.49424 11.6073 6.62954C11.8222 6.72906 12.0012 6.7396 12.2342 6.70279C12.4448 6.6053 12.5667 6.48104 12.6704 6.27725C12.7396 6.08592 12.738 5.91413 12.672 5.72207C12.5644 5.50409 12.4173 5.37554 12.1873 5.29654C11.8858 5.23895 11.6236 5.32165 11.4221 5.55636ZM15.9675 7.86203C15.8485 8.06561 15.8163 8.24315 15.8557 8.47561C15.9323 8.70058 16.0841 8.85424 16.286 8.97329C16.513 9.02312 16.698 9.03091 16.9071 8.92349C17.0717 8.8167 17.1661 8.71175 17.2498 8.53091C17.2869 8.29661 17.2771 8.11874 17.1737 7.90396C16.9936 7.70499 16.8459 7.58389 16.5731 7.56997C16.3167 7.58379 16.1281 7.65704 15.9675 7.86203ZM7.03109 9.98404C6.84339 10.1659 6.74272 10.3201 6.73519 10.5817C6.73883 10.8114 6.77434 10.9379 6.93734 11.109C7.12444 11.248 7.29482 11.3129 7.52913 11.2995C7.75216 11.261 7.86164 11.1801 8.01546 11.0153C8.15993 10.8102 8.17377 10.6548 8.13613 10.4143C8.08183 10.2082 7.97882 10.0757 7.81331 9.94595C7.5175 9.81524 7.31223 9.82264 7.03109 9.98404ZM2.27913 12.4567C2.17227 12.6704 2.11678 12.8498 2.18556 13.0847C2.28532 13.3093 2.40088 13.4346 2.62483 13.5465C2.85379 13.6147 3.01566 13.5955 3.23421 13.4997C3.41819 13.3431 3.54085 13.1915 3.61507 12.9606C3.6056 12.6956 3.54674 12.4997 3.35726 12.3102C2.95086 12.0586 2.59764 12.0879 2.27913 12.4567Z" fill="#535353"/>
</g>
<defs>
<clipPath id="clip0_193_261">
<rect width="24" height="24" fill="white"/>
</clipPath>
</defs>
</svg>
