<svg width="24" height="24" viewBox="0 0 24 24" fill="none" xmlns="http://www.w3.org/2000/svg">
<g clip-path="url(#clip0_193_220)">
<path d="M1.73675 9.9775C1.77005 9.97732 1.80334 9.97715 1.83764 9.97697C1.94922 9.97646 2.0608 9.97628 2.17238 9.9761C2.25239 9.9758 2.33239 9.97549 2.4124 9.97516C2.67522 9.97418 2.93805 9.97369 3.20087 9.97323C3.29146 9.97304 3.38205 9.97284 3.47264 9.97265C3.8984 9.97175 4.32416 9.97109 4.74991 9.9707C5.24073 9.97024 5.73153 9.96901 6.22234 9.96711C6.60209 9.96569 6.98183 9.965 7.36158 9.96485C7.58819 9.96474 7.8148 9.96432 8.04141 9.96314C8.25483 9.96204 8.46824 9.96185 8.68166 9.96233C8.75968 9.96235 8.8377 9.96206 8.91572 9.96141C9.49797 9.95686 9.98771 10.0165 10.4498 10.4041C10.8281 10.778 11.0293 11.2044 11.0347 11.7359C11.0344 11.7779 11.0341 11.8199 11.0338 11.8632C11.0342 11.9318 11.0342 11.9318 11.0346 12.0018C11.0352 12.1542 11.0349 12.3065 11.0346 12.4588C11.0348 12.5684 11.0352 12.678 11.0355 12.7876C11.0364 13.0846 11.0363 13.3816 11.0361 13.6787C11.0359 13.9583 11.0363 14.238 11.0366 14.5177C11.0372 15.1055 11.037 15.6933 11.0364 16.281C11.036 16.8179 11.0366 17.3548 11.0377 17.8917C11.0389 18.444 11.0393 18.9962 11.039 19.5484C11.0388 19.8581 11.0389 20.1677 11.0398 20.4774C11.0405 20.7686 11.0403 21.0599 11.0394 21.3511C11.0392 21.4578 11.0394 21.5645 11.0399 21.6711C11.043 22.4145 11.0168 23.0078 10.4691 23.5633C10.1258 23.8768 9.78333 24.0054 9.32219 24.0069C9.28852 24.0071 9.25484 24.0073 9.22014 24.0074C9.10727 24.008 8.9944 24.0081 8.88152 24.0083C8.80059 24.0086 8.71966 24.0089 8.63872 24.0093C8.37286 24.0102 8.10699 24.0107 7.84113 24.0112C7.74949 24.0114 7.65785 24.0116 7.56622 24.0118C7.13556 24.0127 6.7049 24.0133 6.27423 24.0137C5.77774 24.0142 5.28126 24.0154 4.78477 24.0173C4.40065 24.0187 4.01653 24.0194 3.6324 24.0196C3.40316 24.0197 3.17394 24.0201 2.94471 24.0213C2.72882 24.0224 2.51296 24.0226 2.29707 24.0221C2.21814 24.0221 2.13922 24.0224 2.06029 24.023C1.50404 24.0273 1.00362 23.9822 0.555361 23.6168C0.180487 23.2467 -0.0138204 22.8176 -0.0190244 22.2927C-0.0187427 22.2503 -0.018461 22.2079 -0.0181707 22.1642C-0.0185494 22.095 -0.0185494 22.095 -0.0189357 22.0243C-0.019603 21.8706 -0.0192726 21.7169 -0.0189382 21.5632C-0.0192056 21.4526 -0.0195321 21.342 -0.0199131 21.2314C-0.0207532 20.9316 -0.020699 20.6319 -0.0204315 20.3321C-0.020323 20.1448 -0.0204269 19.9574 -0.0206414 19.77C-0.0206765 19.7388 -0.0207115 19.7077 -0.0207476 19.6756C-0.0208194 19.6123 -0.0208915 19.549 -0.020964 19.4856C-0.0216066 18.8927 -0.0213529 18.2997 -0.0208147 17.7067C-0.0203491 17.165 -0.0209556 16.6232 -0.0220771 16.0814C-0.0232216 15.5242 -0.0236705 14.9671 -0.023359 14.4099C-0.0231956 14.0975 -0.023314 13.785 -0.0241207 13.4726C-0.0248464 13.1787 -0.0246601 12.8849 -0.0237785 12.5911C-0.0236059 12.4834 -0.0237509 12.3757 -0.0242418 12.2681C-0.024862 12.1208 -0.0243188 11.9735 -0.0234922 11.8262C-0.0241676 11.7627 -0.0241676 11.7627 -0.0248566 11.698C-0.0190004 11.1885 0.196165 10.7831 0.544924 10.4209C0.887113 10.1041 1.27786 9.97904 1.73675 9.9775ZM1.55219 11.6238C1.48146 11.816 1.48054 11.9858 1.48214 12.1891C1.48193 12.2318 1.48171 12.2745 1.48148 12.3186C1.48092 12.4617 1.48136 12.6049 1.48181 12.7481C1.48162 12.8507 1.48136 12.9534 1.48106 13.056C1.48042 13.3348 1.48067 13.6137 1.48111 13.8925C1.48147 14.1841 1.48114 14.4757 1.48092 14.7673C1.48065 15.2884 1.48108 15.8095 1.4818 16.3307C1.48243 16.8031 1.48232 17.2755 1.48167 17.7479C1.48092 18.2966 1.48064 18.8453 1.48105 19.394C1.48127 19.6844 1.4813 19.9749 1.48084 20.2653C1.48043 20.5383 1.48071 20.8113 1.48152 21.0843C1.48171 21.1846 1.48166 21.2849 1.48135 21.3852C1.48096 21.5219 1.48144 21.6586 1.48214 21.7953C1.48183 21.8352 1.48152 21.875 1.48119 21.916C1.48336 22.1333 1.4993 22.2768 1.64063 22.4531C1.77231 22.519 1.88145 22.5062 2.0288 22.5066C2.05934 22.5067 2.08989 22.5069 2.12135 22.507C2.22416 22.5074 2.32697 22.5075 2.42978 22.5076C2.5033 22.5078 2.57683 22.508 2.65035 22.5083C2.85044 22.5089 3.05054 22.5092 3.25063 22.5094C3.37559 22.5095 3.50055 22.5097 3.62551 22.5099C4.01633 22.5106 4.40714 22.511 4.79796 22.5112C5.24938 22.5114 5.70079 22.5123 6.1522 22.5136C6.50093 22.5146 6.84966 22.5151 7.19839 22.5152C7.40676 22.5152 7.61513 22.5155 7.82349 22.5163C8.01952 22.5171 8.21554 22.5172 8.41157 22.5168C8.48351 22.5167 8.55545 22.517 8.62739 22.5174C8.72564 22.518 8.82385 22.5177 8.9221 22.5172C8.97707 22.5173 9.03203 22.5174 9.08867 22.5175C9.2602 22.4969 9.3432 22.48 9.46875 22.3594C9.49241 22.2106 9.50001 22.0867 9.49788 21.9377C9.49818 21.894 9.49848 21.8504 9.49879 21.8054C9.49951 21.6584 9.49854 21.5115 9.49759 21.3646C9.49776 21.2595 9.49802 21.1544 9.49838 21.0493C9.49905 20.7634 9.49825 20.4775 9.49715 20.1916C9.49621 19.8929 9.49648 19.5942 9.49659 19.2955C9.49659 18.7938 9.49567 18.292 9.49416 17.7903C9.49261 17.2739 9.49194 16.7574 9.49224 16.241C9.49259 15.619 9.49224 14.997 9.49122 14.375C9.49084 14.1372 9.49071 13.8995 9.49078 13.6617C9.49083 13.382 9.49016 13.1022 9.48895 12.8224C9.48861 12.7195 9.48851 12.6166 9.48867 12.5137C9.48884 12.3737 9.48816 12.2336 9.48724 12.0936C9.48749 12.0525 9.48774 12.0114 9.488 11.9691C9.49195 11.7667 9.49195 11.7667 9.40588 11.5912C9.28331 11.4967 9.17291 11.5133 9.02032 11.5128C8.9889 11.5125 8.95749 11.5122 8.92512 11.5119C8.81964 11.5111 8.71419 11.5114 8.60871 11.5116C8.53317 11.5112 8.45764 11.5108 8.38211 11.5104C8.1768 11.5093 7.97149 11.5092 7.76617 11.5093C7.59492 11.5093 7.42367 11.5089 7.25242 11.5085C6.84855 11.5076 6.44467 11.5075 6.04079 11.5078C5.62373 11.5081 5.20668 11.507 4.78962 11.5053C4.43186 11.5039 4.0741 11.5033 3.71633 11.5035C3.50251 11.5036 3.28871 11.5033 3.07489 11.5022C2.87389 11.5012 2.67292 11.5012 2.47192 11.5022C2.39805 11.5023 2.32419 11.5021 2.25032 11.5014C2.14966 11.5006 2.0491 11.5012 1.94844 11.5021C1.86387 11.5021 1.86387 11.5021 1.7776 11.502C1.63589 11.5188 1.63589 11.5188 1.55219 11.6238Z" fill="#3E3232"/>
<path d="M14.6778 -0.00690986C14.7115 -0.0070822 14.7452 -0.00725455 14.7799 -0.00743211C14.8927 -0.00794844 15.0056 -0.00812947 15.1185 -0.00830818C15.1994 -0.00860192 15.2803 -0.0089135 15.3613 -0.00924159C15.6271 -0.0102272 15.893 -0.0107136 16.1589 -0.0111806C16.2505 -0.0113704 16.3421 -0.0115634 16.4338 -0.0117596C16.8644 -0.0126525 17.2951 -0.0133196 17.7258 -0.0137101C18.2223 -0.0141678 18.7187 -0.0154006 19.2152 -0.0172961C19.5994 -0.0187121 19.9835 -0.0194042 20.3676 -0.0195592C20.5968 -0.0196692 20.8261 -0.0200863 21.0553 -0.0212683C21.2712 -0.0223636 21.487 -0.0225565 21.7029 -0.0220764C21.7819 -0.0220533 21.8608 -0.0223469 21.9397 -0.0229931C22.496 -0.02729 22.9964 0.0178072 23.4446 0.383229C23.8195 0.753347 24.0138 1.18243 24.019 1.70731C24.0187 1.74972 24.0185 1.79212 24.0182 1.83581C24.0185 1.90506 24.0186 1.90506 24.0189 1.9757C24.0196 2.12942 24.0193 2.28312 24.0189 2.43684C24.0192 2.54744 24.0195 2.65804 24.0199 2.76864C24.0208 3.06838 24.0207 3.36812 24.0204 3.66787C24.0203 3.85525 24.0204 4.04263 24.0206 4.23001C24.0207 4.26117 24.0207 4.29233 24.0207 4.32443C24.0208 4.38775 24.0209 4.45106 24.021 4.51437C24.0216 5.10734 24.0214 5.7003 24.0208 6.29327C24.0203 6.83506 24.021 7.37683 24.0221 7.91862C24.0232 8.47577 24.0237 9.03291 24.0234 9.59006C24.0232 9.90252 24.0233 10.215 24.0241 10.5274C24.0248 10.8213 24.0247 11.1151 24.0238 11.4089C24.0236 11.5166 24.0238 11.6243 24.0242 11.7319C24.0249 11.8793 24.0243 12.0265 24.0235 12.1738C24.0242 12.2373 24.0242 12.2373 24.0249 12.302C24.019 12.8115 23.8038 13.2169 23.4551 13.5791C23.1134 13.8954 22.723 14.0211 22.2647 14.0222C22.2316 14.0223 22.1984 14.0225 22.1643 14.0226C22.0533 14.023 21.9422 14.0231 21.8312 14.0232C21.7516 14.0234 21.6719 14.0236 21.5923 14.0239C21.3759 14.0245 21.1596 14.0248 20.9432 14.025C20.8079 14.0251 20.6726 14.0253 20.5374 14.0255C20.1138 14.0262 19.6903 14.0266 19.2668 14.0268C18.7784 14.027 18.29 14.0278 17.8017 14.0292C17.4239 14.0302 17.0461 14.0307 16.6683 14.0308C16.4428 14.0308 16.2173 14.0311 15.9918 14.0319C15.7795 14.0327 15.5672 14.0328 15.3549 14.0324C15.2773 14.0323 15.1996 14.0325 15.1219 14.033C14.4892 14.0366 13.9948 13.9743 13.5 13.5469C12.9271 12.9663 12.9571 12.2949 12.9601 11.5306C12.9599 11.421 12.9595 11.3114 12.9591 11.2018C12.9583 10.9051 12.9586 10.6085 12.9592 10.3118C12.9596 10.0324 12.9593 9.75296 12.959 9.47353C12.9585 8.88637 12.9591 8.29922 12.9601 7.71206C12.9609 7.20914 12.9608 6.70623 12.9599 6.2033C12.9589 5.61813 12.9585 5.03297 12.9591 4.44779C12.9594 4.13845 12.9594 3.82911 12.9588 3.51977C12.9583 3.22889 12.9587 2.93803 12.9597 2.64716C12.96 2.54064 12.9599 2.43413 12.9595 2.32761C12.9569 1.58488 12.9837 0.99167 13.5309 0.436695C13.8742 0.123177 14.2167 -0.005379 14.6778 -0.00690986ZM14.5312 1.64061C14.5076 1.7894 14.5 1.91329 14.5021 2.06232C14.5018 2.10598 14.5015 2.14964 14.5012 2.19463C14.5005 2.34158 14.5015 2.48848 14.5024 2.63543C14.5022 2.74051 14.502 2.8456 14.5016 2.95069C14.501 3.23658 14.5018 3.52246 14.5029 3.80836C14.5038 4.10708 14.5035 4.4058 14.5034 4.70453C14.5034 5.20625 14.5043 5.70797 14.5058 6.20969C14.5074 6.72614 14.5081 7.24258 14.5078 7.75904C14.5074 8.38104 14.5078 9.00305 14.5088 9.62505C14.5092 9.86279 14.5093 10.1005 14.5092 10.3383C14.5092 10.6181 14.5098 10.8978 14.5111 11.1776C14.5114 11.2805 14.5115 11.3834 14.5113 11.4863C14.5112 11.6263 14.5118 11.7664 14.5128 11.9064C14.5125 11.9475 14.5123 11.9886 14.512 12.0309C14.508 12.2333 14.508 12.2333 14.5941 12.4088C14.7167 12.5033 14.8271 12.4868 14.9797 12.4872C15.0268 12.4877 15.0268 12.4877 15.0749 12.4881C15.1804 12.4889 15.2858 12.4886 15.3913 12.4884C15.4668 12.4888 15.5424 12.4892 15.6179 12.4896C15.8232 12.4907 16.0285 12.4908 16.2338 12.4907C16.4051 12.4907 16.5763 12.4911 16.7476 12.4915C17.1515 12.4924 17.5553 12.4925 17.9592 12.4922C18.3763 12.4919 18.7933 12.493 19.2104 12.4947C19.5681 12.4962 19.9259 12.4967 20.2837 12.4965C20.4975 12.4964 20.7113 12.4967 20.9251 12.4978C21.1261 12.4989 21.3271 12.4988 21.5281 12.4978C21.6019 12.4977 21.6758 12.4979 21.7497 12.4986C21.8503 12.4994 21.9509 12.4988 22.0516 12.4979C22.1361 12.4979 22.1361 12.4979 22.2224 12.498C22.3641 12.4812 22.3641 12.4812 22.4478 12.3762C22.5185 12.184 22.5195 12.0143 22.5179 11.8109C22.5182 11.7468 22.5182 11.7468 22.5185 11.6815C22.5191 11.5383 22.5186 11.3951 22.5182 11.2519C22.5184 11.1493 22.5186 11.0466 22.5189 10.944C22.5196 10.6652 22.5193 10.3864 22.5189 10.1075C22.5185 9.81592 22.5189 9.52431 22.5191 9.2327C22.5194 8.71158 22.5189 8.19047 22.5182 7.66936C22.5176 7.19694 22.5177 6.72452 22.5183 6.2521C22.5191 5.7034 22.5194 5.1547 22.5189 4.60599C22.5187 4.31557 22.5187 4.02515 22.5192 3.73473C22.5196 3.46171 22.5193 3.18871 22.5185 2.91569C22.5183 2.81541 22.5183 2.71512 22.5187 2.61484C22.519 2.47811 22.5186 2.34141 22.5179 2.20469C22.5183 2.14494 22.5183 2.14494 22.5188 2.08399C22.5166 1.86675 22.5007 1.72321 22.3594 1.54686C22.2277 1.48102 22.1186 1.49378 21.9712 1.49341C21.9407 1.49327 21.9101 1.49313 21.8786 1.49298C21.7758 1.49258 21.673 1.49251 21.5702 1.49244C21.4967 1.49222 21.4232 1.49198 21.3497 1.49173C21.1496 1.49111 20.9495 1.49081 20.7494 1.4906C20.6244 1.49047 20.4994 1.49028 20.3745 1.49007C19.9837 1.48942 19.5929 1.48897 19.202 1.48879C18.7506 1.48858 18.2992 1.48776 17.8478 1.4864C17.4991 1.48539 17.1503 1.48491 16.8016 1.48485C16.5932 1.4848 16.3849 1.48452 16.1765 1.48369C15.9805 1.48292 15.7845 1.48281 15.5884 1.48323C15.5165 1.48326 15.4446 1.48306 15.3726 1.48259C15.2744 1.482 15.1762 1.48227 15.0779 1.48276C15.0229 1.48269 14.968 1.48263 14.9113 1.48255C14.7398 1.50308 14.6568 1.51998 14.5312 1.64061Z" fill="#3E3232"/>
<path d="M15.1834 15.9654C15.2634 15.9651 15.3434 15.9648 15.4235 15.9644C15.64 15.9636 15.8564 15.9636 16.0729 15.9639C16.254 15.9641 16.4351 15.9638 16.6163 15.9635C17.0438 15.9628 17.4713 15.9629 17.8989 15.9634C18.339 15.964 18.7791 15.9633 19.2192 15.9621C19.598 15.961 19.9767 15.9607 20.3555 15.961C20.5813 15.9611 20.8071 15.961 21.0329 15.9602C21.2454 15.9595 21.4579 15.9597 21.6703 15.9606C21.748 15.9607 21.8256 15.9606 21.9032 15.9601C22.5597 15.9563 23.0813 16.0556 23.5633 16.5309C23.8336 16.8269 24.0048 17.1595 24.0069 17.5639C24.0074 17.63 24.0074 17.63 24.0079 17.6975C24.008 17.7455 24.0082 17.7936 24.0083 17.8431C24.0086 17.8939 24.0089 17.9448 24.0092 17.9972C24.0102 18.1657 24.0107 18.3341 24.0112 18.5026C24.0114 18.5602 24.0116 18.6178 24.0117 18.6772C24.0126 18.9509 24.0133 19.2246 24.0137 19.4983C24.0141 19.7818 24.015 20.0654 24.0167 20.3489C24.0185 20.6537 24.0194 20.9584 24.0196 21.2632C24.0198 21.3791 24.0204 21.495 24.0213 21.6109C24.0224 21.7735 24.0224 21.9361 24.022 22.0988C24.0229 22.1699 24.0229 22.1699 24.0238 22.2424C24.0204 22.726 23.8764 23.1817 23.5312 23.5312C23.0021 23.9792 22.5013 24.0209 21.8385 24.0189C21.7575 24.0192 21.6765 24.0195 21.5954 24.0199C21.3762 24.0207 21.1571 24.0207 20.9379 24.0204C20.7546 24.0203 20.5712 24.0205 20.3879 24.0208C19.9552 24.0215 19.5224 24.0214 19.0897 24.0209C18.6441 24.0203 18.1985 24.021 17.7529 24.0223C17.3696 24.0233 16.9862 24.0236 16.6028 24.0233C16.3742 24.0232 16.1456 24.0233 15.917 24.0241C15.7019 24.0248 15.4869 24.0246 15.2719 24.0238C15.1932 24.0236 15.1146 24.0237 15.0359 24.0242C14.3829 24.028 13.9032 23.9195 13.4209 23.4551C13.1457 23.1578 12.9796 22.7836 12.9775 22.3771C12.9771 22.3338 12.9768 22.2905 12.9765 22.2459C12.9763 22.1988 12.9762 22.1516 12.9761 22.103C12.9758 22.053 12.9755 22.0031 12.9751 21.9516C12.9742 21.7862 12.9737 21.6208 12.9732 21.4554C12.973 21.3988 12.9728 21.3422 12.9726 21.2839C12.9716 20.9842 12.971 20.6846 12.9705 20.3849C12.97 20.0761 12.9684 19.7673 12.9665 19.4584C12.9653 19.2204 12.9649 18.9824 12.9648 18.7444C12.9645 18.6306 12.964 18.5168 12.9631 18.403C12.962 18.2432 12.962 18.0835 12.9623 17.9238C12.9617 17.8773 12.9611 17.8308 12.9605 17.7829C12.9643 17.266 13.1346 16.8227 13.5 16.4531C14.0247 16.0066 14.5248 15.9634 15.1834 15.9654ZM14.5835 17.5906C14.5196 17.69 14.5134 17.7479 14.5128 17.8658C14.5122 17.9052 14.5117 17.9446 14.5111 17.9853C14.5113 18.0284 14.5114 18.0715 14.5116 18.1159C14.511 18.1842 14.511 18.1842 14.5104 18.2538C14.5093 18.4046 14.5092 18.5553 14.5093 18.706C14.5089 18.8106 14.5086 18.9151 14.5082 19.0197C14.5076 19.239 14.5075 19.4582 14.5078 19.6774C14.508 19.9588 14.5066 20.2402 14.5047 20.5216C14.5035 20.7375 14.5034 20.9534 14.5035 21.1694C14.5035 21.2731 14.503 21.3769 14.5022 21.4807C14.5011 21.6256 14.5016 21.7704 14.5024 21.9153C14.5018 21.9584 14.5012 22.0015 14.5005 22.0459C14.5011 22.0854 14.5016 22.1248 14.5021 22.1654C14.5021 22.1997 14.5021 22.2339 14.502 22.2692C14.5256 22.3697 14.5256 22.3697 14.6308 22.4407C14.7901 22.5107 14.9034 22.5177 15.0773 22.5178C15.108 22.518 15.1387 22.5183 15.1703 22.5185C15.2728 22.5191 15.3752 22.5186 15.4777 22.5182C15.5514 22.5184 15.625 22.5186 15.6986 22.5189C15.8983 22.5196 16.098 22.5193 16.2977 22.5189C16.5067 22.5185 16.7157 22.5188 16.9246 22.5191C17.2756 22.5193 17.6265 22.519 17.9774 22.5183C18.3831 22.5175 18.7889 22.5178 19.1947 22.5186C19.543 22.5192 19.8914 22.5193 20.2398 22.5189C20.4478 22.5187 20.6559 22.5187 20.864 22.5191C21.0596 22.5195 21.2551 22.5193 21.4507 22.5185C21.5225 22.5183 21.5943 22.5183 21.6661 22.5186C21.7641 22.519 21.862 22.5185 21.9599 22.5178C22.0422 22.5178 22.0422 22.5178 22.1261 22.5177C22.2803 22.4981 22.3444 22.4687 22.4531 22.3593C22.5155 22.1724 22.5073 21.9927 22.5076 21.7977C22.5078 21.7546 22.508 21.7115 22.5083 21.6672C22.5089 21.5245 22.5093 21.3818 22.5095 21.2391C22.5098 21.14 22.5101 21.041 22.5103 20.9419C22.5108 20.7341 22.5111 20.5262 22.5113 20.3184C22.5115 20.0521 22.5126 19.7857 22.514 19.5194C22.5149 19.3147 22.5151 19.11 22.5152 18.9054C22.5153 18.8072 22.5157 18.709 22.5163 18.6108C22.5171 18.4734 22.517 18.3361 22.5167 18.1988C22.5174 18.1379 22.5174 18.1379 22.518 18.0758C22.5178 18.0382 22.5175 18.0006 22.5172 17.9619C22.5173 17.9295 22.5174 17.897 22.5174 17.8636C22.4924 17.7228 22.4509 17.6416 22.3594 17.5312C22.2179 17.496 22.2179 17.496 22.0516 17.5021C22.0044 17.5016 22.0044 17.5016 21.9564 17.5012C21.8509 17.5005 21.7455 17.5014 21.64 17.5024C21.5644 17.5022 21.4889 17.502 21.4134 17.5016C21.208 17.5009 21.0027 17.5017 20.7974 17.5028C20.5828 17.5038 20.3681 17.5035 20.1535 17.5034C19.793 17.5034 19.4325 17.5043 19.072 17.5058C18.655 17.5075 18.2379 17.508 17.8209 17.5076C17.42 17.5073 17.0192 17.5078 16.6184 17.5088C16.4476 17.5091 16.2769 17.5093 16.1061 17.5092C15.9051 17.5092 15.7042 17.5098 15.5032 17.511C15.4293 17.5114 15.3554 17.5115 15.2816 17.5113C15.1809 17.5111 15.0803 17.5118 14.9797 17.5127C14.9233 17.5129 14.8669 17.5131 14.8088 17.5133C14.6734 17.5207 14.6734 17.5207 14.5835 17.5906Z" fill="#3E3232"/>
<path d="M2.16146 -0.0189667C2.2425 -0.0192343 2.32354 -0.0195609 2.40459 -0.0199416C2.62376 -0.0207799 2.84292 -0.0207278 3.06209 -0.0204599C3.24544 -0.0203146 3.42879 -0.0206009 3.61214 -0.0208836C4.04485 -0.0215411 4.47755 -0.0214694 4.91026 -0.0209351C5.35586 -0.0203969 5.80145 -0.0210568 6.24705 -0.022313C6.63043 -0.0233531 7.0138 -0.0236624 7.39717 -0.0233876C7.6258 -0.0232299 7.85441 -0.0233408 8.08304 -0.0241493C8.29808 -0.0248767 8.51311 -0.0246866 8.72815 -0.0238069C8.80679 -0.0236347 8.88544 -0.023778 8.96408 -0.0242703C9.61707 -0.028044 10.0968 0.0804443 10.5791 0.544895C10.8543 0.84215 11.0204 1.21638 11.0225 1.62283C11.023 1.68777 11.023 1.68777 11.0235 1.75402C11.0237 1.80119 11.0238 1.84836 11.0239 1.89696C11.0242 1.94691 11.0245 1.99685 11.0249 2.04832C11.0258 2.21374 11.0263 2.37916 11.0268 2.54459C11.027 2.60118 11.0272 2.65777 11.0274 2.71607C11.0284 3.01573 11.029 3.31539 11.0295 3.61506C11.03 3.92388 11.0316 4.23269 11.0335 4.5415C11.0347 4.77953 11.0351 5.01756 11.0352 5.25559C11.0355 5.36939 11.036 5.48318 11.0369 5.59696C11.038 5.75671 11.038 5.91641 11.0377 6.07616C11.0386 6.14591 11.0386 6.14591 11.0395 6.21708C11.0357 6.73427 10.8652 7.17679 10.5 7.54685C9.97264 8.00242 9.43687 8.03658 8.76875 8.03454C8.68916 8.03481 8.60957 8.03513 8.52998 8.03551C8.31498 8.03635 8.09998 8.0363 7.88497 8.03603C7.705 8.03589 7.52503 8.03617 7.34507 8.03646C6.92029 8.03711 6.49551 8.03704 6.07074 8.03651C5.63352 8.03597 5.19632 8.03663 4.7591 8.03788C4.38274 8.03893 4.00637 8.03923 3.63 8.03896C3.40564 8.0388 3.1813 8.03891 2.95694 8.03972C2.7459 8.04045 2.53488 8.04026 2.32383 8.03938C2.24672 8.03921 2.16961 8.03935 2.0925 8.03984C1.43769 8.04371 0.917341 7.94297 0.436707 7.46903C0.165557 7.17218 -0.0047958 6.83942 -0.00689864 6.43396C-0.00723405 6.38942 -0.00756945 6.34487 -0.00791502 6.29898C-0.00810408 6.22614 -0.00810408 6.22614 -0.00829697 6.15184C-0.00860499 6.10044 -0.00891302 6.04905 -0.00923038 5.99609C-0.0101548 5.82588 -0.010702 5.65566 -0.0111694 5.48545C-0.0113605 5.42725 -0.0115516 5.36905 -0.0117484 5.30909C-0.0126254 5.03273 -0.0133081 4.75637 -0.0136989 4.48C-0.0141563 4.16195 -0.0153883 3.84392 -0.0172849 3.52588C-0.0188749 3.24966 -0.019425 2.97346 -0.0196148 2.69724C-0.0198427 2.58014 -0.0203864 2.46304 -0.021257 2.34594C-0.0224022 2.1817 -0.0223549 2.0175 -0.0220299 1.85325C-0.0226303 1.80526 -0.0232308 1.75728 -0.0238495 1.70783C-0.0204388 1.23278 0.135089 0.813102 0.46875 0.468723C0.997311 0.0203019 1.49904 -0.0209445 2.16146 -0.0189667ZM1.54688 1.6406C1.48455 1.82758 1.4927 2.00728 1.49245 2.20225C1.49221 2.24533 1.49198 2.28841 1.49174 2.33279C1.49106 2.47547 1.49074 2.61815 1.49048 2.76084C1.49021 2.85992 1.48994 2.95899 1.48967 3.05807C1.48918 3.26589 1.4889 3.47371 1.48874 3.68154C1.48848 3.94788 1.48736 4.2142 1.48602 4.48054C1.48515 4.68522 1.4849 4.8899 1.48483 5.09459C1.48469 5.19278 1.48431 5.29097 1.4837 5.38917C1.4829 5.52652 1.48299 5.66384 1.48329 5.80119C1.48286 5.84177 1.48243 5.88234 1.48198 5.92415C1.48224 5.96174 1.4825 5.99932 1.48277 6.03805C1.4827 6.07049 1.48264 6.10293 1.48257 6.13636C1.50762 6.27716 1.54914 6.35835 1.64062 6.46872C1.7821 6.50391 1.7821 6.50391 1.94844 6.49785C1.97985 6.49815 2.01126 6.49845 2.04363 6.49876C2.14913 6.49948 2.25455 6.49852 2.36005 6.49756C2.43558 6.49773 2.51111 6.49799 2.58664 6.49835C2.79196 6.49902 2.99726 6.49822 3.20258 6.49712C3.41722 6.49618 3.63186 6.49645 3.84651 6.49656C4.207 6.49656 4.56748 6.49563 4.92796 6.49413C5.34502 6.4924 5.76207 6.49199 6.17913 6.49232C6.57996 6.49261 6.98078 6.49211 7.38161 6.49119C7.55236 6.49081 7.72311 6.49068 7.89386 6.49076C8.09486 6.4908 8.29584 6.49013 8.49683 6.48892C8.5707 6.48858 8.64456 6.48848 8.71843 6.48864C8.81907 6.48881 8.91967 6.48813 9.02031 6.48721C9.07669 6.48704 9.13307 6.48686 9.19116 6.48668C9.3266 6.47925 9.3266 6.47925 9.41652 6.40938C9.48043 6.30992 9.48664 6.25204 9.48724 6.13418C9.48804 6.07503 9.48804 6.07503 9.48885 6.01469C9.48871 5.97158 9.48857 5.92848 9.48843 5.88407C9.48883 5.83855 9.48923 5.79304 9.48964 5.74614C9.49074 5.5954 9.49078 5.44467 9.49072 5.29392C9.49106 5.18936 9.49142 5.0848 9.4918 4.98025C9.49244 4.761 9.49251 4.54175 9.49223 4.3225C9.49196 4.04111 9.49339 3.75976 9.49529 3.47838C9.4965 3.26244 9.49663 3.04651 9.49646 2.83057C9.49654 2.7268 9.497 2.62304 9.49783 2.51927C9.49886 2.37437 9.49842 2.22954 9.49759 2.08463C9.49821 2.04152 9.49883 1.99842 9.49947 1.95401C9.49895 1.91458 9.49842 1.87514 9.49788 1.83452C9.49793 1.78314 9.49793 1.78314 9.49798 1.73072C9.47437 1.63021 9.47437 1.63021 9.36922 1.55928C9.20995 1.48923 9.09656 1.48228 8.92272 1.48212C8.89203 1.4819 8.86133 1.48168 8.82971 1.48145C8.72722 1.48089 8.62476 1.48133 8.52227 1.48178C8.44865 1.48159 8.37502 1.48134 8.3014 1.48103C8.1017 1.48039 7.90202 1.48064 7.70232 1.48108C7.49333 1.48144 7.28434 1.48111 7.07535 1.48089C6.72445 1.48063 6.37355 1.48097 6.02265 1.48164C5.61688 1.48241 5.21112 1.48216 4.80535 1.48138C4.45698 1.48075 4.10861 1.48065 3.76023 1.48102C3.55215 1.48124 3.34408 1.48127 3.13601 1.48081C2.94043 1.4804 2.74488 1.48068 2.54931 1.4815C2.4775 1.48168 2.40569 1.48163 2.33389 1.48132C2.23594 1.48093 2.13802 1.48141 2.04007 1.48212C1.95783 1.4822 1.95783 1.4822 1.87392 1.48228C1.71975 1.50183 1.65564 1.53126 1.54688 1.6406Z" fill="#3E3232"/>
</g>
<defs>
<clipPath id="clip0_193_220">
<rect width="24" height="24" fill="white"/>
</clipPath>
</defs>
</svg>
