<svg width="25" height="24" viewBox="0 0 25 24" fill="none" xmlns="http://www.w3.org/2000/svg">
<g clip-path="url(#clip0_193_266)">
<path d="M3.48736 -0.0120779C3.54132 -0.0123802 3.59527 -0.0126824 3.65086 -0.0129939C3.70993 -0.0128487 3.769 -0.0127035 3.82985 -0.012554C3.8934 -0.0127291 3.95695 -0.0129448 4.0205 -0.0131976C4.19508 -0.0137713 4.36965 -0.0137586 4.54424 -0.0136481C4.73254 -0.013629 4.92084 -0.0141463 5.10915 -0.014591C5.47806 -0.0153699 5.84697 -0.0156274 6.21588 -0.0156797C6.51574 -0.0157242 6.81561 -0.0159168 7.11547 -0.0162141C7.9656 -0.0170398 8.81572 -0.0174722 9.66585 -0.0174019C9.71168 -0.0173981 9.75751 -0.0173944 9.80474 -0.0173905C9.85063 -0.0173867 9.89652 -0.0173829 9.9438 -0.0173789C10.6875 -0.0173408 11.4313 -0.0182379 12.175 -0.0195597C12.9386 -0.0209062 13.7022 -0.0215538 14.4659 -0.0214728C14.8946 -0.0214417 15.3233 -0.0216995 15.752 -0.0227083C16.1171 -0.0235616 16.4821 -0.023766 16.8471 -0.0231293C17.0333 -0.022823 17.2196 -0.0228182 17.4058 -0.0236311C17.5763 -0.0243681 17.7469 -0.0242348 17.9175 -0.023417C18.0082 -0.0232049 18.0989 -0.0239136 18.1896 -0.0246582C18.5684 -0.0216518 18.8278 0.0228765 19.1207 0.279584C19.4662 0.697059 19.4919 1.0716 19.4889 1.59794C19.4888 1.66436 19.4888 1.66435 19.4887 1.73211C19.4885 1.87251 19.4879 2.0129 19.4873 2.1533C19.487 2.24891 19.4868 2.34452 19.4866 2.44014C19.4861 2.67363 19.4853 2.90712 19.4843 3.14061C19.5458 3.13987 19.6072 3.13913 19.6705 3.13838C19.9003 3.13581 20.1301 3.13421 20.3598 3.13288C20.4589 3.13218 20.558 3.13122 20.6571 3.13C20.8003 3.12828 20.9434 3.12749 21.0865 3.12687C21.1521 3.12579 21.1521 3.12579 21.219 3.12467C21.5851 3.12458 21.9854 3.17263 22.2675 3.42772C22.2959 3.45201 22.3243 3.4763 22.3536 3.50132C22.6256 3.85171 22.6521 4.1996 22.6488 4.63131C22.6492 4.7205 22.6492 4.7205 22.6497 4.81149C22.6504 4.97558 22.6501 5.13965 22.6495 5.30374C22.6491 5.48109 22.6497 5.65843 22.6502 5.83578C22.6511 6.18287 22.6509 6.52996 22.6503 6.87706C22.6499 7.15933 22.6499 7.4416 22.6501 7.72387C22.6501 7.7641 22.6501 7.80432 22.6501 7.84577C22.6502 7.9275 22.6503 8.00923 22.6503 8.09096C22.6509 8.85695 22.6502 9.62294 22.6492 10.3889C22.6484 11.0453 22.6485 11.7017 22.6494 12.3581C22.6504 13.1211 22.6508 13.8842 22.6502 14.6472C22.6502 14.7287 22.6501 14.8101 22.6501 14.8916C22.65 14.9518 22.65 14.9518 22.65 15.0131C22.6498 15.2947 22.6501 15.5764 22.6505 15.858C22.6511 16.2017 22.6509 16.5453 22.6499 16.889C22.6494 17.0641 22.6492 17.2393 22.6498 17.4144C22.6505 17.6048 22.6497 17.7951 22.6488 17.9855C22.6492 18.0401 22.6496 18.0948 22.65 18.1511C22.6426 18.9401 22.3143 19.6736 21.7812 20.25C21.6909 20.3351 21.5984 20.4155 21.5031 20.4948C21.3948 20.588 21.2954 20.6872 21.1953 20.789C21.0377 20.9488 20.8748 21.0972 20.7046 21.2431C20.5983 21.338 20.4984 21.4376 20.3984 21.539C20.2409 21.6988 20.0779 21.8472 19.9077 21.9931C19.8014 22.088 19.7016 22.1876 19.6015 22.289C19.4439 22.4488 19.2811 22.5975 19.1104 22.7431C19.0053 22.8373 18.9084 22.9374 18.8105 23.039C18.4368 23.4147 18.0104 23.6707 17.5156 23.8594C17.4849 23.8713 17.4543 23.8833 17.4227 23.8957C16.952 24.0517 16.4602 24.0201 15.9706 24.0189C15.8663 24.0192 15.762 24.0195 15.6577 24.0199C15.3756 24.0207 15.0935 24.0207 14.8114 24.0204C14.5756 24.0203 14.3398 24.0206 14.104 24.0208C13.5161 24.0215 12.9282 24.0214 12.3403 24.0208C11.8302 24.0203 11.3202 24.0209 10.8102 24.0221C10.2856 24.0232 9.76096 24.0236 9.23634 24.0233C8.94217 24.0232 8.648 24.0233 8.35383 24.0241C8.07739 24.0248 7.80095 24.0246 7.52451 24.0238C7.42315 24.0236 7.32179 24.0237 7.22043 24.0242C7.08191 24.0248 6.94344 24.0243 6.80493 24.0235C6.76497 24.0239 6.72501 24.0244 6.68384 24.0248C6.36479 24.0209 6.12052 23.9318 5.87924 23.7204C5.53369 23.3029 5.50801 22.9284 5.51102 22.402C5.51108 22.3577 5.51115 22.3135 5.51122 22.2679C5.51148 22.1275 5.51207 21.9871 5.51266 21.8467C5.5129 21.751 5.51311 21.6554 5.51331 21.5598C5.51382 21.3263 5.51463 21.0928 5.51559 20.8594C5.45415 20.8601 5.39271 20.8608 5.3294 20.8616C5.09964 20.8641 4.86989 20.8658 4.64012 20.8671C4.54101 20.8678 4.44191 20.8687 4.3428 20.87C4.19967 20.8717 4.05656 20.8725 3.91342 20.8731C3.84784 20.8742 3.84784 20.8742 3.78093 20.8753C3.41487 20.8754 3.01459 20.8273 2.73239 20.5722C2.68979 20.5358 2.68979 20.5358 2.64633 20.4986C2.33763 20.101 2.34818 19.6778 2.35084 19.1951C2.35059 19.1162 2.35026 19.0373 2.34986 18.9583C2.34899 18.7421 2.34928 18.526 2.34977 18.3098C2.3501 18.0763 2.34935 17.8429 2.34874 17.6095C2.34773 17.1525 2.34773 16.6954 2.34811 16.2384C2.34841 15.8669 2.34836 15.4955 2.34805 15.124C2.34801 15.0711 2.34797 15.0182 2.34793 14.9637C2.34784 14.8563 2.34775 14.7488 2.34766 14.6414C2.34689 13.634 2.3473 12.6267 2.34809 11.6193C2.34877 10.6979 2.34809 9.77647 2.34674 8.85503C2.34536 7.90866 2.34484 6.9623 2.34529 6.01593C2.34534 5.90888 2.34539 5.80182 2.34543 5.69476C2.34545 5.64209 2.34548 5.58941 2.3455 5.53514C2.3456 5.16418 2.34514 4.79323 2.34446 4.42227C2.34364 3.97008 2.34364 3.5179 2.34471 3.06571C2.34523 2.83504 2.34538 2.6044 2.34451 2.37374C2.34372 2.16245 2.34402 1.9512 2.34517 1.73991C2.3454 1.66361 2.34524 1.58731 2.34464 1.51101C2.34158 1.0943 2.34903 0.721161 2.60934 0.374982C2.86967 0.130049 3.12434 -0.0115629 3.48736 -0.0120779ZM3.26559 1.07811C3.23747 1.22486 3.23747 1.22486 3.242 1.39202C3.24173 1.42367 3.24145 1.45533 3.24117 1.48795C3.24049 1.59454 3.24114 1.70107 3.24179 1.80766C3.24157 1.88464 3.24127 1.96162 3.2409 2.0386C3.24011 2.25053 3.2405 2.46245 3.24108 2.67438C3.24151 2.90278 3.24085 3.13118 3.24034 3.35958C3.2395 3.80718 3.23968 4.25477 3.24023 4.70236C3.24065 5.06603 3.24071 5.4297 3.2405 5.79337C3.24048 5.84506 3.24045 5.89676 3.24042 5.95003C3.24036 6.05504 3.2403 6.16006 3.24023 6.26507C3.2397 7.2505 3.24032 8.23593 3.24132 9.22136C3.24216 10.0675 3.24201 10.9136 3.24115 11.7597C3.24015 12.7415 3.23975 13.7234 3.24033 14.7052C3.24039 14.8098 3.24045 14.9145 3.2405 15.0191C3.24053 15.0706 3.24056 15.1221 3.24059 15.1751C3.24075 15.5385 3.24048 15.9018 3.24004 16.2652C3.23951 16.7078 3.23965 17.1505 3.24065 17.5931C3.24115 17.8191 3.24134 18.045 3.24072 18.271C3.24016 18.4777 3.24047 18.6843 3.24147 18.891C3.24168 18.966 3.24157 19.0409 3.24111 19.1158C3.24055 19.2174 3.24113 19.3189 3.242 19.4204C3.24203 19.4769 3.24206 19.5334 3.24209 19.5917C3.25511 19.7378 3.25511 19.7377 3.34766 19.8464C3.46658 19.9315 3.51936 19.9448 3.66371 19.9431C3.70499 19.9431 3.74627 19.9431 3.7888 19.9431C3.83295 19.9421 3.87709 19.9412 3.92258 19.9402C3.96809 19.9399 4.0136 19.9396 4.0605 19.9394C4.20571 19.9383 4.35087 19.936 4.49606 19.9336C4.59457 19.9326 4.69308 19.9318 4.7916 19.931C5.03295 19.9289 5.27426 19.9257 5.51559 19.9219C5.51566 19.8889 5.51572 19.8559 5.51579 19.822C5.51957 17.8679 5.52383 15.9139 5.52872 13.9599C5.52931 13.7252 5.52989 13.4906 5.53047 13.256C5.53059 13.2092 5.5307 13.1625 5.53082 13.1144C5.53268 12.3581 5.53422 11.6018 5.53563 10.8455C5.53709 10.0695 5.5389 9.2934 5.54104 8.51735C5.54234 8.0385 5.54338 7.55965 5.54406 7.0808C5.54455 6.75241 5.54539 6.42403 5.54649 6.09564C5.54712 5.9062 5.5476 5.71675 5.54767 5.52731C5.54774 5.35372 5.54823 5.18013 5.54907 5.00655C5.5494 4.91431 5.54928 4.82207 5.54914 4.72984C5.55226 4.23641 5.58641 3.83911 5.93747 3.46873C6.28191 3.18419 6.66568 3.17358 7.0926 3.17443C7.1663 3.17402 7.1663 3.17402 7.24149 3.17361C7.40551 3.17281 7.56953 3.17267 7.73355 3.17254C7.85137 3.1721 7.96919 3.17162 8.08701 3.17111C8.34035 3.17009 8.59369 3.16936 8.84704 3.16889C9.21333 3.1682 9.57962 3.16701 9.9459 3.16569C10.5402 3.16356 11.1346 3.16184 11.7289 3.16038C12.3061 3.15897 12.8833 3.15736 13.4605 3.15548C13.4961 3.15537 13.5317 3.15525 13.5684 3.15513C13.747 3.15455 13.9257 3.15397 14.1043 3.15338C15.5851 3.14853 17.066 3.14436 18.5468 3.14061C18.5515 2.85031 18.5549 2.56004 18.5571 2.26971C18.5581 2.17095 18.5594 2.0722 18.561 1.97345C18.5633 1.83149 18.5643 1.68956 18.5652 1.54759C18.5661 1.50344 18.5671 1.4593 18.5681 1.41381C18.5681 1.35189 18.5681 1.35189 18.5681 1.28872C18.5685 1.2525 18.569 1.21628 18.5694 1.17895C18.537 1.03407 18.4766 0.979384 18.3593 0.890607C18.2385 0.86269 18.2385 0.86269 18.104 0.867011C18.0518 0.866522 17.9996 0.866034 17.9459 0.86553C17.8599 0.866157 17.8599 0.866157 17.7722 0.866797C17.7113 0.866505 17.6504 0.866212 17.5876 0.865911C17.4184 0.865127 17.2493 0.865516 17.0801 0.866096C16.8977 0.866519 16.7153 0.865866 16.5329 0.86535C16.1756 0.864515 15.8182 0.864696 15.4609 0.865239C15.1705 0.865662 14.8801 0.86572 14.5898 0.865516C14.5485 0.865487 14.5072 0.865459 14.4646 0.865429C14.3808 0.865369 14.2969 0.865308 14.213 0.865247C13.4261 0.864712 12.6392 0.865327 11.8522 0.866334C11.1767 0.867172 10.5011 0.867027 9.82558 0.866162C9.04151 0.865159 8.25745 0.864763 7.47338 0.865339C7.38981 0.865399 7.30624 0.865458 7.22267 0.865516C7.18155 0.865545 7.14043 0.865574 7.09806 0.865604C6.80796 0.865766 6.51786 0.865492 6.22776 0.865051C5.87434 0.864526 5.52092 0.864666 5.1675 0.865666C4.98709 0.86616 4.8067 0.866351 4.6263 0.865732C4.43095 0.865072 4.23563 0.865859 4.04028 0.866797C3.98295 0.866379 3.92563 0.865961 3.86657 0.86553C3.81438 0.866019 3.7622 0.866508 3.70844 0.867011C3.66333 0.867042 3.61822 0.867072 3.57175 0.867104C3.41248 0.898651 3.35915 0.946047 3.26559 1.07811ZM6.50888 4.13023C6.42528 4.26287 6.4354 4.37163 6.43527 4.52761C6.43505 4.55929 6.43483 4.59097 6.43461 4.62362C6.43404 4.73056 6.43449 4.83748 6.43492 4.94442C6.43473 5.02156 6.43447 5.09869 6.43416 5.17583C6.43348 5.38839 6.43368 5.60095 6.43402 5.81352C6.43425 6.04253 6.43366 6.27154 6.43318 6.50055C6.43237 6.94944 6.43233 7.39832 6.43258 7.8472C6.43277 8.21192 6.4327 8.57664 6.43245 8.94136C6.43242 8.9932 6.43238 9.04503 6.43234 9.09844C6.43227 9.20373 6.4322 9.30902 6.43213 9.41431C6.43148 10.4025 6.43174 11.3908 6.43228 12.379C6.43274 13.2838 6.43214 14.1886 6.43102 15.0935C6.42987 16.0217 6.42942 16.9499 6.42973 17.8782C6.4299 18.3996 6.42979 18.9211 6.42897 19.4426C6.42828 19.8865 6.42825 20.3304 6.42907 20.7743C6.42947 21.001 6.42956 21.2276 6.42885 21.4542C6.42821 21.6615 6.42842 21.8688 6.42933 22.0761C6.42951 22.1512 6.42937 22.2264 6.42888 22.3016C6.42827 22.4034 6.4288 22.5052 6.42963 22.6071C6.42964 22.6638 6.42964 22.7204 6.42965 22.7788C6.45795 22.9515 6.50044 23.0072 6.64059 23.1094C6.78191 23.1275 6.90596 23.1341 7.04721 23.1322C7.08868 23.1324 7.13016 23.1326 7.17289 23.1328C7.31213 23.1332 7.45134 23.1323 7.59058 23.1314C7.69028 23.1314 7.78999 23.1315 7.88969 23.1317C8.16067 23.132 8.43162 23.131 8.70259 23.1299C8.98572 23.1289 9.26885 23.1289 9.55198 23.1288C10.0273 23.1285 10.5027 23.1275 10.978 23.1261C11.589 23.1242 12.2 23.1234 12.8111 23.1229C13.3354 23.1225 13.8598 23.1217 14.3841 23.1208C14.5532 23.1205 14.7222 23.1203 14.8913 23.12C15.1563 23.1196 15.4214 23.119 15.6864 23.1181C15.784 23.1178 15.8815 23.1176 15.9791 23.1175C16.1117 23.1173 16.2443 23.1168 16.3768 23.1163C16.4355 23.1163 16.4355 23.1163 16.4954 23.1163C16.6681 23.1317 16.6681 23.1317 16.8125 23.0625C16.8175 22.9643 16.8193 22.866 16.8199 22.7677C16.8201 22.7369 16.8203 22.7061 16.8206 22.6744C16.8211 22.6072 16.8215 22.54 16.8218 22.4729C16.8224 22.3662 16.8233 22.2595 16.8243 22.1529C16.8272 21.8495 16.8297 21.5461 16.8313 21.2428C16.8323 21.0573 16.8339 20.8719 16.836 20.6864C16.8367 20.616 16.8371 20.5456 16.8372 20.4752C16.8386 19.9062 16.872 19.4129 17.2812 18.9844C17.6814 18.6257 18.0773 18.5125 18.6116 18.506C18.6451 18.5055 18.6785 18.5051 18.7129 18.5046C18.8225 18.5031 18.932 18.5019 19.0416 18.5008C19.1179 18.4998 19.1942 18.4988 19.2705 18.4978C19.4707 18.4952 19.671 18.4929 19.8712 18.4907C20.0757 18.4883 20.2803 18.4857 20.4848 18.4831C20.8857 18.4781 21.2866 18.4733 21.6875 18.4687C21.7458 18.3521 21.7404 18.2742 21.7406 18.1436C21.7409 18.0698 21.7409 18.0698 21.7413 17.9945C21.7413 17.94 21.7413 17.8855 21.7412 17.8293C21.7415 17.743 21.7415 17.743 21.7418 17.6549C21.7422 17.4946 21.7424 17.3343 21.7425 17.174C21.7427 17.0013 21.7432 16.8286 21.7436 16.656C21.7445 16.2387 21.745 15.8215 21.7454 15.4043C21.7456 15.2079 21.7458 15.0116 21.7461 14.8153C21.7469 14.1629 21.7476 13.5105 21.7479 12.8581C21.748 12.6887 21.7481 12.5194 21.7482 12.35C21.7482 12.3079 21.7482 12.2658 21.7482 12.2225C21.7486 11.5401 21.7498 10.8578 21.7513 10.1755C21.7529 9.47542 21.7537 8.77537 21.7539 8.07532C21.754 7.68207 21.7544 7.28882 21.7556 6.89557C21.7566 6.56075 21.757 6.22595 21.7565 5.89113C21.7563 5.72022 21.7564 5.54932 21.7573 5.37841C21.7583 5.19333 21.7578 5.00826 21.7572 4.82317C21.7577 4.76888 21.7582 4.71459 21.7588 4.65866C21.7582 4.58446 21.7582 4.58446 21.7575 4.50877C21.7576 4.44466 21.7576 4.44466 21.7577 4.37926C21.7261 4.22538 21.6723 4.17081 21.5468 4.07811C21.4256 4.05024 21.4256 4.05024 21.2906 4.05464C21.2383 4.05418 21.1859 4.05372 21.1319 4.05325C21.0744 4.0537 21.0168 4.05415 20.9576 4.05461C20.8964 4.05435 20.8353 4.05409 20.7723 4.05383C20.6025 4.05313 20.4328 4.05361 20.263 4.05428C20.0799 4.0548 19.8968 4.05424 19.7138 4.05382C19.3551 4.05317 18.9965 4.05352 18.6378 4.05423C18.2204 4.05502 17.803 4.05487 17.3856 4.05469C16.641 4.05442 15.8964 4.05508 15.1518 4.05624C14.4287 4.05736 13.7057 4.05769 12.9827 4.0572C12.1959 4.05666 11.409 4.05657 10.6222 4.05725C10.5384 4.05732 10.4545 4.05739 10.3707 4.05746C10.3294 4.0575 10.2882 4.05753 10.2456 4.05757C9.95447 4.05779 9.66329 4.05771 9.37211 4.05751C9.01745 4.05728 8.6628 4.05756 8.30814 4.05849C8.12708 4.05895 7.94602 4.05919 7.76496 4.05882C7.56898 4.05843 7.37302 4.05912 7.17705 4.05993C7.1194 4.05965 7.06176 4.05937 7.00237 4.05908C6.95012 4.05948 6.89786 4.05987 6.84403 4.06028C6.77612 4.06035 6.77612 4.06035 6.70685 4.06043C6.59358 4.07068 6.59358 4.07068 6.50888 4.13023ZM17.8273 19.7059C17.706 19.9712 17.727 20.2296 17.7317 20.5177C17.732 20.5803 17.7323 20.643 17.7325 20.7056C17.7332 20.8698 17.735 21.0339 17.7371 21.1981C17.739 21.3659 17.7399 21.5337 17.7408 21.7015C17.7428 22.0301 17.746 22.3588 17.75 22.6875C17.8095 22.6436 17.8689 22.5996 17.9283 22.5555C17.978 22.5188 17.978 22.5188 18.0286 22.4813C18.1662 22.3741 18.2858 22.2536 18.4062 22.1279C18.5884 21.9416 18.7736 21.7646 18.9722 21.5956C19.1149 21.4692 19.2465 21.332 19.3803 21.1963C19.5035 21.0749 19.6329 20.963 19.7641 20.8506C19.8704 20.7557 19.9702 20.6561 20.0703 20.5547C20.1991 20.4241 20.3294 20.2991 20.4687 20.1797C20.6833 19.9957 20.8801 19.7952 21.0781 19.5937C21.1053 19.5674 21.1326 19.541 21.1607 19.5139C21.2241 19.4615 21.2241 19.4615 21.2187 19.4062C20.8324 19.4019 20.4461 19.3986 20.0598 19.3965C19.8804 19.3955 19.7011 19.3942 19.5217 19.3921C19.3484 19.39 19.1752 19.3889 19.0019 19.3884C18.936 19.3881 18.87 19.3874 18.804 19.3864C18.7114 19.385 18.6187 19.385 18.526 19.3849C18.4734 19.3845 18.4207 19.3841 18.3664 19.3837C18.1336 19.4192 17.9892 19.5411 17.8273 19.7059Z" fill="#535353"/>
<path d="M10.124 12.9778C10.1592 12.9777 10.1944 12.9775 10.2306 12.9774C10.3488 12.977 10.467 12.9769 10.5852 12.9768C10.6699 12.9766 10.7545 12.9764 10.8391 12.9761C11.0692 12.9755 11.2993 12.9752 11.5294 12.975C11.6731 12.9749 11.8168 12.9747 11.9605 12.9745C12.41 12.9738 12.8594 12.9734 13.3088 12.9732C13.828 12.973 14.3471 12.9721 14.8663 12.9708C15.2674 12.9698 15.6684 12.9693 16.0695 12.9692C16.3092 12.9692 16.5488 12.9689 16.7885 12.9681C17.0138 12.9673 17.2392 12.9672 17.4646 12.9676C17.5474 12.9676 17.6301 12.9674 17.7128 12.967C17.8258 12.9664 17.9387 12.9667 18.0516 12.9671C18.1008 12.9666 18.1007 12.9666 18.1509 12.966C18.3533 12.9681 18.48 13.0008 18.6406 13.125C18.7555 13.2973 18.773 13.4404 18.7344 13.6406C18.6083 13.8053 18.5152 13.8882 18.3125 13.9219C18.1978 13.9264 18.0844 13.9286 17.9698 13.9285C17.9351 13.9286 17.9005 13.9287 17.8649 13.9289C17.7489 13.9293 17.6329 13.9294 17.5168 13.9294C17.4337 13.9296 17.3505 13.9299 17.2674 13.9301C17.0414 13.9307 16.8155 13.931 16.5895 13.9313C16.4484 13.9314 16.3072 13.9316 16.1661 13.9318C15.7245 13.9324 15.2829 13.9329 14.8413 13.9331C14.3314 13.9333 13.8216 13.9341 13.3118 13.9355C12.9177 13.9365 12.5236 13.9369 12.1295 13.937C11.8942 13.9371 11.6588 13.9373 11.4234 13.9382C11.202 13.9389 10.9806 13.939 10.7593 13.9386C10.678 13.9386 10.5968 13.9388 10.5156 13.9393C10.4047 13.9399 10.2937 13.9396 10.1828 13.9391C10.1507 13.9395 10.1187 13.9399 10.0856 13.9402C9.87279 13.9381 9.72698 13.8943 9.54688 13.7812C9.4316 13.6083 9.42064 13.4664 9.45313 13.2656C9.62962 12.9796 9.81144 12.9774 10.124 12.9778Z" fill="#535353"/>
<path d="M10.1649 10.0715C10.1994 10.0714 10.234 10.0713 10.2696 10.0711C10.3856 10.0707 10.5017 10.0706 10.6177 10.0706C10.7008 10.0704 10.7839 10.0701 10.8669 10.0699C11.0929 10.0693 11.3188 10.0689 11.5448 10.0687C11.686 10.0686 11.8271 10.0684 11.9683 10.0682C12.4099 10.0676 12.8515 10.0671 13.2931 10.0669C13.803 10.0667 14.3128 10.0659 14.8226 10.0645C15.2167 10.0635 15.6107 10.063 16.0047 10.063C16.2401 10.0629 16.4755 10.0627 16.7108 10.0618C16.9323 10.0611 17.1537 10.0609 17.3752 10.0614C17.4564 10.0614 17.5376 10.0612 17.6188 10.0607C17.7298 10.0601 17.8408 10.0604 17.9519 10.0609C17.9838 10.0605 18.0158 10.0601 18.0487 10.0598C18.2813 10.0621 18.4381 10.1115 18.6406 10.2187C18.7559 10.3917 18.7668 10.5336 18.7344 10.7344C18.6348 10.8958 18.5868 10.9554 18.4062 11.0156C18.2915 11.0203 18.1782 11.0223 18.0635 11.0222C18.0283 11.0223 17.9931 11.0225 17.9569 11.0226C17.8387 11.023 17.7204 11.0231 17.6022 11.0232C17.5176 11.0234 17.433 11.0236 17.3484 11.0239C17.1183 11.0245 16.8882 11.0248 16.658 11.025C16.5143 11.0251 16.3706 11.0253 16.2269 11.0255C15.7775 11.0262 15.3281 11.0266 14.8786 11.0268C14.3595 11.027 13.8404 11.0279 13.3212 11.0292C12.9201 11.0302 12.5191 11.0307 12.118 11.0308C11.8783 11.0308 11.6387 11.0311 11.399 11.0319C11.1736 11.0327 10.9483 11.0328 10.7229 11.0324C10.6401 11.0324 10.5574 11.0326 10.4746 11.033C10.3617 11.0336 10.2488 11.0333 10.1359 11.0329C10.0867 11.0334 10.0867 11.0334 10.0366 11.034C9.83416 11.0319 9.7075 10.9992 9.54685 10.875C9.43207 10.7028 9.41411 10.5594 9.4531 10.3594C9.66277 10.093 9.84427 10.0711 10.1649 10.0715Z" fill="#535353"/>
<path d="M10.0469 7.18932C10.0827 7.18898 10.1185 7.18865 10.1555 7.18831C10.2753 7.18748 10.3952 7.18833 10.515 7.18918C10.6011 7.18894 10.6871 7.1886 10.7731 7.18816C11.0066 7.1873 11.2401 7.1879 11.4736 7.18882C11.7179 7.18959 11.9622 7.18918 12.2065 7.18894C12.6168 7.18873 13.0271 7.18947 13.4374 7.19078C13.9118 7.19228 14.3862 7.19228 14.8606 7.19148C15.3169 7.19073 15.7732 7.19105 16.2295 7.19185C16.4237 7.19217 16.6179 7.19212 16.8121 7.19178C17.0408 7.19142 17.2695 7.19198 17.4982 7.19327C17.5822 7.19359 17.6661 7.19359 17.7501 7.19326C17.8647 7.19285 17.9792 7.1936 18.0937 7.19464C18.127 7.19425 18.1603 7.19387 18.1945 7.19347C18.4176 7.19721 18.5307 7.24871 18.6875 7.40626C18.7602 7.5516 18.748 7.66778 18.7344 7.82814C18.6502 7.9572 18.5913 8.04031 18.4531 8.10939C18.3392 8.11437 18.2267 8.11652 18.1127 8.1166C18.0773 8.11681 18.0418 8.11701 18.0052 8.11722C17.8857 8.11785 17.7661 8.11814 17.6466 8.11843C17.5611 8.1188 17.4757 8.11919 17.3902 8.11959C17.109 8.12082 16.8278 8.12154 16.5466 8.12221C16.4499 8.12246 16.3532 8.12271 16.2565 8.12296C15.8542 8.12398 15.4519 8.12485 15.0496 8.12538C14.4727 8.12614 13.8958 8.1277 13.3189 8.13037C12.9135 8.13218 12.5081 8.1331 12.1026 8.13335C11.8604 8.13352 11.6182 8.13408 11.3759 8.1356C11.148 8.13701 10.9201 8.13731 10.6922 8.13676C10.6085 8.13674 10.5249 8.13714 10.4413 8.13796C10.327 8.13902 10.2128 8.13863 10.0986 8.13789C10.0655 8.13854 10.0325 8.13919 9.99843 8.13986C9.73745 8.13567 9.6293 8.05413 9.45312 7.87501C9.41741 7.76808 9.41741 7.76808 9.42089 7.66408C9.42071 7.62975 9.42053 7.59543 9.42034 7.56007C9.51635 7.24683 9.75138 7.18439 10.0469 7.18932Z" fill="#535353"/>
<path d="M9.9327 15.8841C9.9743 15.8838 10.0159 15.8835 10.0588 15.8831C10.1045 15.883 10.1503 15.8829 10.1974 15.8827C10.2696 15.8823 10.2696 15.8823 10.3432 15.8818C10.5028 15.8809 10.6625 15.8803 10.8222 15.8799C10.9039 15.8796 10.9039 15.8796 10.9872 15.8793C11.2753 15.8783 11.5634 15.8776 11.8514 15.8772C12.1494 15.8767 12.4473 15.8751 12.7452 15.8732C12.974 15.872 13.2027 15.8716 13.4315 15.8714C13.5413 15.8712 13.6512 15.8706 13.761 15.8698C13.9146 15.8686 14.0682 15.8687 14.2219 15.869C14.2674 15.8684 14.3128 15.8678 14.3597 15.8672C14.5616 15.8688 14.6725 15.8721 14.8475 15.9803C14.9648 16.1083 14.9825 16.152 14.999 16.3276C14.9821 16.5274 14.9366 16.5951 14.7969 16.7348C14.688 16.7892 14.6243 16.788 14.503 16.7889C14.44 16.7895 14.44 16.7895 14.3758 16.7901C14.3065 16.7904 14.3065 16.7904 14.2358 16.7907C14.1629 16.7913 14.1629 16.7913 14.0886 16.7919C13.9274 16.793 13.7662 16.7938 13.605 16.7945C13.5501 16.7947 13.4951 16.795 13.4385 16.7952C13.1477 16.7965 12.8568 16.7974 12.566 16.7981C12.2652 16.7989 11.9645 16.801 11.6638 16.8033C11.4328 16.8049 11.2019 16.8055 10.9709 16.8057C10.86 16.806 10.7492 16.8068 10.6383 16.8079C10.4832 16.8094 10.3281 16.8094 10.173 16.809C10.1042 16.8102 10.1042 16.8102 10.0339 16.8113C9.81578 16.8093 9.71937 16.8062 9.5418 16.6696C9.42419 16.5074 9.42216 16.417 9.43279 16.2234C9.46213 16.082 9.52446 16.0199 9.64062 15.9379C9.74913 15.8837 9.8119 15.8848 9.9327 15.8841Z" fill="#535353"/>
</g>
<defs>
<clipPath id="clip0_193_266">
<rect width="24" height="24" fill="white" transform="translate(0.5)"/>
</clipPath>
</defs>
</svg>
