<svg width="24" height="24" viewBox="0 0 24 24" fill="none" xmlns="http://www.w3.org/2000/svg">
<g clip-path="url(#clip0_1_4434)">
<path d="M5.73491 -0.0304803C5.82666 -0.0314262 5.91841 -0.0324445 6.01017 -0.0335295C6.2584 -0.0361777 6.50663 -0.037589 6.75488 -0.0386031C6.91028 -0.0392589 7.06567 -0.0401212 7.22107 -0.0410417C7.7082 -0.043854 8.19532 -0.045882 8.68245 -0.0468175C9.24312 -0.0479054 9.8037 -0.0516068 10.3643 -0.0575755C10.7989 -0.0620402 11.2334 -0.0641424 11.6679 -0.0644849C11.927 -0.0647415 12.1859 -0.0659744 12.4449 -0.0696843C12.6888 -0.0731134 12.9325 -0.0735862 13.1764 -0.0718791C13.2654 -0.0717484 13.3543 -0.072641 13.4433 -0.0746883C13.9385 -0.0854179 14.2669 -0.0454281 14.6435 0.296123C14.7244 0.37467 14.8032 0.454603 14.8809 0.536387C14.9857 0.643202 15.0993 0.73386 15.2166 0.826648C15.534 1.08397 15.8447 1.34911 16.156 1.61373C16.4588 1.87092 16.763 2.12568 17.0711 2.37645C17.2442 2.51877 17.4149 2.66384 17.5856 2.80895C17.7458 2.94481 17.9072 3.07883 18.0701 3.21141C18.3891 3.47119 18.702 3.73796 19.0154 4.00435C19.3181 4.26154 19.6224 4.51631 19.9305 4.76708C20.1036 4.9094 20.2743 5.05447 20.445 5.19957C20.6052 5.33543 20.7666 5.46945 20.9295 5.60204C21.1167 5.75449 21.302 5.90886 21.4862 6.06493C21.5113 6.08622 21.5364 6.10751 21.5623 6.12945C21.6976 6.2442 21.8326 6.35921 21.9675 6.47435C22.0092 6.50985 22.0092 6.50985 22.0518 6.54606C22.1053 6.59162 22.1588 6.63725 22.2121 6.68298C22.3476 6.79918 22.3476 6.79918 22.4998 6.8911C22.5059 8.43803 22.5118 9.98496 22.5177 11.5319C22.5184 11.7165 22.5191 11.9012 22.5199 12.0859C22.52 12.1226 22.5201 12.1594 22.5203 12.1972C22.5225 12.784 22.5248 13.3709 22.5271 13.9577C22.5295 14.5646 22.5318 15.1715 22.5341 15.7784C22.5354 16.1173 22.5367 16.4561 22.538 16.795C22.5408 17.4878 22.5432 18.1805 22.545 18.8732C22.546 19.2472 22.5474 19.6211 22.5492 19.9951C22.5505 20.2871 22.5515 20.5791 22.5522 20.8711C22.5527 21.0458 22.5533 21.2205 22.5544 21.3952C22.5555 21.5879 22.5559 21.7807 22.5562 21.9734C22.5567 22.0302 22.5571 22.087 22.5576 22.1456C22.5573 22.7039 22.4668 23.153 22.0864 23.5808C21.6643 23.9807 21.2093 24.0282 20.6483 24.0243C20.5802 24.0245 20.5121 24.0248 20.4439 24.0252C20.2578 24.026 20.0716 24.0256 19.8855 24.025C19.6843 24.0246 19.4831 24.0252 19.2819 24.0257C18.8882 24.0266 18.4945 24.0264 18.1008 24.0258C17.7808 24.0254 17.4608 24.0254 17.1407 24.0256C17.0723 24.0256 17.0723 24.0256 17.0026 24.0257C16.9099 24.0257 16.8173 24.0258 16.7247 24.0258C15.8566 24.0264 14.9885 24.0258 14.1204 24.0247C13.376 24.0239 12.6316 24.0241 11.8871 24.0249C11.0221 24.0259 10.1571 24.0263 9.29203 24.0257C9.19975 24.0257 9.10746 24.0256 9.01518 24.0256C8.94707 24.0255 8.94707 24.0255 8.87759 24.0255C8.55803 24.0253 8.23847 24.0256 7.91892 24.026C7.52934 24.0266 7.13978 24.0264 6.75021 24.0254C6.55154 24.0249 6.35288 24.0247 6.15421 24.0253C5.97217 24.0259 5.79014 24.0256 5.60809 24.0246C5.54242 24.0244 5.47675 24.0245 5.41108 24.025C4.85982 24.0285 4.44093 23.9366 4.03327 23.5513C3.73991 23.2048 3.6029 22.8137 3.60388 22.3649C3.60388 22.3105 3.60389 22.2561 3.60389 22.2C3.60413 22.1418 3.60437 22.0835 3.60462 22.0235C3.60469 21.9635 3.60476 21.9035 3.60482 21.8416C3.605 21.6826 3.60546 21.5237 3.60598 21.3647C3.60646 21.2022 3.60668 21.0398 3.60691 20.8773C3.60743 20.559 3.60821 20.2407 3.6092 19.9224C3.55955 19.9233 3.50991 19.9243 3.45876 19.9253C3.27374 19.9287 3.08872 19.9309 2.90367 19.9327C2.82374 19.9336 2.74382 19.9349 2.6639 19.9365C2.54869 19.9388 2.43353 19.9398 2.31831 19.9407C2.28285 19.9416 2.24739 19.9426 2.21085 19.9436C1.96785 19.9437 1.83482 19.8925 1.64045 19.7349C1.4437 19.5245 1.44711 19.2923 1.44637 19.015C1.4461 18.9549 1.44583 18.8948 1.44556 18.8328C1.4455 18.7666 1.44545 18.7003 1.4454 18.634C1.44518 18.5639 1.44495 18.4938 1.44469 18.4237C1.44408 18.2336 1.44378 18.0435 1.44357 17.8534C1.44343 17.7345 1.44324 17.6156 1.44303 17.4967C1.44239 17.1245 1.44193 16.7523 1.44175 16.3801C1.44154 15.9509 1.44072 15.5218 1.43936 15.0926C1.43835 14.7605 1.43788 14.4284 1.43781 14.0963C1.43776 13.8981 1.43749 13.7 1.43665 13.5018C1.43588 13.3153 1.43578 13.1288 1.43619 12.9423C1.43622 12.8741 1.43602 12.8058 1.43556 12.7376C1.43329 12.3844 1.43194 12.0849 1.59358 11.7661C1.82773 11.5378 2.02753 11.525 2.3412 11.5271C2.37741 11.5272 2.41363 11.5273 2.45094 11.5273C2.56652 11.5276 2.6821 11.5282 2.79768 11.5288C2.87608 11.529 2.95448 11.5292 3.03288 11.5294C3.22499 11.53 3.41709 11.5308 3.6092 11.5317C3.60907 11.4797 3.60894 11.4277 3.60881 11.3742C3.60568 10.1085 3.60337 8.84291 3.60191 7.57727C3.60119 6.96521 3.6002 6.35316 3.59859 5.74111C3.59719 5.20758 3.59628 4.67405 3.59597 4.14052C3.59579 3.85808 3.59536 3.57564 3.59433 3.2932C3.59338 3.02719 3.59308 2.76119 3.5933 2.49517C3.59326 2.39771 3.59298 2.30024 3.59244 2.20278C3.59173 2.06931 3.59191 1.93586 3.59229 1.80238C3.59188 1.76417 3.59147 1.72596 3.59105 1.68659C3.59494 1.18141 3.76703 0.759802 4.10578 0.387012C4.57321 -0.0528575 5.13341 -0.0286321 5.73491 -0.0304803Z" fill="#4DB2F1"/>
<path d="M2.23779 11.5254C2.29426 11.5254 2.35072 11.5254 2.4089 11.5254C2.47189 11.5256 2.53487 11.5258 2.59786 11.5261C2.66452 11.5261 2.73118 11.5262 2.79784 11.5262C2.98145 11.5264 3.16507 11.5268 3.34868 11.5273C3.54654 11.5278 3.74439 11.528 3.94225 11.5283C4.37506 11.5289 4.80788 11.5299 5.24069 11.531C5.51081 11.5316 5.78093 11.5322 6.05105 11.5328C6.79858 11.5344 7.54611 11.5361 8.29363 11.5381C8.34149 11.5382 8.38935 11.5383 8.43866 11.5385C8.51062 11.5387 8.51062 11.5387 8.58403 11.5389C8.68125 11.5391 8.77846 11.5394 8.87568 11.5396C8.9239 11.5398 8.97213 11.5399 9.02181 11.54C9.80354 11.5421 10.5853 11.5436 11.367 11.5448C12.1691 11.546 12.9712 11.5477 13.7733 11.55C14.2239 11.5513 14.6745 11.5523 15.125 11.5528C15.5086 11.5532 15.8922 11.554 16.2757 11.5555C16.4715 11.5563 16.6673 11.5568 16.8631 11.5567C17.0423 11.5567 17.2214 11.5572 17.4006 11.5583C17.4654 11.5586 17.5303 11.5586 17.5952 11.5584C17.6833 11.5582 17.7714 11.5588 17.8594 11.5596C17.9084 11.5597 17.9574 11.5598 18.0078 11.5599C18.2213 11.5886 18.3403 11.6791 18.4803 11.8385C18.6093 12.0181 18.6153 12.1142 18.6161 12.335C18.6166 12.4273 18.6166 12.4273 18.6171 12.5215C18.6173 12.5902 18.6174 12.6588 18.6175 12.7275C18.6178 12.7995 18.6181 12.8715 18.6184 12.9435C18.6192 13.1394 18.6197 13.3353 18.6201 13.5313C18.6204 13.6537 18.6207 13.7761 18.621 13.8985C18.6218 14.2815 18.6225 14.6645 18.6229 15.0475C18.6234 15.4896 18.6246 15.9317 18.6265 16.3738C18.6279 16.7155 18.6286 17.0572 18.6287 17.3989C18.6289 17.603 18.6293 17.807 18.6305 18.0111C18.6316 18.2032 18.6317 18.3953 18.6313 18.5874C18.6312 18.6578 18.6315 18.7282 18.6322 18.7986C18.6381 19.4823 18.6381 19.4823 18.4217 19.734C18.1157 19.9697 17.8173 19.9478 17.4421 19.9453C17.3753 19.9455 17.3085 19.9458 17.2417 19.9462C17.0586 19.947 16.8755 19.9466 16.6924 19.946C16.4948 19.9456 16.2971 19.9462 16.0995 19.9468C15.7125 19.9476 15.3256 19.9474 14.9386 19.9469C14.6241 19.9464 14.3096 19.9464 13.9951 19.9466C13.9504 19.9466 13.9056 19.9466 13.8595 19.9467C13.7686 19.9467 13.6777 19.9468 13.5867 19.9469C12.7342 19.9474 11.8817 19.9468 11.0291 19.9458C10.2975 19.9449 9.56589 19.9451 8.83426 19.9459C7.9847 19.9469 7.13515 19.9473 6.28559 19.9468C6.19501 19.9467 6.10444 19.9466 6.01386 19.9466C5.9693 19.9466 5.92474 19.9465 5.87882 19.9465C5.56467 19.9463 5.25052 19.9466 4.93637 19.9471C4.5536 19.9476 4.17084 19.9474 3.78807 19.9464C3.59275 19.9459 3.39744 19.9458 3.20212 19.9464C3.02334 19.9469 2.84458 19.9466 2.66581 19.9456C2.60112 19.9454 2.53642 19.9455 2.47173 19.946C1.87317 19.9499 1.87317 19.9499 1.64045 19.734C1.4437 19.5237 1.44711 19.2914 1.44637 19.0142C1.4461 18.9541 1.44583 18.8939 1.44556 18.832C1.4455 18.7657 1.44545 18.6994 1.4454 18.6331C1.44518 18.563 1.44495 18.4929 1.44469 18.4229C1.44408 18.2327 1.44378 18.0426 1.44357 17.8525C1.44343 17.7336 1.44324 17.6147 1.44303 17.4959C1.44239 17.1236 1.44193 16.7514 1.44175 16.3792C1.44154 15.9501 1.44072 15.5209 1.43936 15.0917C1.43835 14.7597 1.43788 14.4276 1.43781 14.0955C1.43776 13.8973 1.43749 13.6991 1.43665 13.5009C1.43588 13.3144 1.43578 13.128 1.43619 12.9415C1.43622 12.8732 1.43602 12.805 1.43556 12.7367C1.43329 12.3836 1.43194 12.0841 1.59358 11.7652C1.79878 11.5652 1.95747 11.525 2.23779 11.5254Z" fill="#0077CC"/>
<path d="M14.1563 0C14.3372 0.0851179 14.4779 0.20061 14.6279 0.331055C14.6827 0.378026 14.7374 0.424962 14.7922 0.471863C14.8194 0.495194 14.8466 0.518526 14.8746 0.542564C14.9854 0.636809 15.098 0.728632 15.2109 0.820312C15.5299 1.08009 15.8428 1.34686 16.1562 1.61325C16.459 1.87044 16.7632 2.12521 17.0713 2.37598C17.2444 2.5183 17.4151 2.66337 17.5858 2.80847C17.746 2.94433 17.9074 3.07835 18.0703 3.21094C18.3893 3.47072 18.7022 3.73749 19.0156 4.00388C19.3183 4.26106 19.6226 4.51583 19.9307 4.7666C20.1038 4.90892 20.2744 5.05399 20.4452 5.1991C20.6054 5.33496 20.7668 5.46898 20.9297 5.60156C21.1687 5.79621 21.4042 5.99462 21.6391 6.19427C21.7487 6.28748 21.8589 6.38004 21.9694 6.47223C21.9974 6.49568 22.0254 6.51913 22.0543 6.5433C22.1082 6.58845 22.1623 6.63348 22.2165 6.67838C22.401 6.83322 22.401 6.83322 22.4531 6.9375C19.7306 6.9375 17.0081 6.9375 14.2031 6.9375C14.14 6.81125 14.1505 6.71407 14.1506 6.57266C14.1506 6.51495 14.1505 6.45723 14.1504 6.39777C14.1506 6.33347 14.1508 6.26917 14.1509 6.20487C14.151 6.13743 14.1509 6.06999 14.1509 6.00255C14.1509 5.81913 14.1512 5.63571 14.1515 5.45229C14.1518 5.26073 14.1518 5.06917 14.1519 4.87761C14.152 4.51471 14.1524 4.15181 14.1529 3.78891C14.1534 3.37583 14.1537 2.96274 14.1539 2.54966C14.1544 1.69977 14.1552 0.849886 14.1563 0Z" fill="#0077CC"/>
<path d="M4.54688 14.0156C5.02641 14.0156 5.50594 14.0156 6 14.0156C6.0261 14.1297 6.05221 14.2438 6.0791 14.3613C6.15714 14.6985 6.24574 15.0317 6.34391 15.3636C6.40818 15.5862 6.44514 15.8006 6.46875 16.0312C6.49969 16.0312 6.53062 16.0312 6.5625 16.0312C6.57277 15.9795 6.58304 15.9277 6.59363 15.8743C6.6837 15.4293 6.78513 14.9883 6.89941 14.5488C6.91169 14.5013 6.92396 14.4538 6.93661 14.4049C6.954 14.3389 6.954 14.3389 6.97174 14.2716C6.98208 14.2324 6.99243 14.1931 7.00309 14.1527C7.03125 14.0625 7.03125 14.0625 7.07812 14.0156C7.54219 14.0156 8.00625 14.0156 8.48438 14.0156C8.48438 15.1758 8.48438 16.3359 8.48438 17.5312C8.19047 17.5312 7.89656 17.5312 7.59375 17.5312C7.57828 16.7423 7.56281 15.9534 7.54688 15.1406C7.41633 15.6818 7.41633 15.6818 7.28609 16.2231C7.17994 16.6625 7.0651 17.0975 6.9375 17.5312C6.65906 17.5312 6.38063 17.5312 6.09375 17.5312C5.89266 16.7269 5.69156 15.9225 5.48438 15.0938C5.46891 15.8981 5.45344 16.7025 5.4375 17.5312C5.14359 17.5312 4.84969 17.5312 4.54688 17.5312C4.54688 16.3711 4.54688 15.2109 4.54688 14.0156Z" fill="#FCFDFE"/>
<path d="M9.1875 14.0159C9.69652 14.0116 9.69652 14.0116 10.2158 14.0071C10.3752 14.0052 10.3752 14.0052 10.5379 14.0032C10.6233 14.0028 10.7088 14.0025 10.7943 14.0022C10.8376 14.0015 10.881 14.0007 10.9257 14C11.2726 13.9999 11.5827 14.0412 11.8535 14.2708C12.1619 14.6427 12.1667 14.9504 12.1406 15.4222C12.0976 15.6805 11.9775 15.8595 11.7696 16.0153C11.4467 16.2238 11.1053 16.2379 10.7314 16.2278C10.5777 16.2249 10.424 16.222 10.2656 16.219C10.2656 16.6522 10.2656 17.0853 10.2656 17.5315C9.90984 17.5315 9.55406 17.5315 9.1875 17.5315C9.1875 16.3714 9.1875 15.2112 9.1875 14.0159Z" fill="#FDFEFE"/>
<path d="M15.0938 13.9697C15.0938 14.6813 15.0938 15.3928 15.0938 16.126C15.233 16.126 15.3722 16.126 15.5156 16.126C15.5156 16.3735 15.5156 16.621 15.5156 16.876C15.3764 16.876 15.2372 16.876 15.0938 16.876C15.0938 17.0925 15.0938 17.3091 15.0938 17.5322C14.8153 17.5322 14.5369 17.5322 14.25 17.5322C14.25 17.3156 14.25 17.0991 14.25 16.876C13.6622 16.876 13.0744 16.876 12.4688 16.876C12.4688 16.0322 12.4688 16.0322 12.6768 15.7539C12.7631 15.6742 12.85 15.5951 12.9375 15.5166C13.0085 15.434 13.0779 15.35 13.1455 15.2646C13.2586 15.1245 13.3722 14.9851 13.4888 14.8479C13.5109 14.8219 13.5329 14.7959 13.5557 14.7692C13.6004 14.7168 13.6455 14.6648 13.6909 14.613C13.7908 14.4978 13.8743 14.3929 13.9493 14.2592C14.2234 13.7769 14.4549 13.9697 15.0938 13.9697Z" fill="#FDFEFE"/>
<path d="M10.2656 14.7192C10.8157 14.6924 10.8157 14.6924 11.0625 14.9067C11.1094 14.9536 11.1094 14.9536 11.1182 15.0854C11.1096 15.2317 11.0998 15.3045 11.0156 15.4223C10.7876 15.5712 10.5275 15.5218 10.2656 15.5161C10.2656 15.2531 10.2656 14.9902 10.2656 14.7192Z" fill="#097BCD"/>
<path d="M14.2031 15.0469C14.2186 15.0469 14.2341 15.0469 14.25 15.0469C14.25 15.4027 14.25 15.7584 14.25 16.125C13.9406 16.125 13.6313 16.125 13.3125 16.125C13.6272 15.7054 13.6272 15.7054 13.8105 15.5068C13.9179 15.3903 14.021 15.2744 14.1193 15.15C14.1469 15.1159 14.1746 15.0819 14.2031 15.0469Z" fill="#067ACD"/>
</g>
<defs>
<clipPath id="clip0_1_4434">
<rect width="24" height="24" fill="white"/>
</clipPath>
</defs>
</svg>
