<svg width="24" height="24" viewBox="0 0 24 24" fill="none" xmlns="http://www.w3.org/2000/svg">
<g clip-path="url(#clip0_193_245)">
<path d="M9.4973 -0.00648665C9.54284 -0.00682206 9.58838 -0.00715746 9.63531 -0.00750303C9.68544 -0.00762907 9.73558 -0.00775512 9.78724 -0.00788498C9.86625 -0.00834702 9.86625 -0.00834702 9.94686 -0.00881839C10.1218 -0.0097449 10.2966 -0.0102904 10.4715 -0.0107574C10.5312 -0.0109485 10.5908 -0.0111395 10.6522 -0.0113364C10.9351 -0.0122138 11.218 -0.0128965 11.5009 -0.0132869C11.8274 -0.013745 12.1539 -0.0149786 12.4804 -0.0168729C12.7632 -0.0184573 13.046 -0.0190125 13.3288 -0.0192027C13.4492 -0.0194315 13.5695 -0.0199778 13.6898 -0.0208451C13.858 -0.0219827 14.0262 -0.0219443 14.1944 -0.0216179C14.2443 -0.0222184 14.2941 -0.0228188 14.3455 -0.0234375C14.6833 -0.0210437 14.6833 -0.0210437 14.8657 0.0896795C14.9904 0.229864 15.006 0.307067 15.0095 0.490242C15.0105 0.533405 15.0114 0.576567 15.0124 0.621038C15.0136 0.69106 15.0136 0.69106 15.0148 0.762497C15.0157 0.810225 15.0167 0.857952 15.0177 0.907126C15.0208 1.05996 15.0235 1.2128 15.0263 1.36565C15.0283 1.4691 15.0304 1.57256 15.0324 1.67601C15.0375 1.92997 15.0422 2.18394 15.0468 2.43791C15.0845 2.45151 15.0845 2.45151 15.123 2.46538C15.2389 2.50725 15.3546 2.54939 15.4703 2.59154C15.5297 2.61291 15.5297 2.61291 15.5902 2.63472C15.8802 2.74063 16.1528 2.86335 16.4265 3.00645C16.5428 3.06032 16.5428 3.06032 16.6393 3.01111C16.7316 2.95518 16.7991 2.89981 16.8746 2.82315C16.9005 2.79704 16.9265 2.77092 16.9532 2.74401C16.9807 2.71593 17.0081 2.68785 17.0364 2.65892C17.0651 2.63003 17.0937 2.60114 17.1232 2.57138C17.2145 2.47926 17.3055 2.38683 17.3964 2.29436C17.4877 2.20176 17.5791 2.10923 17.6706 2.01683C17.7275 1.95937 17.7842 1.90178 17.8409 1.84405C18.0126 1.67023 18.1081 1.58566 18.3515 1.56487C18.6266 1.57112 18.7457 1.67783 18.9354 1.86754C18.9571 1.89024 18.9787 1.91293 19.0011 1.93632C19.0936 2.03218 19.1886 2.1254 19.2837 2.21873C19.4302 2.36312 19.5765 2.5077 19.7217 2.65343C19.7676 2.69948 19.7676 2.69948 19.8145 2.74646C19.902 2.83886 19.9849 2.93275 20.0676 3.02926C20.2599 3.25018 20.4659 3.45613 20.6738 3.66222C20.7433 3.73108 20.8126 3.80009 20.8819 3.86913C21.0285 4.01524 21.1753 4.16116 21.3222 4.30705C21.4935 4.47723 21.6647 4.64748 21.8357 4.81792C21.904 4.8859 21.9724 4.95373 22.0408 5.02155C22.082 5.06257 22.1231 5.10358 22.1656 5.14584C22.2019 5.18197 22.2383 5.2181 22.2758 5.25533C22.4192 5.40789 22.4323 5.53767 22.4264 5.74178C22.4031 5.87781 22.37 5.92474 22.2771 6.02495C22.2473 6.05715 22.2176 6.08935 22.1869 6.12252C21.9588 6.35782 21.7277 6.58991 21.495 6.82072C21.4423 6.8732 21.3896 6.92569 21.3369 6.9782C21.2091 7.10552 21.0811 7.23269 20.953 7.35979C21.007 7.52586 21.0638 7.6882 21.133 7.8485C21.157 7.90455 21.157 7.90455 21.1815 7.96175C21.2145 8.03843 21.2476 8.11509 21.2807 8.19173C21.2968 8.22928 21.3128 8.26683 21.3293 8.30553C21.3509 8.3555 21.3509 8.3555 21.3729 8.40648C21.4432 8.58646 21.5025 8.76987 21.5624 8.95354C21.5889 8.95371 21.6154 8.95388 21.6427 8.95405C21.9188 8.95602 22.1948 8.95927 22.4708 8.96326C22.5738 8.96459 22.6768 8.96558 22.7797 8.96624C22.9279 8.96725 23.076 8.96943 23.2241 8.97185C23.2701 8.9719 23.316 8.97196 23.3634 8.97202C23.5681 8.97641 23.6866 8.98063 23.8638 9.09009C23.9938 9.23257 24.0059 9.30959 24.0068 9.49779C24.0073 9.5661 24.0073 9.5661 24.0078 9.63579C24.008 9.711 24.008 9.711 24.0082 9.78773C24.0087 9.86674 24.0087 9.86674 24.0092 9.94734C24.0101 10.1222 24.0106 10.2971 24.0111 10.472C24.0113 10.5316 24.0115 10.5913 24.0117 10.6527C24.0125 10.9356 24.0132 11.2185 24.0136 11.5014C24.0141 11.8279 24.0153 12.1544 24.0172 12.4809C24.0188 12.7637 24.0193 13.0465 24.0195 13.3293C24.0198 13.4496 24.0203 13.5699 24.0212 13.6902C24.0223 13.8585 24.0223 14.0267 24.022 14.1949C24.0226 14.2448 24.0232 14.2946 24.0238 14.346C24.0214 14.6838 24.0214 14.6838 23.9107 14.8662C23.7705 14.9908 23.6933 15.0065 23.5101 15.01C23.4669 15.011 23.4238 15.0119 23.3793 15.0129C23.3093 15.014 23.3093 15.014 23.2378 15.0152C23.1662 15.0167 23.1662 15.0167 23.0932 15.0182C22.9404 15.0213 22.7875 15.024 22.6347 15.0268C22.5312 15.0288 22.4278 15.0308 22.3243 15.0329C22.0704 15.0379 21.8164 15.0427 21.5624 15.0473C21.5534 15.0724 21.5443 15.0976 21.535 15.1235C21.4931 15.2393 21.4509 15.3551 21.4088 15.4708C21.3945 15.5104 21.3803 15.5499 21.3656 15.5907C21.2597 15.8806 21.137 16.1533 20.9939 16.427C20.9419 16.5409 20.9419 16.5409 20.9797 16.6305C21.0765 16.781 21.2019 16.8994 21.3295 17.0234C21.3573 17.0507 21.385 17.0781 21.4136 17.1063C21.502 17.1937 21.5908 17.2807 21.6796 17.3676C21.7966 17.4821 21.9132 17.5969 22.0297 17.7118C22.0701 17.751 22.0701 17.751 22.1112 17.791C22.3036 17.981 22.3926 18.0976 22.4325 18.3637C22.4281 18.5371 22.3788 18.6143 22.2623 18.7406C22.2324 18.7732 22.2025 18.8058 22.1717 18.8395C22.0257 18.9929 21.8782 19.1443 21.7282 19.2939C21.6783 19.3439 21.6783 19.3439 21.6273 19.3949C21.5186 19.5039 21.4097 19.6127 21.3008 19.7214C21.2247 19.7975 21.1487 19.8736 21.0727 19.9496C20.914 20.1084 20.7553 20.267 20.5965 20.4256C20.3926 20.6292 20.1889 20.833 19.9853 21.0369C19.8287 21.1937 19.672 21.3504 19.5152 21.507C19.44 21.5822 19.3649 21.6574 19.2898 21.7326C19.1852 21.8373 19.0805 21.9418 18.9757 22.0463C18.9446 22.0775 18.9134 22.1088 18.8814 22.141C18.8529 22.1693 18.8245 22.1976 18.7951 22.2268C18.7704 22.2515 18.7457 22.2762 18.7202 22.3016C18.581 22.428 18.4399 22.4321 18.2586 22.4269C18.1225 22.4036 18.0756 22.3705 17.9754 22.2776C17.9432 22.2478 17.911 22.218 17.8778 22.1874C17.6425 21.9593 17.4104 21.7282 17.1796 21.4955C17.1271 21.4428 17.0746 21.3901 17.0221 21.3374C16.8948 21.2096 16.7676 21.0816 16.6405 20.9535C16.4745 21.0075 16.3121 21.0643 16.1518 21.1335C16.1145 21.1495 16.0771 21.1655 16.0386 21.182C15.9619 21.215 15.8852 21.2481 15.8086 21.2812C15.7711 21.2972 15.7335 21.3133 15.6948 21.3298C15.6615 21.3442 15.6282 21.3586 15.5939 21.3734C15.4139 21.4437 15.2305 21.503 15.0468 21.5629C15.0466 21.5894 15.0465 21.6159 15.0463 21.6432C15.0443 21.9192 15.0411 22.1953 15.0371 22.4713C15.0357 22.5743 15.0348 22.6772 15.0341 22.7802C15.0331 22.9284 15.0309 23.0765 15.0285 23.2246C15.0284 23.2705 15.0284 23.3165 15.0283 23.3639C15.0239 23.5686 15.0197 23.6871 14.9102 23.8643C14.7678 23.9943 14.6907 24.0064 14.5025 24.0073C14.457 24.0076 14.4115 24.008 14.3645 24.0083C14.2893 24.0085 14.2893 24.0085 14.2126 24.0087C14.1336 24.0092 14.1336 24.0092 14.053 24.0096C13.8781 24.0106 13.7032 24.0111 13.5283 24.0116C13.4687 24.0118 13.4091 24.012 13.3477 24.0122C13.0648 24.013 12.7819 24.0137 12.499 24.0141C12.1725 24.0146 11.846 24.0158 11.5195 24.0177C11.2366 24.0193 10.9538 24.0198 10.671 24.02C10.5507 24.0203 10.4304 24.0208 10.3101 24.0217C10.1419 24.0228 9.97367 24.0228 9.80544 24.0224C9.75558 24.023 9.70573 24.0236 9.65436 24.0243C9.31644 24.0219 9.31644 24.0219 9.13503 23.9115C8.91746 23.6684 8.94048 23.4146 8.94389 23.1045C8.94403 23.059 8.94416 23.0136 8.9443 22.9668C8.94482 22.822 8.946 22.6773 8.94719 22.5326C8.94766 22.4343 8.94809 22.336 8.94847 22.2377C8.9495 21.9972 8.95112 21.7566 8.95305 21.516C8.92466 21.51 8.89627 21.504 8.86703 21.4977C8.81071 21.4855 8.81071 21.4855 8.75325 21.4731C8.71616 21.4651 8.67907 21.4571 8.64086 21.4489C8.4818 21.4103 8.33941 21.3541 8.1884 21.2905C8.13347 21.2679 8.07855 21.2454 8.02196 21.2222C7.83614 21.1196 7.72268 21.0117 7.65428 20.808C7.64551 20.6348 7.66091 20.5209 7.76526 20.3787C7.7993 20.3425 7.83335 20.3064 7.86843 20.2691C7.90682 20.2281 7.9452 20.1872 7.98474 20.145C8.1969 19.9254 8.41038 19.7072 8.62621 19.4913C8.67493 19.4424 8.72365 19.3935 8.77236 19.3446C8.87372 19.243 8.97517 19.1415 9.07668 19.04C9.20555 18.9111 9.3341 18.7819 9.46257 18.6526C9.56283 18.5519 9.66331 18.4513 9.76384 18.3508C9.81129 18.3033 9.85865 18.2557 9.90594 18.208C10.7347 17.3735 10.7347 17.3735 11.0201 17.3647C11.0823 17.3715 11.1443 17.3804 11.206 17.391C11.2754 17.3988 11.3449 17.4064 11.4144 17.4137C11.4493 17.418 11.4842 17.4223 11.5202 17.4267C12.8402 17.5686 14.2188 17.1431 15.2812 16.3598C15.4095 16.2491 15.534 16.1359 15.6564 16.0187C15.7499 15.9379 15.7499 15.9379 15.8437 15.9379C15.8552 15.9112 15.8668 15.8845 15.8786 15.857C15.9471 15.7328 16.0293 15.6472 16.1279 15.5453C17.0749 14.5042 17.5026 13.0812 17.4444 11.6892C17.3681 10.4713 16.9095 9.36705 16.1249 8.43791C16.0878 8.39314 16.0507 8.34836 16.0125 8.30223C15.3199 7.50089 14.3895 6.98806 13.3739 6.71526C13.3188 6.70042 13.3188 6.70042 13.2626 6.68528C11.8771 6.33049 10.4096 6.6646 9.18742 7.35979C7.91676 8.11352 7.05106 9.27754 6.68002 10.7021C6.58222 11.099 6.55472 11.4788 6.55656 11.8862C6.55652 11.9313 6.55647 11.9764 6.55643 12.0229C6.55761 12.3454 6.5777 12.6602 6.61736 12.9804C6.60269 13.2444 6.42744 13.4133 6.24309 13.5883C6.12366 13.7021 6.01356 13.8196 5.90665 13.9449C5.69142 14.1917 5.4602 14.4219 5.2285 14.6531C5.18189 14.6997 5.1353 14.7463 5.0887 14.793C4.99183 14.8899 4.89487 14.9868 4.79785 15.0836C4.67343 15.2077 4.54923 15.3321 4.42508 15.4565C4.32926 15.5525 4.23333 15.6484 4.13736 15.7442C4.09148 15.7901 4.04564 15.836 3.99983 15.8819C3.93612 15.9457 3.87225 16.0094 3.80837 16.073C3.77209 16.1093 3.73582 16.1455 3.69844 16.1828C3.55074 16.3207 3.44176 16.3206 3.24217 16.3283C3.10123 16.307 3.02005 16.2578 2.90617 16.1723C2.82835 16.0553 2.82835 16.0553 2.76262 15.9174C2.74081 15.873 2.71899 15.8286 2.69652 15.7828C2.59686 15.542 2.51736 15.2953 2.43742 15.0473C2.41093 15.0471 2.38444 15.0469 2.35714 15.0468C2.08109 15.0448 1.80508 15.0416 1.52905 15.0376C1.42607 15.0362 1.32309 15.0352 1.2201 15.0346C1.07196 15.0336 0.92387 15.0314 0.775742 15.029C0.729786 15.0289 0.68383 15.0289 0.636482 15.0288C0.431746 15.0244 0.313198 15.0202 0.136005 14.9107C0.00607511 14.7683 -0.0060255 14.6912 -0.00697494 14.503C-0.00747804 14.4347 -0.00747804 14.4347 -0.00799131 14.365C-0.00818038 14.2898 -0.00818038 14.2898 -0.00837326 14.2131C-0.00868129 14.1604 -0.00898931 14.1077 -0.00930667 14.0535C-0.0102332 13.8786 -0.0107787 13.7037 -0.0112457 13.5288C-0.0114368 13.4692 -0.0116275 13.4096 -0.0118244 13.3482C-0.0127019 13.0653 -0.0133844 12.7824 -0.0137749 12.4995C-0.0142329 12.173 -0.0154669 11.8465 -0.0173612 11.5199C-0.0189456 11.2371 -0.0195005 10.9543 -0.0196908 10.6715C-0.0199195 10.5512 -0.0204664 10.4309 -0.0213337 10.3106C-0.0224712 10.1424 -0.0224326 9.97416 -0.0221062 9.80593C-0.0227066 9.75607 -0.0233071 9.70622 -0.0239258 9.65485C-0.021532 9.317 -0.021532 9.317 0.0891912 9.13464C0.229375 9.00998 0.306579 8.99429 0.489754 8.99079C0.532916 8.98985 0.576079 8.98892 0.62055 8.98795C0.690572 8.98678 0.690572 8.98678 0.762009 8.98558C0.809736 8.98461 0.857464 8.98363 0.906638 8.98263C1.05947 8.97956 1.21232 8.9768 1.36516 8.97404C1.46861 8.97202 1.57207 8.96998 1.67552 8.96791C1.92949 8.96288 2.18345 8.95811 2.43742 8.95354C2.45102 8.91581 2.45102 8.91581 2.46489 8.87731C2.50676 8.76148 2.5489 8.64575 2.59105 8.53001C2.6053 8.49046 2.61955 8.4509 2.63423 8.41014C2.74014 8.12018 2.86286 7.84756 3.00597 7.57384C3.05983 7.45758 3.05983 7.45758 3.01062 7.36104C2.95469 7.26875 2.89932 7.20124 2.82267 7.12576C2.79655 7.09979 2.77043 7.07383 2.74352 7.04709C2.71544 7.01964 2.68736 6.99219 2.65843 6.96391C2.62954 6.93527 2.60066 6.90662 2.57089 6.87711C2.47877 6.78582 2.38634 6.69486 2.29387 6.60393C2.20127 6.51262 2.10874 6.42125 2.01634 6.32974C1.95888 6.27285 1.90129 6.21609 1.84357 6.15946C1.67115 5.98907 1.58685 5.90263 1.57903 5.66057C1.57727 5.62552 1.57552 5.59048 1.57372 5.55437C1.61878 5.29141 1.82907 5.09708 2.01189 4.91515C2.03362 4.89343 2.05536 4.87172 2.07775 4.84935C2.12349 4.80374 2.16935 4.75825 2.21532 4.71287C2.28449 4.64454 2.35329 4.57585 2.42204 4.5071C2.60506 4.32502 2.78825 4.14532 2.98434 3.97725C3.20762 3.78323 3.41536 3.57469 3.62354 3.3647C3.69397 3.29366 3.76455 3.22277 3.83518 3.15192C3.98463 3.00194 4.13389 2.85178 4.28313 2.70158C4.45717 2.52643 4.63129 2.35136 4.80561 2.17648C4.87514 2.10664 4.94453 2.03667 5.01392 1.96669C5.07684 1.90353 5.07684 1.90353 5.14104 1.83909C5.17801 1.80188 5.21498 1.76466 5.25306 1.72633C5.40666 1.58175 5.53557 1.56797 5.74129 1.57392C5.87733 1.59725 5.92425 1.6303 6.02446 1.72325C6.05666 1.75302 6.08886 1.78278 6.12203 1.81345C6.35733 2.04156 6.58942 2.27266 6.82024 2.50529C6.87272 2.55801 6.92521 2.61071 6.97771 2.66341C7.10503 2.79124 7.23221 2.91922 7.3593 3.04729C7.52537 2.99332 7.68771 2.93655 7.84801 2.86729C7.88538 2.85131 7.92275 2.83533 7.96126 2.81886C8.03794 2.78583 8.1146 2.75275 8.19124 2.71962C8.24757 2.69556 8.24757 2.69556 8.30504 2.67101C8.33835 2.65663 8.37166 2.64225 8.40599 2.62744C8.58597 2.55713 8.76939 2.49782 8.95305 2.43791C8.95322 2.41142 8.95339 2.38493 8.95357 2.35763C8.95553 2.08158 8.95878 1.80557 8.96278 1.52954C8.9641 1.42656 8.96509 1.32358 8.96575 1.22059C8.96676 1.07245 8.96894 0.924358 8.97136 0.77623C8.97142 0.730274 8.97147 0.684319 8.97153 0.63697C8.97592 0.432234 8.98014 0.313686 9.0896 0.136494C9.23208 0.00656339 9.3091 -0.00553722 9.4973 -0.00648665ZM10.0312 1.03166C10.0157 1.66588 10.0002 2.3001 9.9843 2.95354C9.87444 3.22818 9.87444 3.22818 9.65617 3.32854C9.48661 3.38757 9.31505 3.43973 9.14348 3.4926C8.68437 3.63805 8.26358 3.82106 7.84253 4.05482C7.58761 4.19239 7.4157 4.25866 7.12492 4.21916C6.60913 3.96849 6.05031 3.31913 5.71867 2.85979C5.53233 2.93482 5.40741 3.0647 5.26892 3.20515C5.23047 3.24357 5.23047 3.24357 5.19125 3.28277C5.10683 3.36727 5.02274 3.45208 4.93864 3.53691C4.88008 3.59565 4.82149 3.65437 4.76289 3.71307C4.60887 3.86745 4.45513 4.02211 4.30145 4.17682C4.14451 4.33472 3.98731 4.49235 3.83012 4.65001C3.52188 4.95926 3.21393 5.2688 2.90617 5.57854C2.98604 5.74905 3.08052 5.85625 3.21617 5.98814C3.28075 6.05164 3.28075 6.05164 3.34663 6.11641C3.41476 6.1828 3.48297 6.2491 3.5512 6.31539C4.25238 6.99841 4.25238 6.99841 4.26555 7.31291C4.24229 7.41197 4.24229 7.41197 4.19817 7.51506C4.18052 7.55651 4.16288 7.59796 4.1447 7.64067C4.08414 7.76877 4.01868 7.89326 3.95201 8.01823C3.72239 8.45291 3.57144 8.90287 3.42863 9.37293C3.41212 9.42577 3.3956 9.47862 3.37859 9.53307C3.36428 9.58058 3.34997 9.62809 3.33524 9.67704C3.27339 9.8146 3.22365 9.86372 3.09367 9.93791C2.42601 10.1048 1.71917 10.0145 1.03117 10.0317C1.03117 11.331 1.03117 12.6304 1.03117 13.9692C1.9593 13.9924 1.9593 13.9924 2.90617 14.016C3.2343 14.1567 3.2343 14.1567 3.30571 14.2663C3.31888 14.3065 3.33206 14.3467 3.34563 14.3881C3.35952 14.4282 3.37342 14.4682 3.38774 14.5095C3.41733 14.6102 3.44451 14.7108 3.46867 14.8129C3.64402 14.7398 3.7553 14.6315 3.88853 14.4976C3.9213 14.4648 3.9213 14.4648 3.95474 14.4313C4.0009 14.385 4.04695 14.3386 4.09289 14.2921C4.16205 14.2221 4.23157 14.1524 4.30116 14.0829C4.51807 13.8651 4.73065 13.646 4.92677 13.409C5.01555 13.3129 5.01555 13.3129 5.14938 13.2013C5.34912 13.033 5.50954 12.8931 5.56942 12.6278C5.57423 12.4683 5.57161 12.315 5.55927 12.1562C5.54629 11.9849 5.54273 11.8134 5.53813 11.6417C5.53703 11.6078 5.53592 11.574 5.53478 11.5391C5.49505 10.0849 6.24511 8.63708 7.20586 7.58775C7.81999 6.93929 8.51408 6.45724 9.32805 6.09416C9.3837 6.06872 9.43935 6.04328 9.49669 6.01707C10.7413 5.48214 12.231 5.33997 13.5468 5.67229C13.5784 5.67983 13.6099 5.68738 13.6424 5.69515C15.2545 6.0867 16.7 7.17155 17.569 8.57799C18.4786 10.1113 18.704 11.8796 18.2797 13.6086C17.8519 15.2372 16.8114 16.72 15.3644 17.5947C14.6508 18.0099 13.8936 18.2884 13.078 18.4223C13.0485 18.4282 13.0189 18.4342 12.9884 18.4403C12.7598 18.4781 12.5819 18.4569 12.3561 18.4045C11.8842 18.3181 11.4433 18.2766 11.0275 18.5555C10.6846 18.8252 10.3785 19.1324 10.078 19.4477C10.0558 19.471 10.0335 19.4944 10.0105 19.5184C9.48631 19.9789 9.48631 19.9789 9.18742 20.5317C9.22978 20.543 9.27214 20.5544 9.31578 20.5661C9.37107 20.5818 9.42636 20.5975 9.48332 20.6137C9.56571 20.6365 9.56571 20.6365 9.64977 20.6598C9.80657 20.7231 9.858 20.7603 9.93742 20.9067C10.1043 21.5743 10.014 22.2812 10.0312 22.9692C11.3305 22.9692 12.6299 22.9692 13.9687 22.9692C13.9785 22.3318 13.9785 22.3318 13.9869 21.6944C13.9884 21.6143 13.9899 21.5341 13.9916 21.454C13.9919 21.4127 13.9921 21.3713 13.9924 21.3288C13.9977 21.1041 14.0088 20.9476 14.1562 20.766C14.2514 20.7137 14.2514 20.7137 14.3671 20.6781C14.4361 20.6553 14.4361 20.6553 14.5065 20.632C14.561 20.6144 14.6156 20.5967 14.6718 20.5785C14.812 20.5311 14.9515 20.482 15.0907 20.4321C15.1284 20.4186 15.166 20.4051 15.2048 20.3912C15.5439 20.2656 15.8625 20.1066 16.1788 19.9317C16.4257 19.8001 16.5944 19.7461 16.8749 19.7817C17.3907 20.0323 17.9495 20.6817 18.2812 21.141C18.4675 21.066 18.5924 20.9361 18.7309 20.7957C18.7566 20.7701 18.7822 20.7444 18.8086 20.718C18.893 20.6336 18.9771 20.5487 19.0612 20.4639C19.1198 20.4052 19.1784 20.3465 19.237 20.2878C19.391 20.1334 19.5447 19.9787 19.6984 19.824C19.8553 19.6661 20.0125 19.5085 20.1697 19.3508C20.478 19.0416 20.7859 18.732 21.0937 18.4223C21.0138 18.2518 20.9193 18.1446 20.7837 18.0127C20.7406 17.9704 20.6976 17.928 20.6532 17.8844C20.5851 17.818 20.5169 17.7517 20.4487 17.6854C19.7475 17.0024 19.7475 17.0024 19.7343 16.6879C19.7576 16.5889 19.7576 16.5889 19.8017 16.4858C19.8193 16.4443 19.837 16.4029 19.8551 16.3602C19.9157 16.2321 19.9812 16.1076 20.0478 15.9826C20.2775 15.5479 20.4284 15.098 20.5712 14.6279C20.5877 14.5751 20.6042 14.5222 20.6213 14.4678C20.6427 14.3965 20.6427 14.3965 20.6646 14.3238C20.7265 14.1862 20.7762 14.1371 20.9062 14.0629C21.5738 13.896 22.2807 13.9864 22.9687 13.9692C22.9687 12.6698 22.9687 11.3704 22.9687 10.0317C22.0173 10.0085 22.0173 10.0085 21.0468 9.98479C20.7722 9.87493 20.7722 9.87493 20.6718 9.65666C20.6128 9.48709 20.5606 9.31553 20.5077 9.14397C20.3623 8.68486 20.1793 8.26406 19.9455 7.84301C19.8079 7.5881 19.7417 7.41619 19.7812 7.12541C20.0318 6.60962 20.6812 6.0508 21.1405 5.71916C21.0655 5.53282 20.9356 5.4079 20.7952 5.26941C20.7696 5.24378 20.744 5.21815 20.7176 5.19174C20.6331 5.10731 20.5483 5.02322 20.4634 4.93913C20.4047 4.88057 20.346 4.82198 20.2873 4.76338C20.1329 4.60936 19.9782 4.45562 19.8235 4.30194C19.6656 4.145 19.508 3.98779 19.3503 3.83061C19.0411 3.52237 18.7315 3.21442 18.4218 2.90666C18.2513 2.98653 18.1441 3.08101 18.0122 3.21666C17.9699 3.25971 17.9275 3.30276 17.8839 3.34712C17.8175 3.41525 17.7512 3.48346 17.6849 3.55169C17.0019 4.25287 17.0019 4.25287 16.6874 4.26604C16.5884 4.24278 16.5884 4.24278 16.4853 4.19865C16.4438 4.18101 16.4024 4.16337 16.3597 4.14519C16.2316 4.08463 16.1071 4.01917 15.9821 3.9525C15.5474 3.72287 15.0975 3.57193 14.6274 3.42912C14.5481 3.40435 14.5481 3.40435 14.4673 3.37907C14.4198 3.36477 14.3722 3.35046 14.3233 3.33572C14.1857 3.27388 14.1366 3.22414 14.0624 3.09416C13.8955 2.4265 13.9859 1.71966 13.9687 1.03166C12.6693 1.03166 11.3699 1.03166 10.0312 1.03166Z" fill="#535353"/>
<path d="M13.7344 8.15626C13.8254 8.31711 13.873 8.43712 13.8809 8.62208C13.8017 8.83761 13.6558 8.9755 13.5 9.14063C13.4461 9.20396 13.3924 9.26744 13.3389 9.33106C13.2342 9.45047 13.1275 9.55769 13.0063 9.6601C12.7546 9.87807 12.5161 10.1088 12.2783 10.3418C12.2554 10.3636 12.2325 10.3854 12.2089 10.4079C12.142 10.4717 12.076 10.5366 12.0101 10.6014C11.971 10.6394 11.9319 10.6773 11.8916 10.7164C11.7996 10.8219 11.7996 10.8219 11.8188 10.9493C11.875 11.1062 11.9487 11.2523 12.0264 11.3994C12.1875 11.7069 12.1875 11.7069 12.1875 11.8125C12.228 11.8249 12.2685 11.8373 12.3102 11.85C12.5188 11.924 12.7056 12.0284 12.8998 12.1339C13.0461 12.1936 13.0762 12.1962 13.2187 12.1406C13.3171 12.062 13.3171 12.062 13.4135 11.9604C13.4703 11.9031 13.4703 11.9031 13.5282 11.8447C13.5687 11.8032 13.6092 11.7617 13.6509 11.7189C13.6928 11.6766 13.7348 11.6342 13.778 11.5906C13.8894 11.4779 14.0006 11.365 14.1116 11.252C14.2679 11.0928 14.4245 10.9338 14.5814 10.7752C14.6649 10.6908 14.7481 10.6061 14.8312 10.5212C14.869 10.4829 14.9069 10.4446 14.9459 10.4051C14.9956 10.3544 14.9956 10.3544 15.0464 10.3027C15.2084 10.1584 15.2926 10.1244 15.5127 10.1279C15.6584 10.1398 15.7092 10.1769 15.8256 10.2715C15.9525 10.4243 15.9939 10.54 16.043 10.7315C16.0577 10.787 16.0724 10.8425 16.0876 10.8997C16.3408 12.0032 16.1264 13.0878 15.5508 14.0508C14.9496 14.9425 14.0764 15.5384 13.0312 15.7969C12.8461 15.8321 12.671 15.8498 12.4827 15.85C12.4328 15.85 12.383 15.8501 12.3316 15.8502C12.2802 15.85 12.2288 15.8498 12.1758 15.8496C12.0997 15.8499 12.0997 15.8499 12.0221 15.8502C11.7842 15.8499 11.5606 15.8423 11.3258 15.8024C11.199 15.7883 11.1344 15.7832 11.0219 15.8449C10.9394 15.9177 10.8695 15.9938 10.7988 16.0781C10.7505 16.132 10.702 16.1857 10.6534 16.2393C10.6298 16.2658 10.6061 16.2923 10.5818 16.3196C10.5066 16.3992 10.43 16.4679 10.346 16.5378C10.0609 16.7851 9.79843 17.0558 9.53254 17.3233C9.43328 17.4232 9.33387 17.5229 9.23442 17.6226C9.02333 17.8342 8.81243 18.046 8.60155 18.2578C8.35698 18.5035 8.11232 18.7491 7.86746 18.9945C7.77005 19.0922 7.67279 19.1901 7.57553 19.288C7.3238 19.5407 7.07356 19.7902 6.80156 20.0213C6.57708 20.2222 6.36862 20.4407 6.15693 20.6549C6.06595 20.7469 5.97478 20.8388 5.88355 20.9305C5.62441 21.1912 5.36546 21.4521 5.10701 21.7135C4.94823 21.8741 4.7891 22.0343 4.62975 22.1943C4.56956 22.2548 4.5095 22.3155 4.44958 22.3764C3.88567 22.9487 3.3536 23.4497 2.50781 23.4609C1.95233 23.4542 1.49154 23.262 1.08105 22.8854C0.646993 22.428 0.538504 21.9052 0.549858 21.2968C0.586294 20.4678 1.27603 19.8919 1.82684 19.3486C1.89491 19.2809 1.96295 19.2132 2.03096 19.1454C2.20892 18.9682 2.38729 18.7915 2.56576 18.6148C2.85159 18.3318 3.13682 18.0481 3.42203 17.7644C3.52105 17.6661 3.62026 17.5679 3.71949 17.4697C3.97362 17.2178 4.22495 16.9678 4.45654 16.6947C4.66948 16.4567 4.90064 16.2351 5.12712 16.01C5.22541 15.9123 5.32354 15.8145 5.42164 15.7166C5.66519 15.4737 5.90899 15.231 6.15278 14.9883C6.35928 14.7828 6.56569 14.5771 6.77197 14.3713C6.86812 14.2754 6.96441 14.1797 7.06071 14.084C7.44758 13.7002 7.44758 13.7002 7.8087 13.2923C7.88665 13.2058 7.97264 13.1345 8.06249 13.0606C8.17942 12.9465 8.17942 12.9465 8.20711 12.7915C8.20126 12.7551 8.19541 12.7187 8.18938 12.6812C8.09199 11.9506 8.09819 11.1991 8.34374 10.5C8.36308 10.4445 8.38241 10.3889 8.40234 10.3317C8.79717 9.31662 9.5654 8.60487 10.5322 8.13868C11.3968 7.75851 12.9121 7.54641 13.7344 8.15626ZM9.92559 9.86152C9.56779 10.2845 9.3527 10.7582 9.23437 11.2969C9.21842 11.3665 9.21842 11.3665 9.20214 11.4375C9.15067 11.9316 9.22392 12.3832 9.35943 12.8602C9.39044 12.9933 9.39085 13.0944 9.32757 13.2166C8.79159 13.9456 8.07223 14.5733 7.43261 15.208C7.26652 15.3729 7.10058 15.5379 6.93475 15.703C6.89748 15.7398 6.86022 15.7767 6.82183 15.8147C6.78644 15.8499 6.75104 15.8852 6.71457 15.9215C6.68397 15.9518 6.65337 15.9822 6.62184 16.0135C6.53275 16.107 6.44828 16.2023 6.36398 16.3001C6.18136 16.51 5.98705 16.7064 5.7897 16.9024C5.73212 16.9599 5.73212 16.9599 5.67338 17.0185C5.59062 17.1011 5.5078 17.1836 5.42494 17.2661C5.29357 17.3969 5.16235 17.5278 5.03118 17.6587C4.72907 17.9603 4.42673 18.2616 4.12439 18.5629C3.84702 18.8393 3.5697 19.1158 3.29257 19.3924C3.14163 19.5431 2.99051 19.6936 2.83936 19.844C2.75987 19.9234 2.68039 20.0027 2.60091 20.082C2.56535 20.1173 2.52979 20.1526 2.49315 20.189C1.91512 20.7258 1.91512 20.7258 1.62597 21.4277C1.64919 21.7156 1.74324 21.973 1.96288 22.169C2.21077 22.3326 2.42176 22.3901 2.71874 22.3594C2.9903 22.2731 3.17255 22.1108 3.36327 21.9044C3.4511 21.8149 3.5398 21.7349 3.635 21.6537C3.86306 21.4549 4.07594 21.2424 4.28915 21.0279C4.35498 20.962 4.42081 20.8961 4.48664 20.8301C4.55668 20.7599 4.62666 20.6897 4.69663 20.6194C4.84313 20.4723 4.98981 20.3253 5.13652 20.1784C5.44792 19.8665 5.75912 19.5543 6.0703 19.2422C6.40637 18.9051 6.74247 18.568 7.0788 18.2312C7.22432 18.0855 7.36972 17.9396 7.51503 17.7936C7.58381 17.7246 7.65265 17.6556 7.72151 17.5866C7.80502 17.503 7.88845 17.4192 7.97177 17.3354C8.17271 17.1345 8.37726 16.9414 8.59271 16.7561C8.68337 16.6775 8.7691 16.5954 8.8533 16.5099C8.89885 16.4639 8.89885 16.4639 8.94532 16.417C8.97678 16.385 9.00823 16.353 9.04064 16.32C9.10991 16.2502 9.17919 16.1803 9.24847 16.1105C9.35572 16.002 9.46289 15.8936 9.56993 15.7849C10.5627 14.7786 10.5627 14.7786 10.9219 14.625C11.0176 14.6331 11.0176 14.6331 11.1182 14.6602C11.1556 14.6695 11.193 14.6788 11.2315 14.6884C11.3002 14.707 11.3687 14.7261 11.4369 14.7462C12.1906 14.9482 12.9883 14.8029 13.6674 14.4445C14.3585 14.0331 14.8479 13.3529 15.0615 12.5859C15.1325 12.3052 15.16 12.0534 15.1406 11.7656C14.9187 11.9507 14.7096 12.1438 14.5069 12.3496C14.4795 12.3771 14.4521 12.4047 14.4238 12.4331C14.3375 12.5201 14.2512 12.6072 14.165 12.6943C14.0506 12.81 13.936 12.9255 13.8213 13.041C13.7821 13.0808 13.7821 13.0808 13.742 13.1214C13.575 13.2896 13.5093 13.3539 13.2696 13.3773C12.979 13.3737 12.7523 13.2493 12.498 13.1192C12.4302 13.0858 12.4302 13.0858 12.3611 13.0518C12.2699 13.0065 12.1791 12.9604 12.0888 12.9133C11.9986 12.8671 11.9072 12.8233 11.8146 12.782C11.4489 12.6093 11.3077 12.4065 11.1416 12.044C11.1183 11.996 11.0949 11.9479 11.0709 11.8985C11.0251 11.8037 10.9799 11.7087 10.9354 11.6133C10.884 11.5037 10.8307 11.3957 10.7754 11.2881C10.5577 10.8527 10.5577 10.8527 10.6406 10.5938C10.8321 10.2689 11.1184 10.0096 11.3848 9.74708C11.4251 9.70681 11.4654 9.66653 11.5069 9.62504C11.7194 9.41396 11.935 9.2103 12.1644 9.01769C12.2401 8.95547 12.2401 8.95547 12.2812 8.85938C11.3852 8.79538 10.5312 9.22237 9.92559 9.86152Z" fill="#535353"/>
</g>
<defs>
<clipPath id="clip0_193_245">
<rect width="24" height="24" fill="white"/>
</clipPath>
</defs>
</svg>
