<svg width="25" height="24" viewBox="0 0 25 24" fill="none" xmlns="http://www.w3.org/2000/svg">
<path d="M3.97498 3.7315C4.07065 3.73124 4.16632 3.73091 4.26199 3.73053C4.52076 3.72969 4.77951 3.72974 5.03828 3.73001C5.2545 3.73016 5.47072 3.72987 5.68694 3.72959C6.19689 3.72893 6.70683 3.729 7.21677 3.72954C7.74276 3.73007 8.26874 3.72941 8.79473 3.72816C9.24674 3.72712 9.69873 3.72681 10.1507 3.72708C10.4205 3.72724 10.6903 3.72713 10.9601 3.72632C11.2136 3.7256 11.4671 3.72578 11.7206 3.72666C11.8136 3.72684 11.9066 3.72669 11.9996 3.7262C12.1265 3.72558 12.2534 3.72612 12.3804 3.72695C12.4172 3.7265 12.454 3.72605 12.4919 3.72559C12.7364 3.72887 12.8736 3.78442 13.0625 3.93794C13.2325 4.11697 13.2645 4.26058 13.2734 4.50044C13.2645 4.74031 13.2325 4.88391 13.0625 5.06294C12.8431 5.23971 12.6725 5.27743 12.3979 5.27383C12.36 5.27408 12.3222 5.27433 12.2832 5.27459C12.1568 5.27521 12.0304 5.2745 11.904 5.2738C11.8132 5.27398 11.7224 5.27424 11.6316 5.27459C11.4362 5.27515 11.2409 5.27512 11.0455 5.27465C10.7364 5.27392 10.4274 5.27456 10.1183 5.2754C9.51777 5.27685 8.91726 5.27692 8.31675 5.27683C7.55289 5.27676 6.78903 5.27725 6.02517 5.2791C5.71811 5.2798 5.41105 5.27979 5.10399 5.27922C4.91268 5.279 4.72137 5.27935 4.53007 5.27986C4.44158 5.27997 4.35309 5.27984 4.2646 5.27945C4.14344 5.27895 4.02231 5.27932 3.90115 5.27989C3.84911 5.27936 3.84911 5.27936 3.79602 5.27881C3.49434 5.28181 3.19048 5.33419 2.96382 5.54341C2.76956 5.88531 2.78342 6.22239 2.78461 6.60652C2.78443 6.66776 2.78425 6.72899 2.78407 6.79209C2.78359 6.96155 2.78369 7.13102 2.78389 7.30049C2.784 7.48346 2.78358 7.66642 2.78323 7.84939C2.78263 8.20765 2.78255 8.56591 2.78266 8.92417C2.78274 9.21541 2.78266 9.50664 2.78246 9.79788C2.78243 9.83934 2.7824 9.88081 2.78238 9.92353C2.78232 10.0078 2.78226 10.092 2.78221 10.1762C2.7817 10.9661 2.7818 11.7559 2.78208 12.5458C2.78233 13.2681 2.7818 13.9904 2.78091 14.7127C2.78 15.4547 2.77961 16.1966 2.77979 16.9386C2.77988 17.355 2.77976 17.7715 2.7791 18.1879C2.77854 18.5425 2.77847 18.897 2.77904 19.2515C2.77932 19.4323 2.77937 19.6131 2.77881 19.7939C2.7782 19.9901 2.77869 20.1863 2.77929 20.3825C2.77877 20.4678 2.77877 20.4678 2.77824 20.5549C2.78052 20.9112 2.79093 21.2636 3.04292 21.5366C3.38482 21.7308 3.7219 21.717 4.10603 21.7158C4.16727 21.716 4.22851 21.7161 4.2916 21.7163C4.46107 21.7168 4.63053 21.7167 4.8 21.7165C4.98297 21.7164 5.16593 21.7168 5.3489 21.7172C5.70716 21.7178 6.06542 21.7179 6.42368 21.7177C6.71492 21.7177 7.00615 21.7177 7.29739 21.7179C7.33885 21.718 7.38032 21.718 7.42304 21.718C7.50728 21.7181 7.59151 21.7181 7.67575 21.7182C8.46559 21.7187 9.25543 21.7186 10.0453 21.7183C10.7676 21.7181 11.4899 21.7186 12.2123 21.7195C12.9542 21.7204 13.6962 21.7208 14.4381 21.7206C14.8546 21.7205 15.271 21.7206 15.6874 21.7213C16.042 21.7219 16.3965 21.7219 16.751 21.7214C16.9318 21.7211 17.1126 21.721 17.2935 21.7216C17.4896 21.7222 17.6858 21.7217 17.882 21.7211C17.9673 21.7216 17.9673 21.7216 18.0544 21.7222C18.4107 21.7199 18.7631 21.7095 19.0361 21.4575C19.19 21.1866 19.2168 20.9167 19.2149 20.6105C19.215 20.5725 19.2152 20.5346 19.2153 20.4954C19.2157 20.3688 19.2153 20.2423 19.2151 20.1157C19.2152 20.0246 19.2154 19.9336 19.2156 19.8426C19.2159 19.6469 19.216 19.4512 19.2159 19.2555C19.2158 18.9461 19.2165 18.6366 19.2173 18.3272C19.2195 17.4474 19.2206 16.5676 19.2209 15.6878C19.2211 15.2016 19.222 14.7154 19.2235 14.2293C19.2245 13.9217 19.2246 13.6141 19.2241 13.3064C19.2239 13.1151 19.2246 12.9238 19.2255 12.7325C19.2257 12.6438 19.2257 12.5551 19.2252 12.4664C19.2247 12.3453 19.2253 12.2243 19.2263 12.1032C19.2258 12.0681 19.2254 12.033 19.225 11.9969C19.2285 11.7573 19.2881 11.6233 19.4375 11.4379C19.6165 11.2679 19.7601 11.2359 20 11.227C20.2398 11.2359 20.3834 11.2679 20.5625 11.4379C20.7441 11.6615 20.777 11.8393 20.7738 12.1194C20.7742 12.1789 20.7742 12.1789 20.7747 12.2396C20.7754 12.3721 20.7748 12.5046 20.7742 12.6372C20.7745 12.7324 20.7748 12.8276 20.7752 12.9228C20.7761 13.1812 20.7757 13.4396 20.7751 13.698C20.7747 13.9687 20.7751 14.2395 20.7754 14.5102C20.7757 14.9652 20.7753 15.4202 20.7744 15.8752C20.7734 16.4003 20.7737 16.9254 20.7747 17.4505C20.7756 17.9019 20.7757 18.3533 20.7752 18.8046C20.7749 19.074 20.7749 19.3433 20.7755 19.6127C20.7761 19.8662 20.7757 20.1198 20.7746 20.3733C20.7743 20.466 20.7744 20.5588 20.7748 20.6515C20.7781 21.4674 20.651 22.0598 20.0791 22.6762C19.5648 23.1629 18.9977 23.2718 18.3111 23.2686C18.2453 23.2688 18.1796 23.2691 18.1138 23.2694C17.9343 23.2701 17.7547 23.2699 17.5751 23.2695C17.3811 23.2693 17.187 23.2699 16.9929 23.2704C16.6131 23.2712 16.2333 23.2712 15.8534 23.271C15.5446 23.2708 15.2358 23.2708 14.927 23.2711C14.861 23.2711 14.861 23.2711 14.7936 23.2712C14.7042 23.2713 14.6148 23.2713 14.5254 23.2714C13.6875 23.2721 12.8497 23.2718 12.0118 23.2713C11.2459 23.2708 10.4801 23.2714 9.7142 23.2725C8.92706 23.2737 8.13992 23.2741 7.35278 23.2738C6.91116 23.2736 6.46954 23.2737 6.02791 23.2746C5.65196 23.2753 5.27602 23.2753 4.90007 23.2745C4.70842 23.2741 4.51678 23.274 4.32512 23.2747C4.14937 23.2753 3.97364 23.2751 3.79789 23.2742C3.70485 23.274 3.6118 23.2746 3.51876 23.2753C2.83292 23.2697 2.32406 23.0433 1.82417 22.5795C1.33749 22.0653 1.22857 21.4982 1.23178 20.8116C1.23159 20.7458 1.23133 20.6801 1.23102 20.6143C1.23034 20.4348 1.23054 20.2552 1.23089 20.0756C1.23111 19.8815 1.23052 19.6875 1.23004 19.4934C1.22924 19.1136 1.2292 18.7337 1.22944 18.3539C1.22963 18.0451 1.22956 17.7363 1.22931 17.4275C1.22928 17.3835 1.22924 17.3395 1.22921 17.2941C1.22913 17.2047 1.22906 17.1153 1.22899 17.0259C1.22835 16.188 1.2286 15.3502 1.22914 14.5123C1.22961 13.7464 1.229 12.9806 1.22788 12.2147C1.22673 11.4276 1.22628 10.6404 1.2266 9.85327C1.22676 9.41164 1.22666 8.97002 1.22583 8.5284C1.22514 8.15245 1.22511 7.77651 1.22593 7.40056C1.22633 7.20891 1.22643 7.01726 1.22571 6.82561C1.22506 6.64986 1.22529 6.47413 1.22619 6.29838C1.22645 6.20534 1.2258 6.11229 1.2251 6.01925C1.2307 5.3334 1.45707 4.82455 1.92085 4.32466C2.52537 3.75253 3.18923 3.72952 3.97498 3.7315Z" fill="#535353"/>
<path d="M16.2784 0.726601C16.3399 0.726072 16.4014 0.725543 16.4648 0.724999C16.5324 0.725363 16.6 0.725747 16.6676 0.726149C16.7392 0.725895 16.8109 0.725561 16.8825 0.725153C17.0766 0.7243 17.2706 0.724629 17.4647 0.725224C17.6681 0.7257 17.8714 0.725259 18.0747 0.724964C18.4161 0.724623 18.7575 0.725072 19.0989 0.725966C19.4933 0.726986 19.8878 0.726656 20.2822 0.725623C20.6212 0.724772 20.9601 0.724653 21.299 0.725143C21.5014 0.725435 21.7037 0.725475 21.906 0.724855C22.0962 0.724313 22.2864 0.724691 22.4766 0.725773C22.5464 0.72602 22.6161 0.72595 22.6858 0.725536C22.7812 0.725022 22.8765 0.725781 22.9718 0.726601C23.0251 0.726672 23.0784 0.726742 23.1334 0.726815C23.3799 0.766109 23.516 0.881452 23.6725 1.07091C23.7602 1.2384 23.7737 1.34065 23.7739 1.5287C23.7747 1.62096 23.7747 1.62096 23.7755 1.71509C23.7752 1.78269 23.7748 1.85029 23.7744 1.91789C23.7746 1.98952 23.775 2.06115 23.7754 2.13278C23.7762 2.32686 23.7759 2.52093 23.7753 2.71502C23.7748 2.91834 23.7753 3.12165 23.7756 3.32497C23.7759 3.66637 23.7755 4.00776 23.7746 4.34917C23.7735 4.74362 23.7739 5.13806 23.7749 5.53251C23.7758 5.87145 23.7759 6.21039 23.7754 6.54933C23.7751 6.75165 23.7751 6.95396 23.7757 7.15627C23.7762 7.3465 23.7758 7.53671 23.7748 7.72693C23.7745 7.79666 23.7746 7.86639 23.775 7.93611C23.7755 8.03145 23.7748 8.12679 23.7739 8.22212C23.7738 8.30207 23.7738 8.30207 23.7737 8.38364C23.7363 8.61845 23.6147 8.76347 23.4454 8.92424C23.2033 9.03665 22.9814 9.03575 22.7189 9.00041C22.4861 8.89234 22.37 8.75636 22.2501 8.53166C22.2227 8.36464 22.2237 8.19968 22.2245 8.03071C22.2241 7.98083 22.2236 7.93095 22.2231 7.87957C22.2217 7.71521 22.2216 7.55088 22.2216 7.38652C22.2209 7.27237 22.2201 7.15822 22.2192 7.04406C22.2172 6.74399 22.2162 6.44392 22.2155 6.14384C22.2146 5.83748 22.2126 5.53113 22.2108 5.22478C22.2072 4.62395 22.2048 4.02312 22.2032 3.42229C22.1806 3.44496 22.158 3.46764 22.1346 3.49101C20.7935 4.83427 19.4521 6.17729 18.1103 7.51999C17.9493 7.68111 17.7883 7.84223 17.6273 8.00336C17.5953 8.03543 17.5632 8.06751 17.5302 8.10056C17.0108 8.62037 16.4916 9.14034 15.9724 9.66037C15.4399 10.1937 14.9072 10.7269 14.3744 11.2599C14.0455 11.589 13.7167 11.9182 13.3881 12.2476C13.1629 12.4733 12.9375 12.6988 12.7121 12.9241C12.5818 13.0543 12.4517 13.1845 12.3218 13.3149C12.2029 13.4342 12.0838 13.5533 11.9646 13.6723C11.9009 13.7359 11.8375 13.7998 11.774 13.8636C11.7363 13.9012 11.6985 13.9388 11.6596 13.9775C11.6271 14.0101 11.5945 14.0426 11.561 14.0762C11.3395 14.2697 11.1412 14.2706 10.8555 14.2651C10.607 14.2384 10.492 14.1202 10.3263 13.9457C10.2162 13.7086 10.2046 13.4762 10.2501 13.2192C10.4082 12.9381 10.6368 12.7259 10.8641 12.5001C10.9077 12.4564 10.9514 12.4127 10.9963 12.3677C11.117 12.2468 11.2379 12.1262 11.359 12.0057C11.4896 11.8755 11.6199 11.745 11.7503 11.6146C11.976 11.3888 12.202 11.1631 12.428 10.9376C12.7549 10.6115 13.0815 10.2851 13.408 9.95874C13.9378 9.42915 14.4678 8.89977 14.9979 8.37053C15.5129 7.85646 16.0277 7.3423 16.5424 6.828C16.5741 6.79629 16.6059 6.76458 16.6385 6.73191C16.7978 6.57283 16.957 6.41375 17.1162 6.25466C18.4366 4.93524 19.7573 3.61615 21.0782 2.29729C21.0522 2.29722 21.0261 2.29715 20.9992 2.29708C20.3642 2.29534 19.7293 2.29256 19.0943 2.28867C18.7872 2.28681 18.4801 2.2853 18.1731 2.28458C17.8767 2.28387 17.5804 2.28226 17.284 2.28002C17.171 2.27933 17.0579 2.27896 16.9448 2.27892C16.7865 2.27881 16.6282 2.27754 16.4698 2.276C16.3997 2.27635 16.3997 2.27635 16.3281 2.27671C16.0593 2.27267 15.8999 2.24449 15.6876 2.06291C15.5175 1.88388 15.4856 1.74028 15.4767 1.50041C15.4856 1.26054 15.5175 1.11694 15.6876 0.93791C15.891 0.779962 16.0215 0.726942 16.2784 0.726601Z" fill="#535353"/>
</svg>
