<svg width="24" height="24" viewBox="0 0 24 24" fill="none" xmlns="http://www.w3.org/2000/svg">
<g clip-path="url(#clip0_193_256)">
<path d="M16.9552 4.80962C17.0101 4.80903 17.0651 4.80843 17.1216 4.80782C17.181 4.80796 17.2403 4.80809 17.3014 4.80824C17.3623 4.80799 17.4231 4.80774 17.4858 4.80749C17.6146 4.80707 17.7433 4.80719 17.8721 4.80765C18.0372 4.80819 18.2022 4.80724 18.3672 4.80588C18.5246 4.80481 18.6821 4.80513 18.8395 4.80531C18.9285 4.80452 18.9285 4.80452 19.0193 4.80371C19.1016 4.80437 19.1016 4.80437 19.1857 4.80504C19.2582 4.80506 19.2582 4.80506 19.3323 4.80507C19.4533 4.82856 19.4533 4.82856 19.53 4.90658C19.6101 5.04384 19.6119 5.13273 19.6126 5.29131C19.6135 5.3757 19.6135 5.3757 19.6144 5.4618C19.6143 5.55415 19.6143 5.55415 19.6142 5.64837C19.6146 5.71398 19.6151 5.77958 19.6156 5.84519C19.6169 6.02318 19.6173 6.20117 19.6176 6.37916C19.618 6.56522 19.6193 6.75127 19.6204 6.93733C19.6225 7.2896 19.6238 7.64187 19.6249 7.99414C19.6262 8.39522 19.6282 8.79628 19.6303 9.19735C19.6347 10.0223 19.6381 10.8473 19.6408 11.6723C19.6628 11.6529 19.6848 11.6335 19.7074 11.6135C19.7511 11.5754 19.7511 11.5754 19.7957 11.5365C19.8389 11.4987 19.8389 11.4987 19.8829 11.4601C19.9981 11.3676 20.116 11.3132 20.2531 11.2592C20.299 11.2406 20.345 11.2219 20.3924 11.2026C20.9162 11.0294 21.487 11.0746 21.981 11.318C22.4928 11.6231 22.8483 12.0438 22.9974 12.6279C23.0839 13.2063 23.0142 13.7437 22.6964 14.2416C22.3933 14.6471 22.0083 15.0086 21.6241 15.3369C21.4095 15.5241 21.2092 15.7238 21.0089 15.9262C20.9517 15.9837 20.9517 15.9837 20.8934 16.0423C20.7726 16.1636 20.652 16.2851 20.5314 16.4067C20.3723 16.567 20.2131 16.7271 20.0538 16.8872C20.018 16.9234 19.9821 16.9596 19.9452 16.997C19.7527 17.1903 19.5557 17.3742 19.349 17.5522C19.2388 17.6492 19.1376 17.753 19.0369 17.8596C18.4359 18.4852 17.8745 19.0637 16.9623 19.1373C16.7996 19.1405 16.6374 19.1395 16.4747 19.1368C16.3805 19.1361 16.2863 19.1355 16.1922 19.1348C16.092 19.1341 15.9918 19.133 15.8916 19.1318C15.6817 19.1294 15.4718 19.1286 15.2619 19.1282C15.1897 19.128 15.1175 19.1278 15.0453 19.1276C14.9911 19.1275 14.9911 19.1275 14.9358 19.1273C14.448 19.1259 13.9601 19.1232 13.4723 19.1176C13.142 19.1138 12.8118 19.112 12.4815 19.1125C12.3073 19.1127 12.1331 19.1118 11.9588 19.1085C11.1442 19.0547 11.1442 19.0547 10.4365 19.3778C10.3334 19.4906 10.2508 19.6038 10.172 19.7348C10.3087 19.9027 10.4485 20.0602 10.606 20.2089C10.6333 20.235 10.6606 20.2611 10.6887 20.2879C10.7439 20.3404 10.7997 20.3922 10.856 20.4434C10.9877 20.5692 11.0577 20.6596 11.1247 20.832C11.076 21.3722 10.1273 22.0492 9.74709 22.433C9.59356 22.588 9.44043 22.7433 9.28817 22.8995C9.13999 23.0515 8.99092 23.2026 8.84116 23.3531C8.78449 23.4103 8.72815 23.4679 8.67214 23.5258C8.59386 23.6066 8.51447 23.6861 8.43472 23.7654C8.41203 23.7894 8.38935 23.8133 8.36598 23.838C8.23653 23.9641 8.15956 24 7.97892 24.0225C7.75226 24.0156 7.63032 23.9019 7.47825 23.7446C7.45018 23.7171 7.4221 23.6896 7.39317 23.6612C7.2995 23.5689 7.20722 23.4753 7.11488 23.3817C7.04794 23.3152 6.98092 23.2488 6.91382 23.1824C6.73196 23.0021 6.5513 22.8205 6.37087 22.6388C6.18195 22.4487 5.9921 22.2596 5.80239 22.0704C5.48398 21.7524 5.16634 21.4337 4.84916 21.1145C4.48233 20.7454 4.11426 20.3776 3.74551 20.0104C3.3909 19.6573 3.03723 19.3032 2.68396 18.9487C2.53354 18.7979 2.38281 18.6473 2.2318 18.497C2.05406 18.32 1.87715 18.1423 1.70085 17.9639C1.63597 17.8985 1.57082 17.8334 1.50537 17.7686C1.41614 17.6801 1.32798 17.5908 1.24002 17.5011C1.20073 17.4628 1.20073 17.4628 1.16066 17.4238C1.03052 17.2888 0.985819 17.2156 0.965332 17.0267C0.985496 16.8676 1.00228 16.8162 1.11217 16.7042C1.14235 16.6727 1.17253 16.6412 1.20362 16.6088C1.23959 16.573 1.27557 16.5373 1.31263 16.5004C1.37547 16.436 1.37547 16.436 1.43958 16.3703C1.59018 16.2162 1.74259 16.0639 1.89509 15.9118C1.95116 15.8557 2.00721 15.7996 2.06327 15.7434C2.18 15.6266 2.29682 15.5099 2.4137 15.3933C2.56366 15.2436 2.7134 15.0937 2.86308 14.9437C2.97845 14.8282 3.09392 14.7128 3.20943 14.5974C3.26473 14.5421 3.31999 14.4868 3.37522 14.4315C3.45207 14.3545 3.52905 14.2777 3.60609 14.2009C3.64986 14.1572 3.69363 14.1135 3.73872 14.0684C3.86497 13.9493 3.91231 13.9264 4.08412 13.8989C4.34276 13.9322 4.46264 14.0697 4.64076 14.2504C4.70323 14.313 4.76573 14.3755 4.82826 14.4379C4.82833 14.406 4.8284 14.374 4.82847 14.3411C4.8302 13.5637 4.83297 12.7864 4.83688 12.0091C4.83875 11.6332 4.84026 11.2572 4.84096 10.8813C4.84157 10.5537 4.84283 10.2261 4.84488 9.89846C4.84594 9.72496 4.84668 9.55147 4.84663 9.37797C4.84659 9.18434 4.848 8.99076 4.84954 8.79714C4.84919 8.71071 4.84919 8.71071 4.84883 8.62253C4.84948 8.56982 4.85013 8.5171 4.85081 8.46279C4.85107 8.39409 4.85107 8.39409 4.85133 8.324C4.88196 8.169 4.94022 8.11291 5.06263 8.01606C5.18535 7.99225 5.18535 7.99225 5.32621 7.9918C5.37909 7.99121 5.43196 7.99062 5.48644 7.99001C5.57177 7.99058 5.57177 7.99058 5.65882 7.99116C5.71742 7.99098 5.77601 7.9908 5.83639 7.99062C5.96029 7.99049 6.08413 7.99074 6.20803 7.99162C6.36661 7.99268 6.52513 7.99207 6.68372 7.99095C6.83525 7.99011 6.98678 7.99069 7.13832 7.99116C7.19521 7.99078 7.25209 7.9904 7.31071 7.99001C7.36358 7.9906 7.41645 7.99119 7.47093 7.9918C7.54065 7.99202 7.54065 7.99202 7.61179 7.99225C7.73451 8.01606 7.73451 8.01606 7.84313 8.0866C7.95483 8.25223 7.94881 8.40612 7.9476 8.59921C7.94808 8.63901 7.94857 8.67881 7.94907 8.71982C7.95045 8.85121 7.95052 8.98257 7.95057 9.11396C7.95128 9.20513 7.95206 9.29629 7.95292 9.38745C7.95497 9.62727 7.95591 9.86708 7.95661 10.1069C7.95753 10.3517 7.9595 10.5964 7.96138 10.8412C7.96491 11.3214 7.96726 11.8015 7.96888 12.2817C8.01124 12.2619 8.0536 12.2422 8.09724 12.2218C8.15253 12.1961 8.20782 12.1704 8.26478 12.144C8.31971 12.1184 8.37463 12.0929 8.43122 12.0665C8.57826 12.0004 8.57826 12.0004 8.71888 11.9536C8.71905 11.9088 8.71905 11.9088 8.71922 11.8632C8.72199 11.1379 8.72553 10.4126 8.72993 9.68728C8.73204 9.33653 8.73389 8.98579 8.73512 8.63504C8.7362 8.32937 8.73776 8.02371 8.73992 7.71805C8.74104 7.55616 8.74192 7.39427 8.74221 7.23238C8.74255 7.05178 8.74397 6.87119 8.74549 6.69059C8.74542 6.63675 8.74536 6.5829 8.74529 6.52743C8.74587 6.47833 8.74646 6.42923 8.74707 6.37864C8.74728 6.3359 8.7475 6.29317 8.74772 6.24914C8.76934 6.11962 8.80171 6.07765 8.90638 6.00044C9.02734 5.98258 9.02734 5.98258 9.17399 5.98224C9.25635 5.98158 9.25635 5.98158 9.34037 5.9809C9.3997 5.98118 9.45903 5.98147 9.52015 5.98176C9.58101 5.98162 9.64186 5.98149 9.70456 5.98135C9.83333 5.98114 9.9621 5.98145 10.0909 5.9821C10.2559 5.9829 10.4209 5.98244 10.586 5.9816C10.7434 5.98097 10.9008 5.98141 11.0582 5.98176C11.1472 5.98133 11.1472 5.98133 11.238 5.9809C11.2929 5.98134 11.3478 5.98178 11.4044 5.98224C11.477 5.98241 11.477 5.98241 11.5511 5.98258C11.6947 6.00379 11.7267 6.02637 11.8126 6.14106C11.8303 6.25693 11.8303 6.25693 11.8304 6.39758C11.8308 6.45088 11.8311 6.50419 11.8315 6.55911C11.8313 6.61763 11.831 6.67615 11.8307 6.73644C11.8311 6.83098 11.8314 6.92552 11.8318 7.02006C11.8321 7.12171 11.832 7.22336 11.8319 7.32501C11.8316 7.53672 11.8323 7.74842 11.8332 7.96013C11.8351 8.44769 11.8357 8.93524 11.8362 9.4228C11.8367 9.86974 11.8375 10.3167 11.8394 10.7636C11.8402 10.9742 11.8404 11.1848 11.8401 11.3954C11.84 11.4948 11.8403 11.5941 11.8407 11.6935C11.8412 11.8148 11.8412 11.9362 11.8406 12.0575C11.841 12.1107 11.8414 12.1638 11.8418 12.2186C11.8418 12.265 11.8418 12.3114 11.8419 12.3592C11.8477 12.3955 11.8535 12.4318 11.8595 12.4692C12.03 12.5828 12.1341 12.5811 12.337 12.5922C12.3967 12.5957 12.4563 12.5992 12.5178 12.6029C12.5864 12.6063 12.5864 12.6063 12.6564 12.6098C12.656 12.5502 12.6556 12.4906 12.6551 12.4292C12.6513 11.8685 12.6485 11.3077 12.6467 10.7469C12.6457 10.4586 12.6444 10.1703 12.6422 9.88194C12.6402 9.60384 12.6391 9.32575 12.6386 9.04765C12.6382 8.9414 12.6376 8.83514 12.6366 8.7289C12.6352 8.5804 12.635 8.43194 12.6351 8.28343C12.6344 8.23923 12.6337 8.19502 12.6331 8.14948C12.6349 7.85519 12.6349 7.85519 12.735 7.731C12.866 7.67917 12.9664 7.66976 13.1075 7.669C13.1603 7.6684 13.2132 7.66781 13.2677 7.66719C13.3246 7.66733 13.3815 7.66747 13.4401 7.66761C13.4987 7.66737 13.5573 7.66712 13.6176 7.66687C13.7415 7.66657 13.8654 7.66656 13.9893 7.66703C14.1479 7.66757 14.3064 7.66662 14.465 7.66525C14.6165 7.66418 14.768 7.66451 14.9196 7.66468C14.9765 7.66416 15.0333 7.66363 15.092 7.66309C15.1713 7.66375 15.1713 7.66375 15.2522 7.66442C15.2987 7.66443 15.3451 7.66443 15.393 7.66444C15.5158 7.68794 15.5158 7.68794 15.6247 7.75439C15.7461 7.9414 15.7279 8.11724 15.7245 8.33563C15.7246 8.38229 15.7246 8.42895 15.7246 8.47702C15.7245 8.63125 15.723 8.78543 15.7216 8.93964C15.7212 9.04657 15.721 9.1535 15.7208 9.26043C15.72 9.54187 15.7182 9.82329 15.7161 10.1047C15.7142 10.3919 15.7134 10.6791 15.7124 10.9663C15.7104 11.5297 15.7072 12.0932 15.7033 12.6567C15.7333 12.6641 15.7633 12.6716 15.7943 12.6792C16.076 12.7552 16.2728 12.8488 16.5001 13.0317C16.5003 12.9696 16.5003 12.9696 16.5005 12.9062C16.5032 11.8992 16.5068 10.8923 16.5112 9.88531C16.5133 9.39837 16.5151 8.91142 16.5164 8.42447C16.5174 8.00014 16.519 7.57582 16.5212 7.1515C16.5223 6.92673 16.5232 6.70197 16.5235 6.4772C16.5237 6.26578 16.5247 6.05437 16.5261 5.84295C16.5265 5.76523 16.5267 5.68751 16.5266 5.60979C16.5265 5.5039 16.5273 5.39806 16.5283 5.29218C16.5285 5.23285 16.5288 5.17353 16.529 5.1124C16.547 4.96919 16.547 4.96919 16.6109 4.87982C16.7254 4.80329 16.8185 4.81034 16.9552 4.80962ZM17.2501 5.53169C17.2501 8.33153 17.2501 11.1314 17.2501 14.0161C17.3584 13.9232 17.4667 13.8304 17.5783 13.7348C17.683 13.6702 17.7885 13.6067 17.8945 13.5442C18.3729 13.2255 18.7925 12.8296 18.9315 12.2536C19.0882 11.2709 19.0221 10.249 18.9853 9.25881C18.9704 8.85179 18.9634 8.44474 18.9568 8.03751C18.9432 7.20186 18.9192 6.36697 18.8908 5.53169C18.3494 5.53169 17.8079 5.53169 17.2501 5.53169ZM9.46888 6.70356C9.46888 8.38965 9.46888 10.0757 9.46888 11.8129C9.73185 11.8284 9.99482 11.8439 10.2658 11.8598C10.4924 11.9054 10.4924 11.9054 10.6583 11.9565C10.8805 12.0259 10.8805 12.0259 11.1095 12.0473C11.1095 10.2839 11.1095 8.52044 11.1095 6.70356C10.5681 6.70356 10.0267 6.70356 9.46888 6.70356ZM13.3595 8.39106C13.3595 9.78325 13.3595 11.1754 13.3595 12.6098C13.9009 12.6098 14.4423 12.6098 15.0001 12.6098C15.0001 11.2176 15.0001 9.82544 15.0001 8.39106C14.4587 8.39106 13.9173 8.39106 13.3595 8.39106ZM5.57826 8.71919C5.57826 10.56 5.57826 12.4007 5.57826 14.2973C5.78203 14.1227 5.982 13.9488 6.17884 13.767C6.2276 13.7222 6.27636 13.6773 6.32515 13.6325C6.34919 13.6103 6.37323 13.5882 6.398 13.5655C6.50518 13.4671 6.61291 13.3694 6.72084 13.2719C6.756 13.2401 6.79117 13.2084 6.8274 13.1756C6.93763 13.0786 6.93763 13.0786 7.08315 12.9806C7.16931 12.9083 7.21259 12.8657 7.2444 12.757C7.2535 12.65 7.25369 12.5463 7.25081 12.4389C7.25085 12.3986 7.25089 12.3584 7.25094 12.3169C7.25074 12.1842 7.24856 12.0516 7.24635 11.919C7.24582 11.8268 7.24542 11.7347 7.24514 11.6425C7.24407 11.4003 7.24131 11.1581 7.2382 10.9159C7.23532 10.6686 7.23403 10.4213 7.23262 10.1741C7.2296 9.68907 7.22466 9.20414 7.21888 8.71919C6.67748 8.71919 6.13607 8.71919 5.57826 8.71919ZM20.0744 12.2376C20.0485 12.2618 20.0227 12.2861 19.9961 12.3111C19.6225 12.6651 19.2618 13.0324 18.8995 13.3979C18.7558 13.5429 18.6119 13.6877 18.468 13.8324C18.4359 13.8648 18.4039 13.8973 18.3709 13.9307C18.1877 14.1148 17.9992 14.2893 17.8025 14.4589C17.6229 14.6152 17.4566 14.7853 17.2882 14.9536C17.2516 14.9896 17.215 15.0256 17.1773 15.0627C17.0203 15.2193 16.8715 15.3715 16.746 15.5549C16.6452 15.6973 16.5608 15.7814 16.4181 15.8793C16.3816 15.9052 16.3451 15.9311 16.3075 15.9577C15.949 16.1534 15.6181 16.1929 15.2139 16.1905C15.162 16.1908 15.11 16.191 15.0565 16.1913C14.886 16.1919 14.7155 16.1915 14.5449 16.191C14.4261 16.1911 14.3072 16.1912 14.1883 16.1914C13.9399 16.1916 13.6914 16.1913 13.4429 16.1906C13.1558 16.1899 12.8686 16.1901 12.5814 16.1909C12.3046 16.1916 12.0277 16.1915 11.7509 16.1911C11.6333 16.191 11.5156 16.1912 11.398 16.1915C11.2341 16.1918 11.0701 16.1913 10.9062 16.1905C10.8574 16.1908 10.8086 16.1911 10.7583 16.1914C10.7138 16.191 10.6692 16.1906 10.6233 16.1902C10.5652 16.1901 10.5652 16.1901 10.506 16.19C10.3818 16.1679 10.3403 16.1321 10.2658 16.0317C10.2469 15.8807 10.2363 15.791 10.3273 15.6655C10.4668 15.5673 10.5901 15.5571 10.7551 15.5571C10.8189 15.5569 10.8189 15.5569 10.8841 15.5567C10.9307 15.5568 10.9773 15.5569 11.0253 15.557C11.0991 15.5569 11.0991 15.5569 11.1743 15.5568C11.2813 15.5566 11.3883 15.5565 11.4952 15.5565C11.7228 15.5563 11.9503 15.5553 12.1779 15.5543C12.6017 15.5526 13.0255 15.5511 13.4493 15.5512C13.744 15.5512 14.0387 15.5501 14.3333 15.5483C14.4455 15.5478 14.5577 15.5477 14.6698 15.5481C14.8272 15.5485 14.9844 15.5475 15.1417 15.5462C15.1877 15.5467 15.2338 15.5472 15.2812 15.5477C15.6416 15.5423 15.915 15.4378 16.1777 15.1867C16.3829 14.8888 16.5045 14.6216 16.4533 14.2504C16.3635 13.8886 16.1971 13.6635 15.8908 13.4536C15.6184 13.3109 15.3246 13.3073 15.0223 13.31C14.9515 13.3104 14.8806 13.3109 14.8098 13.3113C14.7726 13.3116 14.7354 13.3119 14.697 13.3122C14.4978 13.3135 14.2986 13.313 14.0994 13.3128C13.8469 13.3125 13.5944 13.3127 13.3419 13.3153C13.137 13.3174 12.9322 13.3174 12.7273 13.3161C12.6499 13.3159 12.5724 13.3165 12.495 13.3179C11.9882 13.3265 11.6607 13.2571 11.2523 12.9482C10.6776 12.5297 9.96741 12.446 9.27809 12.5346C8.30476 12.7401 7.57696 13.4119 6.88128 14.0768C6.73793 14.2127 6.59054 14.344 6.44307 14.4755C6.35468 14.5548 6.26701 14.6348 6.17976 14.7153C6.15431 14.7388 6.12885 14.7623 6.10263 14.7865C6.05308 14.8323 6.00361 14.8782 5.95422 14.9241C5.84802 15.0222 5.7458 15.1075 5.62513 15.1879C5.68974 15.333 5.76384 15.432 5.87608 15.5439C5.92479 15.5928 5.92479 15.5928 5.97448 15.6427C6.01008 15.678 6.04569 15.7132 6.08237 15.7496C6.13863 15.8058 6.13863 15.8058 6.19602 15.8633C6.32008 15.9873 6.44447 16.1109 6.56886 16.2346C6.65492 16.3205 6.74097 16.4064 6.82699 16.4923C7.03035 16.6953 7.23391 16.8982 7.43757 17.1009C7.66947 17.3317 7.9011 17.5628 8.1327 17.794C8.60905 18.2693 9.08573 18.7444 9.56263 19.2192C9.78813 19.1167 9.93454 18.9444 10.1012 18.7666C10.125 18.7419 10.1488 18.7172 10.1733 18.6918C10.1944 18.6694 10.2156 18.6469 10.2374 18.6237C10.414 18.4811 10.5961 18.4575 10.8173 18.4574C10.8713 18.4571 10.9253 18.4569 10.981 18.4566C11.0398 18.4568 11.0986 18.457 11.1592 18.4572C11.2222 18.4571 11.2851 18.4569 11.348 18.4567C11.4834 18.4563 11.6187 18.4562 11.754 18.4563C11.9684 18.4565 12.1828 18.4558 12.3972 18.455C13.0068 18.4528 13.6164 18.4516 14.226 18.4513C14.5628 18.4512 14.8996 18.4503 15.2365 18.4488C15.4492 18.4478 15.6618 18.4477 15.8745 18.4482C16.0075 18.4483 16.1405 18.4477 16.2734 18.4468C16.3635 18.4464 16.4536 18.447 16.5437 18.4476C17.2321 18.4411 17.6654 18.1989 18.1408 17.7221C18.1765 17.685 18.2123 17.6478 18.2492 17.6095C18.3457 17.514 18.4423 17.426 18.5453 17.3379C18.7573 17.1532 18.9553 16.9566 19.153 16.7568C19.19 16.7195 19.2271 16.6823 19.2653 16.6439C19.3828 16.5259 19.5001 16.4077 19.6173 16.2895C19.772 16.1336 19.9268 15.9779 20.0817 15.8222C20.1165 15.787 20.1513 15.7518 20.1872 15.7155C20.3759 15.5259 20.5691 15.3455 20.7717 15.1709C20.9045 15.0548 21.0306 14.9325 21.1561 14.8087C21.1822 14.783 21.2083 14.7573 21.2352 14.7309C21.2896 14.6771 21.3439 14.6232 21.3982 14.5693C21.4533 14.5148 21.5085 14.4605 21.564 14.4064C21.6453 14.3271 21.726 14.2472 21.8065 14.1671C21.8433 14.1316 21.8433 14.1316 21.8808 14.0953C22.1467 13.8278 22.3169 13.5036 22.3273 13.1225C22.3225 12.7593 22.2221 12.462 21.9728 12.1938C21.6902 11.9361 21.3535 11.7904 20.9683 11.801C20.6022 11.8411 20.3384 11.985 20.0744 12.2376ZM3.9872 14.8515C3.94734 14.8915 3.90747 14.9314 3.86639 14.9726C3.84444 14.9945 3.82249 15.0165 3.79987 15.0391C3.72697 15.112 3.65423 15.1851 3.58149 15.2582C3.53112 15.3087 3.48075 15.3591 3.43036 15.4096C3.29748 15.5426 3.16474 15.6758 3.03203 15.8091C2.89669 15.9449 2.76123 16.0806 2.62577 16.2163C2.35981 16.4827 2.09399 16.7493 1.82826 17.0161C2.09032 17.3356 2.38267 17.6236 2.67501 17.915C2.73232 17.9723 2.78963 18.0296 2.84693 18.0869C3.00176 18.2418 3.15674 18.3965 3.31174 18.5512C3.47398 18.7131 3.63608 18.8752 3.79821 19.0373C4.10489 19.3438 4.4117 19.6502 4.71855 19.9566C5.06802 20.3056 5.41736 20.6546 5.76669 21.0037C6.48498 21.7215 7.20344 22.4392 7.92201 23.1567C8.08751 23.0787 8.19479 22.989 8.32443 22.8587C8.36665 22.8164 8.40886 22.7742 8.45236 22.7307C8.49799 22.6846 8.54362 22.6385 8.58924 22.5924C8.63625 22.5452 8.68327 22.498 8.73032 22.4509C8.85382 22.327 8.97705 22.2029 9.10021 22.0787C9.22604 21.9519 9.35214 21.8254 9.47822 21.6988C9.72537 21.4506 9.97222 21.2022 10.2189 20.9536C10.1449 20.7728 10.0229 20.6508 9.88639 20.5157C9.86184 20.4911 9.8373 20.4664 9.812 20.441C9.72971 20.3584 9.64708 20.2762 9.56445 20.194C9.50538 20.1349 9.44633 20.0757 9.3873 20.0166C9.22695 19.856 9.0663 19.6957 8.9056 19.5355C8.73768 19.368 8.57001 19.2002 8.4023 19.0325C8.12075 18.751 7.83901 18.4697 7.55716 18.1884C7.23082 17.8628 6.90473 17.537 6.57878 17.211C6.26564 16.8978 5.95237 16.5848 5.63902 16.2719C5.50544 16.1384 5.37191 16.005 5.2384 15.8715C5.08142 15.7146 4.92432 15.5578 4.76713 15.401C4.70928 15.3433 4.65148 15.2856 4.59371 15.2278C4.51522 15.1493 4.43659 15.0709 4.35792 14.9926C4.33478 14.9694 4.31163 14.9461 4.28779 14.9222C4.14641 14.7501 4.14641 14.7501 3.9872 14.8515Z" fill="#535353"/>
<path d="M17.0613 -0.0185039C17.1324 -0.0193958 17.1324 -0.0193958 17.2049 -0.0203056C17.2561 -0.020168 17.3072 -0.0200304 17.3599 -0.0198886C17.4124 -0.0201344 17.4649 -0.0203801 17.519 -0.0206332C17.6302 -0.0209345 17.7413 -0.0208711 17.8524 -0.0204723C18.0228 -0.0200733 18.1931 -0.0214214 18.3635 -0.0229099C18.4713 -0.0229854 18.5792 -0.0229584 18.687 -0.0228183C18.7637 -0.0236082 18.7637 -0.0236082 18.8419 -0.0244141C18.8893 -0.0239743 18.9367 -0.0235346 18.9856 -0.0230815C19.0482 -0.0230699 19.0482 -0.0230699 19.112 -0.0230579C19.2188 0.000436068 19.2187 0.000436068 19.3025 0.0813336C19.3678 0.203668 19.3774 0.278998 19.3783 0.417093C19.3792 0.485141 19.3792 0.485141 19.3801 0.554565C19.3799 0.627593 19.3799 0.627593 19.3797 0.702096C19.3799 0.752368 19.3802 0.802639 19.3804 0.854434C19.3807 0.96066 19.3807 1.06689 19.3803 1.17311C19.3799 1.33578 19.3812 1.49836 19.3827 1.66102C19.3828 1.76423 19.3828 1.86744 19.3826 1.97065C19.3832 2.01934 19.3837 2.06802 19.3842 2.11818C19.381 2.45322 19.381 2.45322 19.2744 2.60905C19.1212 2.7036 19.0197 2.70059 18.8438 2.67231C18.6728 2.50386 18.6324 2.38551 18.6277 2.14845C18.6262 2.09422 18.6247 2.03998 18.6231 1.98411C18.6224 1.92794 18.6218 1.87178 18.6211 1.81391C18.619 1.72831 18.619 1.72831 18.6169 1.64097C18.6136 1.50037 18.6111 1.35981 18.6094 1.21919C18.568 1.2549 18.5266 1.29061 18.4839 1.3274C18.139 1.6244 17.7912 1.91696 17.4375 2.20356C17.1353 2.4491 16.8359 2.69741 16.5392 2.94951C16.3378 3.12041 16.1336 3.28777 15.9287 3.45454C15.782 3.57519 15.637 3.69774 15.4922 3.82075C15.2641 4.01448 15.0342 4.20555 14.8015 4.39369C14.7077 4.47092 14.6159 4.54899 14.5247 4.62916C14.4999 4.65067 14.4751 4.67217 14.4495 4.69433C14.3799 4.75481 14.3108 4.81584 14.2418 4.8769C14.0868 4.9849 14.0166 5.00603 13.8281 5.01606C13.6671 4.98081 13.514 4.92623 13.3588 4.87104C13.3126 4.85518 13.2664 4.83931 13.2188 4.82296C13.0672 4.77075 12.9159 4.71763 12.7646 4.6645C12.6599 4.62822 12.5551 4.59199 12.4502 4.55583C12.181 4.46274 11.912 4.36889 11.6432 4.27476C11.3914 4.18665 11.1395 4.09894 10.8876 4.01118C10.6194 3.91769 10.3511 3.8241 10.0831 3.72984C10.0429 3.71571 10.0026 3.70158 9.96117 3.68702C9.88657 3.66083 9.812 3.63456 9.73745 3.60822C9.6481 3.57687 9.55844 3.54641 9.46875 3.51606C9.43727 3.50488 9.40579 3.49371 9.37336 3.48219C9.34296 3.4779 9.31257 3.47361 9.28125 3.46919C9.1658 3.55784 9.06772 3.64557 8.96484 3.74751C8.91721 3.79337 8.91721 3.79337 8.86862 3.84016C8.50797 4.18967 8.15417 4.54668 7.80125 4.90399C7.5838 5.12368 7.36445 5.33698 7.12926 5.53787C6.90927 5.73443 6.70516 5.94866 6.49805 6.15864C6.40602 6.25191 6.31384 6.34503 6.22156 6.43806C6.16107 6.49936 6.16107 6.49936 6.09936 6.56191C5.9699 6.68539 5.92888 6.70147 5.74805 6.71821C5.57812 6.70356 5.57812 6.70356 5.46387 6.62739C5.39062 6.51606 5.39062 6.51606 5.3584 6.38715C5.40822 6.15166 5.55226 6.02745 5.71875 5.85981C5.75948 5.81788 5.8002 5.77594 5.84216 5.73274C6.02224 5.54965 6.20151 5.3714 6.39716 5.20521C6.70249 4.94035 6.98155 4.647 7.26562 4.35981C7.92609 3.69212 7.92609 3.69212 8.21471 3.44717C8.36503 3.31594 8.50308 3.17227 8.64258 3.02973C8.69948 2.97164 8.75648 2.91365 8.8136 2.85578C8.83821 2.83062 8.86283 2.80546 8.88819 2.77954C8.96956 2.70391 9.02013 2.67212 9.13242 2.67293C9.41016 2.70231 9.65811 2.77064 9.92102 2.86311C9.9639 2.8778 10.0068 2.8925 10.051 2.90764C10.1431 2.93929 10.2352 2.97116 10.3272 3.00321C10.4725 3.05378 10.6178 3.10379 10.7633 3.15368C11.2622 3.32525 11.76 3.50008 12.2571 3.67701C12.3498 3.70988 12.4426 3.74274 12.5353 3.77559C12.7111 3.83785 12.8866 3.9009 13.0619 3.96442C13.1416 3.99279 13.2214 4.02113 13.3011 4.04945C13.355 4.06931 13.355 4.06931 13.4099 4.08958C13.5972 4.1553 13.732 4.19551 13.9219 4.12544C14.0234 4.05 14.1154 3.97522 14.209 3.89106C14.2633 3.84366 14.3176 3.7963 14.3719 3.74897C14.3989 3.72535 14.4258 3.70172 14.4535 3.67738C14.5633 3.58198 14.676 3.49038 14.7891 3.39887C14.9795 3.24389 15.1675 3.0863 15.3545 2.92719C15.5678 2.74579 15.7841 2.5692 16.0036 2.39527C16.1733 2.2583 16.3392 2.11693 16.5053 1.97559C16.707 1.80417 16.9115 1.63637 17.1169 1.46931C17.2971 1.32104 17.475 1.17001 17.6525 1.01841C17.781 0.90894 17.9113 0.804106 18.0469 0.703561C17.9926 0.702536 17.9926 0.702536 17.9372 0.70149C17.7736 0.698003 17.6099 0.69347 17.4463 0.688913C17.3893 0.687855 17.3324 0.686798 17.2737 0.685708C17.1919 0.683216 17.1919 0.683216 17.1085 0.680673C17.0581 0.679446 17.0078 0.678218 16.956 0.676954C16.8281 0.656686 16.8281 0.656686 16.7415 0.590551C16.674 0.497484 16.6686 0.442722 16.6699 0.328561C16.6696 0.296657 16.6692 0.264752 16.6688 0.231881C16.7137 0.0134144 16.8595 -0.0172793 17.0613 -0.0185039Z" fill="#535353"/>
</g>
<defs>
<clipPath id="clip0_193_256">
<rect width="24" height="24" fill="white"/>
</clipPath>
</defs>
</svg>
