<svg width="25" height="24" viewBox="0 0 25 24" fill="none" xmlns="http://www.w3.org/2000/svg">
<g clip-path="url(#clip0_193_234)">
<path d="M10.5605 -0.0143779C10.6259 -0.0142497 10.6259 -0.0142497 10.6927 -0.014119C11.3209 -0.0120439 11.931 0.00636235 12.5469 0.140896C12.606 0.152962 12.606 0.152962 12.6663 0.165271C14.0212 0.444159 15.3078 0.979077 16.4375 1.78152C16.4683 1.80299 16.4991 1.82447 16.5309 1.84659C18.6125 3.30553 20.0858 5.56734 20.5724 8.06405C20.6764 8.6791 20.7224 9.28824 20.7207 9.9114C20.7207 9.96592 20.7207 9.96592 20.7206 10.0215C20.713 12.4134 19.8117 14.7918 18.1719 16.5471C18.2345 16.6867 18.3028 16.7834 18.4121 16.8899C18.4374 16.9149 18.4626 16.9398 18.4886 16.9655C18.5466 17.0192 18.6051 17.0724 18.6654 17.1235C18.9497 17.3653 19.2117 17.6284 19.4744 17.893C19.5579 17.9771 19.6416 18.0611 19.7252 18.145C19.933 18.3533 20.1404 18.5619 20.3479 18.7705C20.5237 18.9473 20.6997 19.124 20.8757 19.3005C20.9576 19.3826 21.0392 19.4649 21.1209 19.5472C21.3487 19.776 21.5777 19.9997 21.8234 20.2095C22.0578 20.4181 22.2767 20.6443 22.4986 20.8661C22.5536 20.9208 22.6085 20.9756 22.6635 21.0304C22.7779 21.1445 22.8922 21.2588 23.0064 21.373C23.1528 21.5194 23.2995 21.6654 23.4462 21.8114C23.5594 21.9241 23.6725 22.037 23.7854 22.15C23.8394 22.2039 23.8935 22.2578 23.9477 22.3116C24.0232 22.3867 24.0984 22.462 24.1735 22.5374C24.2163 22.5801 24.2591 22.6228 24.3032 22.6669C24.5037 22.89 24.5211 23.0619 24.5145 23.3554C24.4918 23.5578 24.4403 23.6522 24.3125 23.8128C24.0799 23.9979 23.8955 24.0217 23.602 24.0252C23.2476 23.959 23.0147 23.7055 22.7731 23.4574C22.7391 23.423 22.7051 23.3887 22.67 23.3533C22.5619 23.2441 22.4543 23.1344 22.3467 23.0247C22.2392 22.9155 22.1316 22.8065 22.0238 22.6975C21.957 22.63 21.8904 22.5623 21.8239 22.4944C21.678 22.3463 21.5309 22.2031 21.3727 22.0681C21.1249 21.8544 20.8966 21.6209 20.6662 21.3888C20.5827 21.3047 20.4991 21.2207 20.4154 21.1368C20.2077 20.9285 20.0002 20.7199 19.7928 20.5113C19.6169 20.3345 19.441 20.1578 19.2649 19.9813C19.183 19.8992 19.1014 19.8169 19.0197 19.7346C18.7865 19.5003 18.5521 19.2705 18.3004 19.0557C18.1659 18.9387 18.0409 18.8126 17.9155 18.686C17.889 18.6594 17.8625 18.6328 17.8352 18.6054C17.752 18.522 17.6689 18.4384 17.5859 18.3548C17.5289 18.2975 17.4719 18.2403 17.4149 18.1831C17.2765 18.0442 17.1382 17.9051 17 17.7659C16.8073 17.8392 16.6579 17.9291 16.4902 18.0501C15.3456 18.857 14.097 19.3785 12.7344 19.6878C12.6909 19.6978 12.6474 19.7079 12.6026 19.7183C11.3569 19.9942 9.90525 20.0034 8.65624 19.7346C8.61799 19.7271 8.57974 19.7196 8.54033 19.7118C6.04118 19.2153 3.74931 17.7445 2.28124 15.6565C2.26252 15.6301 2.24381 15.6036 2.22452 15.5764C1.19136 14.1073 0.507196 12.2755 0.488821 10.4668C0.488362 10.429 0.487903 10.3913 0.48743 10.3524C0.460418 7.55412 1.32386 5.05608 3.28979 3.02462C3.34409 2.96949 3.39853 2.91449 3.45312 2.85965C3.47919 2.83338 3.50526 2.80712 3.53213 2.78006C4.18499 2.13044 4.93423 1.62217 5.74058 1.18176C5.80506 1.14645 5.8693 1.11069 5.93316 1.07428C6.81633 0.570712 7.88903 0.248103 8.89062 0.0940205C8.96353 0.0818581 8.96353 0.0818581 9.03792 0.0694501C9.54628 -0.00814596 10.0472 -0.0164624 10.5605 -0.0143779ZM4.17089 4.40066C4.11822 4.46437 4.06661 4.52896 4.01562 4.59402C3.98624 4.63072 3.98624 4.63072 3.95627 4.66816C3.1431 5.68914 2.56137 6.83688 2.27245 8.11258C2.26156 8.1606 2.26156 8.1606 2.25044 8.2096C2.12935 8.77402 2.07546 9.33142 2.07616 9.90847C2.07616 9.94077 2.07615 9.97307 2.07615 10.0063C2.07767 10.6219 2.14776 11.2117 2.28124 11.8128C2.28825 11.846 2.29526 11.8792 2.30248 11.9134C2.61025 13.3428 3.41189 14.6366 4.39648 15.6975C4.4228 15.726 4.44912 15.7544 4.47624 15.7837C4.78874 16.1145 5.13119 16.397 5.50097 16.6614C5.55644 16.7011 5.55644 16.7011 5.61303 16.7415C7.52235 18.0961 9.82007 18.562 12.1226 18.1999C13.3716 17.9836 14.5727 17.4897 15.5937 16.7346C15.6435 16.6981 15.6932 16.6617 15.7444 16.6241C16.2221 16.2678 16.6657 15.8818 17.0469 15.4221C17.0829 15.3808 17.119 15.3395 17.1562 15.2969C17.9424 14.3839 18.498 13.2967 18.8281 12.1409C18.8403 12.0994 18.8525 12.0579 18.865 12.0152C19.3909 10.1737 19.1618 8.08243 18.3125 6.37527C18.2964 6.34261 18.2803 6.30995 18.2638 6.2763C17.7596 5.26156 17.0691 4.34455 16.2031 3.60965C16.1726 3.58372 16.142 3.55779 16.1106 3.53107C12.6463 0.635234 7.57853 1.03525 4.17089 4.40066Z" fill="#535353"/>
</g>
<defs>
<clipPath id="clip0_193_234">
<rect width="24" height="24" fill="white" transform="translate(0.5)"/>
</clipPath>
</defs>
</svg>
