<svg width="24" height="24" viewBox="0 0 24 24" fill="none" xmlns="http://www.w3.org/2000/svg">
<g clip-path="url(#clip0_193_282)">
<path d="M11.5163 0.923427C11.5543 0.923226 11.5924 0.923026 11.6316 0.922819C11.7118 0.922551 11.7919 0.922525 11.872 0.922729C11.9935 0.922877 12.1149 0.921777 12.2364 0.920589C12.3147 0.920483 12.393 0.92045 12.4713 0.920498C12.525 0.91985 12.525 0.91985 12.5797 0.919189C12.9086 0.921967 13.1902 0.999694 13.4678 1.17776C13.7789 1.51053 13.8046 1.8477 13.8087 2.28714C13.8061 2.48229 13.8061 2.48229 13.8836 2.65487C13.9933 2.73715 14.0922 2.76432 14.2248 2.79971C14.3022 2.82113 14.3022 2.82113 14.3811 2.84299C14.4365 2.85807 14.4918 2.87316 14.5489 2.8887C16.533 3.45483 16.533 3.45483 17.1094 4.03128C17.2817 4.0516 17.3614 4.05407 17.5005 3.94558C17.5505 3.88939 17.5505 3.88939 17.6016 3.83206C17.8469 3.57074 18.0613 3.39427 18.4219 3.32815C18.8347 3.31599 19.1089 3.46101 19.4077 3.7383C19.543 3.86739 19.6754 3.99936 19.8069 4.13234C19.8898 4.21598 19.9734 4.29884 20.0571 4.38165C20.1105 4.43516 20.1639 4.48872 20.2173 4.54232C20.2544 4.57903 20.2544 4.57903 20.2923 4.61648C20.5399 4.86889 20.6519 5.10916 20.6737 5.45785C20.6659 5.97107 20.3094 6.26873 19.9688 6.6094C19.9323 6.88286 20.0378 7.03381 20.1797 7.25393C20.7069 8.11318 21.0159 9.05616 21.2895 10.0218C21.3178 10.1332 21.3178 10.1332 21.4219 10.1719C21.5175 10.1763 21.6131 10.1805 21.7088 10.1831C22.4884 10.2067 22.4884 10.2067 22.7716 10.4905C23.0281 10.8049 23.0771 11.1222 23.0766 11.5163C23.0768 11.5543 23.077 11.5924 23.0772 11.6316C23.0775 11.7118 23.0775 11.7919 23.0773 11.872C23.0772 11.9935 23.0783 12.1149 23.0795 12.2364C23.0796 12.3147 23.0796 12.393 23.0796 12.4713C23.08 12.5071 23.0804 12.5429 23.0809 12.5797C23.0781 12.9086 23.0004 13.1902 22.8223 13.4678C22.4895 13.7789 22.1524 13.8046 21.7129 13.8087C21.5178 13.8061 21.5178 13.8061 21.3452 13.8836C21.2629 13.9933 21.2357 14.0922 21.2003 14.2248C21.1789 14.3022 21.1789 14.3022 21.1571 14.3811C21.142 14.4365 21.1269 14.4918 21.1114 14.5489C20.5452 16.533 20.5452 16.533 19.9688 17.1094C19.9485 17.2817 19.946 17.3614 20.0545 17.5005C20.0919 17.5339 20.1294 17.5672 20.168 17.6016C20.4293 17.8469 20.6058 18.0613 20.6719 18.4219C20.6841 18.8347 20.539 19.1089 20.2618 19.4077C20.1327 19.543 20.0007 19.6754 19.8677 19.8069C19.7841 19.8898 19.7012 19.9734 19.6184 20.0571C19.5649 20.1105 19.5113 20.1639 19.4577 20.2172C19.4333 20.242 19.4088 20.2668 19.3836 20.2923C19.1466 20.5248 18.9115 20.6502 18.5821 20.6739C18.2185 20.6675 18.0005 20.5508 17.7451 20.294C17.7075 20.2528 17.6699 20.2117 17.6311 20.1693C17.5144 20.0445 17.435 19.9754 17.2639 19.9497C17.0542 19.9756 16.9214 20.0667 16.7461 20.1797C15.8869 20.7069 14.9439 21.0159 13.9783 21.2895C13.8669 21.3178 13.8669 21.3178 13.8282 21.4219C13.8237 21.5175 13.8196 21.6131 13.817 21.7088C13.7934 22.4884 13.7934 22.4884 13.5095 22.7716C13.1951 23.0281 12.8778 23.0771 12.4838 23.0766C12.4457 23.0768 12.4076 23.077 12.3684 23.0772C12.2883 23.0775 12.2082 23.0775 12.128 23.0773C12.0066 23.0772 11.8851 23.0783 11.7636 23.0795C11.6853 23.0796 11.607 23.0796 11.5287 23.0796C11.4751 23.0802 11.4751 23.0802 11.4204 23.0809C11.0915 23.0781 10.8098 23.0004 10.5323 22.8223C10.2212 22.4895 10.1955 22.1524 10.1913 21.7129C10.1939 21.5177 10.1939 21.5177 10.1163 21.3451C10.0074 21.2634 9.9102 21.2367 9.77859 21.202C9.72745 21.1879 9.67631 21.1739 9.62363 21.1594C9.54117 21.1371 9.54117 21.1371 9.45706 21.1143C8.54635 20.8557 7.68045 20.4953 6.89065 19.9688C6.75301 19.9443 6.75301 19.9443 6.6094 19.9688C6.495 20.0527 6.495 20.0527 6.39846 20.168C6.1125 20.4721 5.85129 20.6618 5.42672 20.6752C4.89163 20.6439 4.54652 20.225 4.19313 19.8677C4.11025 19.7841 4.02664 19.7012 3.94293 19.6184C3.88951 19.5649 3.83613 19.5113 3.7828 19.4577C3.75805 19.4333 3.73329 19.4088 3.70778 19.3836C3.47527 19.1466 3.34986 18.9115 3.32614 18.5821C3.3326 18.2185 3.44925 18.0005 3.70608 17.7451C3.76781 17.6887 3.76781 17.6887 3.83078 17.6311C3.95553 17.5144 4.02461 17.435 4.05032 17.2639C4.02448 17.0542 3.93334 16.9214 3.82034 16.7461C3.29318 15.8869 2.98412 14.9439 2.71054 13.9783C2.68222 13.8669 2.68222 13.8669 2.57815 13.8282C2.48255 13.8237 2.38693 13.8196 2.29127 13.817C1.51167 13.7934 1.51167 13.7934 1.22848 13.5095C0.971931 13.1951 0.922959 12.8778 0.923427 12.4838C0.923226 12.4457 0.923026 12.4076 0.922819 12.3684C0.922551 12.2883 0.922525 12.2082 0.922729 12.128C0.922877 12.0066 0.921777 11.8851 0.920589 11.7636C0.920483 11.6853 0.92045 11.607 0.920498 11.5287C0.920066 11.493 0.919634 11.4572 0.919189 11.4204C0.921967 11.0915 0.999694 10.8098 1.17776 10.5323C1.51053 10.2212 1.8477 10.1955 2.28714 10.1913C2.48229 10.1939 2.48229 10.1939 2.65487 10.1165C2.73715 10.0068 2.76432 9.90781 2.79971 9.77529C2.814 9.72368 2.82828 9.67207 2.843 9.61889C2.86562 9.53588 2.86562 9.53588 2.8887 9.4512C3.14814 8.54112 3.50464 7.6806 4.03128 6.89065C4.0557 6.753 4.0557 6.753 4.03128 6.6094C3.94735 6.495 3.94735 6.495 3.83206 6.39846C3.57074 6.15314 3.39427 5.9388 3.32815 5.57815C3.31599 5.16535 3.46101 4.89117 3.7383 4.59239C3.86739 4.45702 3.99936 4.32467 4.13234 4.19313C4.21598 4.11025 4.29884 4.02664 4.38165 3.94293C4.43516 3.88951 4.48872 3.83613 4.54232 3.7828C4.5668 3.75805 4.59127 3.73329 4.61648 3.70778C4.85344 3.47527 5.08856 3.34986 5.41793 3.32614C5.78157 3.3326 5.99956 3.44925 6.25491 3.70608C6.29255 3.74723 6.3302 3.78838 6.36898 3.83078C6.48561 3.95553 6.56508 4.02461 6.73611 4.05032C6.94581 4.02448 7.0787 3.93334 7.25393 3.82034C8.11318 3.29318 9.05616 2.98412 10.0218 2.71054C10.1332 2.68222 10.1332 2.68222 10.1719 2.57815C10.1763 2.48255 10.1805 2.38693 10.1831 2.29127C10.2067 1.51167 10.2067 1.51167 10.4905 1.22848C10.8049 0.971931 11.1222 0.922959 11.5163 0.923427ZM10.9219 1.87503C10.8893 1.97155 10.8893 1.97155 10.8954 2.0693C10.8946 2.12273 10.8946 2.12273 10.8938 2.17724C10.8944 2.21383 10.8949 2.25042 10.8955 2.28811C10.8997 2.67245 10.8333 2.94467 10.5586 3.22561C10.2955 3.40272 10.0019 3.47967 9.69831 3.55967C8.84366 3.78655 8.04974 4.13606 7.30447 4.6119C7.02715 4.7752 6.73625 4.77863 6.4219 4.7344C6.12963 4.63101 5.93041 4.39136 5.72702 4.16677C5.60858 4.06386 5.54573 4.04364 5.39065 4.03128C5.29823 4.07966 5.29823 4.07966 5.21908 4.16256C5.18693 4.19299 5.15477 4.22343 5.12165 4.25478C5.08667 4.2893 5.05169 4.32383 5.01565 4.3594C4.97699 4.3964 4.93832 4.43341 4.89849 4.47153C4.77327 4.59218 4.64971 4.71435 4.52639 4.83694C4.48376 4.8786 4.44113 4.92027 4.39721 4.96319C4.35676 5.0034 4.3163 5.04362 4.27462 5.08505C4.23798 5.12125 4.20134 5.15746 4.16358 5.19476C4.07804 5.29704 4.04294 5.35273 4.03128 5.4844C4.11679 5.66727 4.23658 5.79004 4.38284 5.92678C4.63983 6.1821 4.7403 6.34866 4.75784 6.71487C4.74888 7.03258 4.66327 7.23238 4.50003 7.50003C4.05509 8.24721 3.74251 9.00604 3.51895 9.84634C3.41341 10.2405 3.31592 10.558 2.95315 10.7813C2.70943 10.9095 2.45286 10.8903 2.18411 10.8892C2.14785 10.8902 2.1116 10.8911 2.07425 10.8921C2.0253 10.8923 2.0253 10.8923 1.97537 10.8925C1.81201 10.9404 1.74313 11.0225 1.64065 11.1563C1.61723 11.2936 1.60767 11.4031 1.60952 11.5401C1.6093 11.5766 1.60908 11.6132 1.60884 11.6509C1.60869 11.7279 1.60911 11.805 1.6101 11.8821C1.61135 11.9997 1.61011 12.1171 1.60861 12.2348C1.60876 12.3098 1.60906 12.3849 1.60952 12.46C1.60905 12.495 1.60857 12.5299 1.60809 12.5659C1.61219 12.7493 1.6349 12.8363 1.74764 12.9833C1.87268 13.0764 1.91801 13.1069 2.0693 13.1047C2.10492 13.1052 2.14054 13.1057 2.17724 13.1063C2.21383 13.1057 2.25042 13.1051 2.28811 13.1045C2.67245 13.1003 2.94467 13.1667 3.22561 13.4414C3.40272 13.7046 3.47967 13.9981 3.55967 14.3017C3.78655 15.1564 4.13606 15.9503 4.6119 16.6956C4.7752 16.9729 4.77863 17.2638 4.7344 17.5782C4.63101 17.8704 4.39136 18.0696 4.16677 18.273C4.06386 18.3915 4.04364 18.4543 4.03128 18.6094C4.07966 18.7018 4.07966 18.7018 4.16256 18.781C4.19299 18.8131 4.22343 18.8453 4.25478 18.8784C4.30657 18.9309 4.30657 18.9309 4.3594 18.9844C4.41491 19.0424 4.41491 19.0424 4.47153 19.1016C4.59218 19.2268 4.71435 19.3503 4.83694 19.4737C4.89943 19.5376 4.89943 19.5376 4.96319 19.6028C5.0034 19.6433 5.04362 19.6837 5.08505 19.7254C5.12125 19.7621 5.15746 19.7987 5.19476 19.8365C5.29704 19.922 5.35273 19.9571 5.4844 19.9688C5.66727 19.8833 5.79004 19.7635 5.92678 19.6172C6.1821 19.3602 6.34866 19.2598 6.71487 19.2422C7.03258 19.2512 7.23238 19.3368 7.50003 19.5C8.24721 19.945 9.00605 20.2575 9.84634 20.4811C10.2405 20.5866 10.558 20.6841 10.7813 21.0469C10.9095 21.2906 10.8903 21.5472 10.8892 21.8159C10.8902 21.8522 10.8911 21.8885 10.8921 21.9258C10.8922 21.9584 10.8923 21.9911 10.8925 22.0247C10.9404 22.188 11.0225 22.2569 11.1563 22.3594C11.2936 22.3828 11.4031 22.3924 11.5401 22.3905C11.5766 22.3908 11.6132 22.391 11.6509 22.3912C11.7279 22.3914 11.805 22.3909 11.8821 22.39C11.9997 22.3887 12.1171 22.3899 12.2348 22.3914C12.3098 22.3913 12.3849 22.391 12.46 22.3905C12.5124 22.3912 12.5124 22.3912 12.5659 22.392C12.7493 22.3879 12.8363 22.3652 12.9833 22.2524C13.0764 22.1274 13.1069 22.082 13.1047 21.9307C13.1055 21.8773 13.1055 21.8773 13.1063 21.8228C13.1057 21.7862 13.1051 21.7496 13.1045 21.7119C13.1003 21.3276 13.1667 21.0554 13.4414 20.7744C13.7046 20.5973 13.9981 20.5204 14.3017 20.4404C15.1564 20.2135 15.9503 19.864 16.6956 19.3881C16.9729 19.2249 17.2638 19.2214 17.5782 19.2656C17.8704 19.369 18.0696 19.6087 18.273 19.8333C18.3915 19.9362 18.4543 19.9564 18.6094 19.9688C18.7018 19.9204 18.7018 19.9204 18.781 19.8375C18.8131 19.8071 18.8453 19.7766 18.8784 19.7453C18.9134 19.7107 18.9484 19.6762 18.9844 19.6406C19.0231 19.6036 19.0617 19.5666 19.1016 19.5285C19.2268 19.4079 19.3503 19.2857 19.4737 19.1631C19.5163 19.1214 19.5589 19.0798 19.6028 19.0369C19.6433 18.9966 19.6837 18.9564 19.7254 18.915C19.7804 18.8607 19.7804 18.8607 19.8365 18.8053C19.922 18.703 19.9571 18.6473 19.9688 18.5157C19.8833 18.3328 19.7635 18.21 19.6172 18.0733C19.3602 17.818 19.2598 17.6514 19.2422 17.2852C19.2512 16.9675 19.3368 16.7677 19.5 16.5C19.9615 15.7251 20.2795 14.9374 20.511 14.0646C20.611 13.6971 20.7215 13.441 21.0469 13.2188C21.2918 13.0915 21.5465 13.1097 21.8159 13.1108C21.8522 13.1099 21.8885 13.109 21.9258 13.108C21.9748 13.1078 21.9748 13.1078 22.0247 13.1076C22.188 13.0597 22.2569 12.9776 22.3594 12.8438C22.3828 12.7065 22.3924 12.5969 22.3905 12.46C22.3908 12.4234 22.391 12.3868 22.3912 12.3492C22.3914 12.2721 22.3909 12.195 22.39 12.118C22.3887 12.0003 22.3899 11.8829 22.3914 11.7653C22.3913 11.6902 22.391 11.6151 22.3905 11.5401C22.3912 11.4876 22.3912 11.4876 22.392 11.4341C22.3879 11.2507 22.3652 11.1638 22.2524 11.0168C22.1274 10.9236 22.082 10.8932 21.9308 10.8954C21.8951 10.8948 21.8595 10.8943 21.8228 10.8938C21.7862 10.8944 21.7496 10.8949 21.7119 10.8955C21.3276 10.8997 21.0554 10.8333 20.7744 10.5586C20.5973 10.2955 20.5204 10.0019 20.4404 9.69831C20.2135 8.84366 19.864 8.04974 19.3881 7.30447C19.2249 7.02715 19.2214 6.73625 19.2657 6.4219C19.369 6.12963 19.6087 5.93041 19.8333 5.72702C19.9362 5.60858 19.9564 5.54573 19.9688 5.39065C19.9204 5.29823 19.9204 5.29823 19.8375 5.21908C19.8071 5.18693 19.7766 5.15477 19.7453 5.12165C19.7107 5.08667 19.6762 5.05169 19.6407 5.01565C19.6036 4.97699 19.5666 4.93832 19.5285 4.89849C19.4079 4.77327 19.2857 4.64971 19.1631 4.52639C19.1006 4.46245 19.1006 4.46245 19.0369 4.39721C18.9966 4.35676 18.9564 4.3163 18.915 4.27462C18.8607 4.21966 18.8607 4.21966 18.8053 4.16358C18.703 4.07804 18.6473 4.04294 18.5157 4.03128C18.3328 4.11679 18.21 4.23658 18.0733 4.38284C17.818 4.63983 17.6514 4.7403 17.2852 4.75784C16.9675 4.74888 16.7677 4.66327 16.5 4.50003C15.7528 4.05509 14.994 3.74251 14.1537 3.51895C13.7595 3.41341 13.442 3.31592 13.2188 2.95315C13.0905 2.70943 13.1097 2.45286 13.1108 2.18411C13.1099 2.14785 13.109 2.1116 13.108 2.07425C13.1079 2.04162 13.1077 2.00899 13.1076 1.97537C13.0597 1.81201 12.9776 1.74313 12.8438 1.64065C12.7065 1.61723 12.5969 1.60767 12.46 1.60952C12.4234 1.6093 12.3869 1.60908 12.3492 1.60884C12.2721 1.60869 12.195 1.60911 12.118 1.6101C12.0004 1.61135 11.8829 1.61011 11.7653 1.60861C11.6902 1.60876 11.6151 1.60906 11.5401 1.60952C11.5051 1.60905 11.4701 1.60857 11.4341 1.60809C11.1836 1.61369 11.071 1.67481 10.9219 1.87503Z" fill="#535353"/>
<path d="M16.4812 7.28521C17.6507 8.3465 18.391 9.96367 18.4766 11.5355C18.5472 13.5096 17.9072 15.1479 16.593 16.6047C15.5054 17.7471 13.8772 18.4258 12.3131 18.4821C10.511 18.5196 8.84633 17.9537 7.52569 16.7088C6.48577 15.7071 5.79464 14.4168 5.5781 12.9843C5.56952 12.9279 5.56094 12.8714 5.5521 12.8131C5.35265 11.1503 5.78646 9.38245 6.82674 8.05711C7.84513 6.79659 9.15049 5.97224 10.7344 5.62497C10.787 5.61337 10.8396 5.60177 10.8938 5.58982C12.9459 5.22456 14.9517 5.92813 16.4812 7.28521ZM10.4531 6.42185C10.4222 6.42988 10.3913 6.43791 10.3594 6.44618C9.57515 6.65605 8.86617 7.07274 8.24998 7.59372C8.19605 7.63786 8.19605 7.63786 8.14103 7.68289C7.08836 8.56713 6.39151 9.97726 6.24201 11.3365C6.11601 12.9976 6.56429 14.5191 7.6406 15.7968C7.78827 15.9617 7.94246 16.12 8.10935 16.2656C8.12482 16.2656 8.14029 16.2656 8.15623 16.2656C8.15629 16.2363 8.15636 16.207 8.15643 16.1768C8.15736 15.8696 8.15992 15.5623 8.16338 15.2551C8.16446 15.1407 8.16514 15.0263 8.16539 14.9119C8.16583 14.7467 8.16776 14.5815 8.16996 14.4162C8.16978 14.3658 8.16959 14.3154 8.1694 14.2635C8.18013 13.6955 8.40115 13.2199 8.79307 12.8135C9.21902 12.4186 9.71055 12.3191 10.2656 12.2343C10.2441 12.2026 10.2226 12.1708 10.2004 12.138C9.76212 11.4732 9.58023 10.8003 9.73515 10.008C9.83423 9.69179 9.98721 9.41452 10.1719 9.1406C10.1989 9.09903 10.226 9.05745 10.2539 9.01462C10.7136 8.54215 11.3246 8.29439 11.9765 8.2822C12.5347 8.28105 12.994 8.45091 13.4531 8.7656C13.4947 8.79267 13.5362 8.81974 13.5791 8.84763C14.0083 9.26521 14.2959 9.85711 14.3106 10.4574C14.3162 11.1203 14.1613 11.5929 13.7812 12.1406C13.7658 12.1715 13.7503 12.2025 13.7344 12.2343C13.7831 12.2418 13.8318 12.2492 13.8819 12.2569C14.5036 12.358 14.999 12.5348 15.4219 13.0312C15.6367 13.3657 15.7995 13.7148 15.8065 14.1157C15.8074 14.1636 15.8083 14.2114 15.8093 14.2607C15.8105 14.3377 15.8105 14.3377 15.8117 14.4162C15.8131 14.4954 15.8131 14.4954 15.8146 14.5762C15.8177 14.7448 15.8205 14.9134 15.8232 15.082C15.8252 15.1963 15.8273 15.3106 15.8294 15.425C15.8344 15.7052 15.8391 15.9854 15.8437 16.2656C15.8962 16.221 15.9486 16.1763 16.001 16.1316C16.0303 16.1067 16.0595 16.0818 16.0895 16.0562C17.0161 15.2478 17.6032 13.9436 17.7541 12.7368C17.8009 12.0294 17.7992 11.3307 17.625 10.6406C17.6172 10.6097 17.6094 10.5788 17.6014 10.547C17.2273 9.12569 16.3226 7.83105 15.0469 7.0781C15.0172 7.06049 14.9875 7.04289 14.9569 7.02475C13.5793 6.21978 11.999 6.00496 10.4531 6.42185ZM10.6975 9.57053C10.6246 9.6745 10.5608 9.77913 10.5 9.8906C10.484 9.91936 10.4681 9.94812 10.4516 9.97776C10.281 10.3475 10.3088 10.8101 10.4267 11.1914C10.5991 11.6043 10.9375 11.952 11.3437 12.1406C11.7286 12.2946 12.2337 12.3037 12.6269 12.167C13.0862 11.9478 13.4143 11.5655 13.6084 11.1035C13.7078 10.5432 13.6525 10.0731 13.3341 9.5947C13.0734 9.26854 12.6945 9.02435 12.2812 8.9531C11.6563 8.89546 11.1037 9.07634 10.6975 9.57053ZM9.1406 13.4062C8.87383 13.8053 8.81603 14.1671 8.81706 14.6393C8.81651 14.7019 8.8159 14.7645 8.81523 14.8271C8.81419 14.9572 8.81421 15.0873 8.81496 15.2174C8.81578 15.3836 8.81338 15.5495 8.81013 15.7157C8.80756 15.8754 8.80808 16.0351 8.80827 16.1949C8.80697 16.2542 8.80568 16.3136 8.80434 16.3747C8.80254 16.6769 8.80254 16.6769 8.95047 16.9265C9.0582 16.9998 9.16244 17.0563 9.28123 17.1093C9.32921 17.134 9.32921 17.134 9.37815 17.1591C9.46174 17.202 9.5463 17.2396 9.63279 17.2763C9.68036 17.2968 9.68036 17.2968 9.72889 17.3176C11.24 17.9474 12.8358 17.9081 14.3437 17.2968C14.7719 17.1073 14.7719 17.1073 15.1406 16.8281C15.156 16.7063 15.156 16.7063 15.155 16.5624C15.1561 16.4788 15.1561 16.4788 15.1572 16.3935C15.1575 16.333 15.1577 16.2724 15.158 16.2099C15.1584 16.1471 15.1588 16.0842 15.1593 16.0214C15.1601 15.8893 15.1604 15.7572 15.1605 15.6251C15.1608 15.457 15.1626 15.2889 15.1647 15.1208C15.1661 14.9907 15.1664 14.8607 15.1665 14.7306C15.1668 14.6389 15.1682 14.5471 15.1696 14.4554C15.1677 14.0798 15.108 13.8179 14.9062 13.5C14.8792 13.4565 14.8521 13.413 14.8242 13.3681C14.3303 12.8879 13.6746 12.9228 13.0332 12.9234C12.9511 12.9232 12.869 12.923 12.7869 12.9228C12.6152 12.9224 12.4435 12.9224 12.2719 12.9227C12.0533 12.9229 11.8347 12.9222 11.6161 12.9211C11.4466 12.9204 11.2771 12.9203 11.1076 12.9205C11.0271 12.9205 10.9466 12.9202 10.866 12.9197C9.9161 12.911 9.9161 12.911 9.1406 13.4062Z" fill="#535353"/>
</g>
<defs>
<clipPath id="clip0_193_282">
<rect width="24" height="24" fill="white"/>
</clipPath>
</defs>
</svg>
