<svg width="24" height="24" viewBox="0 0 24 24" fill="none" xmlns="http://www.w3.org/2000/svg">
<path d="M9.28814 1.30589C9.32191 1.30575 9.35569 1.30561 9.39049 1.30547C9.50369 1.30506 9.61689 1.30499 9.73009 1.30492C9.81126 1.3047 9.89242 1.30447 9.97358 1.30421C10.1941 1.3036 10.4146 1.3033 10.6352 1.30309C10.773 1.30295 10.9108 1.30276 11.0486 1.30255C11.48 1.30191 11.9113 1.30146 12.3427 1.30127C12.8403 1.30106 13.338 1.30024 13.8357 1.29888C14.2205 1.29787 14.6054 1.2974 14.9902 1.29733C15.22 1.29729 15.4498 1.29701 15.6795 1.29617C15.8958 1.2954 16.112 1.2953 16.3282 1.29571C16.4074 1.29575 16.4866 1.29554 16.5659 1.29508C16.6743 1.29448 16.7827 1.29476 16.8912 1.29525C16.9518 1.29518 17.0124 1.29511 17.0748 1.29504C17.3402 1.32145 17.5796 1.38206 17.7598 1.58786C17.9276 1.83466 17.9648 2.01154 17.9644 2.31011C17.9645 2.36094 17.9645 2.36094 17.9646 2.4128C17.9648 2.52609 17.9643 2.63937 17.9638 2.75265C17.9638 2.83397 17.9638 2.91528 17.9638 2.9966C17.9638 3.2172 17.9633 3.4378 17.9626 3.6584C17.9621 3.889 17.962 4.1196 17.9619 4.35019C17.9616 4.7868 17.9608 5.2234 17.9599 5.66001C17.9588 6.15709 17.9583 6.65418 17.9579 7.15127C17.9569 8.17375 17.9552 9.19624 17.9531 10.2187C18.0224 10.2183 18.0224 10.2183 18.093 10.2178C18.5288 10.2149 18.9647 10.2128 19.4005 10.2114C19.6246 10.2107 19.8486 10.2097 20.0727 10.2081C20.2891 10.2066 20.5055 10.2057 20.7219 10.2054C20.8042 10.2051 20.8866 10.2046 20.969 10.2039C21.0848 10.2028 21.2005 10.2027 21.3163 10.2028C21.35 10.2023 21.3838 10.2017 21.4185 10.2012C21.6786 10.2028 21.9485 10.2456 22.15 10.4224C22.3484 10.6486 22.4182 10.8534 22.4168 11.1498C22.4168 11.2323 22.4168 11.2323 22.4167 11.3164C22.4162 11.3764 22.4158 11.4363 22.4153 11.498C22.4151 11.5621 22.4149 11.6262 22.4149 11.6903C22.4146 11.8281 22.4141 11.9659 22.4134 12.1036C22.4124 12.3217 22.4123 12.5398 22.4125 12.7579C22.4126 12.8327 22.4127 12.9075 22.4127 12.9822C22.4127 13.0197 22.4128 13.0571 22.4128 13.0957C22.4131 13.6032 22.4125 14.1107 22.41 14.6183C22.4083 14.9609 22.4079 15.3035 22.4091 15.6462C22.4096 15.8274 22.4095 16.0085 22.4077 16.1896C22.406 16.3602 22.4061 16.5306 22.4074 16.7011C22.4077 16.793 22.4062 16.885 22.4045 16.977C22.4086 17.2696 22.4239 17.4434 22.6365 17.6552C22.7003 17.7077 22.7642 17.7601 22.8281 17.8125C23.3781 18.5051 23.4639 19.351 23.3906 20.2031C23.2768 21.011 22.7833 21.6623 22.1484 22.1455C21.4422 22.6256 20.642 22.784 19.8047 22.6259C19.593 22.5819 19.393 22.5283 19.1895 22.456C19.0826 22.4186 19.0826 22.4186 18.9844 22.4062C18.8516 22.4804 18.8516 22.4804 18.75 22.5937C18.5365 22.6837 18.3526 22.6992 18.1222 22.6994C18.0713 22.6996 18.0713 22.6996 18.0195 22.6998C17.9064 22.7002 17.7934 22.6999 17.6804 22.6996C17.5992 22.6997 17.5179 22.6999 17.4367 22.7001C17.2163 22.7005 16.996 22.7004 16.7757 22.7001C16.5449 22.6998 16.3142 22.7 16.0834 22.7002C15.6958 22.7004 15.3083 22.7001 14.9208 22.6997C14.473 22.6992 14.0252 22.6994 13.5775 22.6999C13.1928 22.7003 12.8081 22.7004 12.4234 22.7001C12.1938 22.7 11.9642 22.6999 11.7345 22.7003C11.5186 22.7005 11.3026 22.7003 11.0867 22.6998C11.0075 22.6997 10.9283 22.6997 10.8492 22.6999C10.7409 22.7002 10.6327 22.6998 10.5244 22.6994C10.4639 22.6993 10.4034 22.6993 10.341 22.6993C10.1719 22.6875 10.1719 22.6875 10.0034 22.634C9.81386 22.5862 9.74204 22.6197 9.56251 22.6875C9.44791 22.6959 9.33291 22.6995 9.21801 22.6997C9.18434 22.6999 9.15068 22.7001 9.11599 22.7002C9.00373 22.7007 8.89147 22.7005 8.77921 22.7003C8.69849 22.7006 8.61778 22.7008 8.53707 22.7011C8.31819 22.7017 8.09931 22.7017 7.88042 22.7016C7.69754 22.7016 7.51466 22.7018 7.33177 22.702C6.90022 22.7025 6.46867 22.7026 6.03711 22.7023C5.59228 22.702 5.14746 22.7026 4.70263 22.7036C4.32038 22.7044 3.93813 22.7047 3.55587 22.7045C3.32772 22.7044 3.09958 22.7046 2.87143 22.7052C2.65681 22.7058 2.44221 22.7057 2.22759 22.7051C2.14898 22.705 2.07038 22.7051 1.99177 22.7055C1.12835 22.7094 1.12835 22.7094 0.84101 22.4646C0.81968 22.4367 0.79835 22.4087 0.776374 22.3799C0.754198 22.3518 0.732022 22.3237 0.709174 22.2947C0.593626 22.1288 0.602432 21.9838 0.602483 21.7882C0.602311 21.7531 0.602139 21.7179 0.601961 21.6818C0.601443 21.5635 0.601263 21.4453 0.601085 21.327C0.600791 21.2425 0.60048 21.158 0.600152 21.0735C0.599335 20.8433 0.59884 20.6132 0.598454 20.3831C0.598213 20.2394 0.597929 20.0957 0.597634 19.952C0.596741 19.5025 0.596074 19.053 0.595683 18.6036C0.595225 18.0844 0.593991 17.5653 0.592097 17.0461C0.590684 16.6451 0.589989 16.2441 0.589834 15.843C0.589724 15.6034 0.589302 15.3638 0.588125 15.1242C0.587035 14.8987 0.586835 14.6732 0.587317 14.4478C0.58734 14.3651 0.587043 14.2823 0.5864 14.1996C0.585571 14.0866 0.585902 13.9736 0.586519 13.8606C0.586005 13.8279 0.585491 13.7952 0.584961 13.7616C0.588722 13.4759 0.704975 13.3126 0.899604 13.1138C0.936282 13.0817 0.97296 13.0496 1.01075 13.0166C1.0519 12.9805 1.09305 12.9444 1.13544 12.9073C1.3062 12.7624 1.47975 12.6213 1.65382 12.4804C1.77758 12.378 1.89691 12.2722 2.01563 12.164C2.17125 12.0223 2.32958 11.8863 2.49317 11.7539C2.70292 11.5841 2.90783 11.4096 3.11134 11.2324C3.34123 11.0325 3.57111 10.8326 3.80274 10.6347C3.82712 10.6137 3.85149 10.5926 3.8766 10.5709C4.17109 10.3203 4.38383 10.2112 4.76954 10.2158C4.8157 10.2162 4.86187 10.2166 4.90943 10.2171C4.962 10.2179 4.962 10.2179 5.01563 10.2187C5.01555 10.1915 5.01546 10.1643 5.01537 10.1363C5.0133 9.47352 5.01175 8.81073 5.01078 8.14794C5.01029 7.82741 5.00963 7.50688 5.00856 7.18636C5.00752 6.87696 5.00698 6.56755 5.00674 6.25815C5.00656 6.14019 5.00623 6.02222 5.00572 5.90426C5.00504 5.73887 5.00495 5.57348 5.00499 5.40808C5.00465 5.35946 5.00432 5.31084 5.00397 5.26075C5.00514 4.84619 5.04377 4.53082 5.33625 4.22092C5.48585 4.07917 5.64435 3.95059 5.80555 3.8223C5.97407 3.68765 6.13634 3.54608 6.29884 3.40427C6.5438 3.19089 6.79018 2.97942 7.03856 2.77002C7.22443 2.61322 7.40927 2.45527 7.59376 2.29685C7.67565 2.22665 7.75756 2.15648 7.83946 2.0863C7.89513 2.03855 7.95074 1.99074 8.00632 1.94288C8.08839 1.87223 8.17064 1.80181 8.25294 1.73142C8.2775 1.71018 8.30206 1.68894 8.32737 1.66706C8.651 1.39115 8.86648 1.30686 9.28814 1.30589ZM8.57813 2.53122C8.51859 2.58375 8.4583 2.63544 8.39704 2.68595C8.34309 2.73293 8.28919 2.77999 8.23536 2.82712C8.17544 2.87932 8.1155 2.93151 8.05555 2.98368C8.02571 3.00965 7.99588 3.03563 7.96514 3.06239C7.81949 3.18877 7.67293 3.31409 7.52637 3.43943C7.44743 3.50706 7.36851 3.57471 7.2896 3.64238C7.22457 3.69811 7.1595 3.7538 7.09443 3.80948C7.06005 3.83915 7.02567 3.86882 6.99024 3.89939C6.96136 3.92422 6.93248 3.94906 6.90272 3.97464C6.88326 3.99331 6.8638 4.01199 6.84376 4.03122C6.84376 4.04669 6.84376 4.06216 6.84376 4.0781C7.12136 4.08861 7.39885 4.09622 7.6766 4.10127C7.77086 4.10338 7.86511 4.10625 7.95932 4.10992C8.6058 4.14931 8.6058 4.14931 9.16755 3.8787C9.23853 3.80629 9.30779 3.73214 9.37501 3.65622C9.45245 3.58516 9.5305 3.51475 9.60938 3.44529C9.64787 3.41024 9.68636 3.37519 9.72602 3.33908C9.84383 3.23428 9.96437 3.13433 10.0869 3.03513C10.3078 2.85606 10.5248 2.67288 10.7402 2.48728C10.7714 2.46064 10.8025 2.43401 10.8346 2.40657C10.8635 2.38154 10.8924 2.35651 10.9222 2.33072C10.9482 2.30837 10.9741 2.28602 11.0008 2.26298C11.0686 2.20374 11.0686 2.20374 11.1094 2.10935C10.8318 2.09884 10.5543 2.09123 10.2765 2.08617C10.1823 2.08406 10.088 2.0812 9.99382 2.07752C9.37845 2.05414 9.00725 2.05112 8.57813 2.53122ZM11.9063 2.53122C11.8264 2.59908 11.7453 2.66547 11.6631 2.73044C11.4214 2.92604 11.1866 3.12864 10.9524 3.33304C10.7129 3.54165 10.4693 3.74462 10.2233 3.94553C10.1909 3.97381 10.1584 4.00209 10.125 4.03122C10.125 4.04669 10.125 4.06216 10.125 4.0781C10.5828 4.12932 10.5828 4.12932 11.0149 4.00559C11.1476 3.89541 11.2685 3.77802 11.3906 3.65622C11.5035 3.55592 11.6186 3.45835 11.7334 3.36032C11.7934 3.3082 11.8533 3.25602 11.9132 3.20377C12.0888 3.0509 12.2655 2.89933 12.4424 2.74802C12.5213 2.68039 12.6003 2.61273 12.6792 2.54507C12.7442 2.48933 12.8093 2.43364 12.8743 2.37796C12.9259 2.33346 12.9259 2.33346 12.9785 2.28806C13.0074 2.26322 13.0363 2.23839 13.066 2.2128C13.0952 2.1848 13.0952 2.1848 13.125 2.15622C13.125 2.14075 13.125 2.12529 13.125 2.10935C12.5599 2.05256 12.3032 2.09773 11.9063 2.53122ZM13.9219 2.53122C13.8367 2.60239 13.7509 2.67293 13.6641 2.74216C13.4956 2.87848 13.3321 3.01804 13.1719 3.16404C12.9296 3.38471 12.6768 3.59101 12.4219 3.79685C12.3268 3.87378 12.2331 3.95121 12.1406 4.03122C12.1406 4.04669 12.1406 4.06216 12.1406 4.0781C12.4258 4.08859 12.7108 4.09621 12.9961 4.10127C13.0929 4.10338 13.1898 4.10625 13.2866 4.10992C13.9335 4.15629 13.9335 4.15629 14.4886 3.87796C14.5507 3.8049 14.6118 3.73099 14.6719 3.65622C14.7515 3.5881 14.8325 3.52149 14.915 3.457C15.1567 3.26141 15.3915 3.05881 15.6257 2.8544C15.8652 2.6458 16.1088 2.44283 16.3548 2.24192C16.3873 2.21364 16.4197 2.18536 16.4531 2.15622C16.4531 2.14075 16.4531 2.12529 16.4531 2.10935C16.168 2.09885 15.883 2.09123 15.5977 2.08617C15.5008 2.08406 15.404 2.08119 15.3072 2.07752C14.5144 2.04331 14.5144 2.04331 13.9219 2.53122ZM16.8164 2.874C16.7561 2.92608 16.6958 2.97814 16.6355 3.03018C16.5896 3.06985 16.5896 3.06985 16.5428 3.11032C16.4121 3.22284 16.2803 3.33412 16.1484 3.44529C15.9904 3.57857 15.8328 3.71226 15.6762 3.8472C15.6479 3.87155 15.6197 3.8959 15.5905 3.92099C15.5373 3.96688 15.4841 4.01283 15.431 4.05887C15.4061 4.08038 15.3811 4.10189 15.3554 4.12406C15.3311 4.14566 15.3069 4.16726 15.2818 4.18952C15.1875 4.2656 15.1875 4.2656 15.0704 4.33545C14.8712 4.46392 14.7404 4.56172 14.6762 4.79595C14.661 4.99225 14.6607 5.18366 14.6655 5.38025C14.6657 5.45512 14.6656 5.52999 14.6653 5.60486C14.6652 5.8073 14.668 6.00961 14.6712 6.21202C14.6742 6.42384 14.6744 6.63567 14.675 6.8475C14.6764 7.24827 14.6803 7.64899 14.685 8.04973C14.6902 8.50611 14.6928 8.9625 14.6952 9.41891C14.7001 10.3574 14.7083 11.2959 14.7188 12.2343C14.8785 12.1585 14.9904 12.0713 15.1201 11.9502C15.2825 11.8013 15.4468 11.6579 15.6182 11.5195C15.857 11.3262 16.0894 11.1264 16.3205 10.9239C16.3478 10.9001 16.375 10.8763 16.4031 10.8517C16.4303 10.8272 16.4575 10.8027 16.4855 10.7774C16.5938 10.6875 16.5938 10.6875 16.7332 10.5953C17.0402 10.3797 17.0402 10.3797 17.2074 10.0548C17.2254 9.85715 17.226 9.66649 17.2201 9.46843C17.22 9.39354 17.22 9.31866 17.2204 9.24377C17.2205 9.0417 17.2172 8.83982 17.2133 8.6378C17.2098 8.42623 17.2094 8.21465 17.2088 8.00306C17.207 7.60295 17.2024 7.20292 17.1968 6.80284C17.1905 6.34714 17.1874 5.89143 17.1846 5.43569C17.1787 4.49874 17.1688 3.56186 17.1563 2.62497C17.0417 2.62497 16.9038 2.79797 16.8164 2.874ZM5.81251 4.92185C5.80786 5.02497 5.80659 5.12825 5.80655 5.23147C5.80648 5.26421 5.80641 5.29695 5.80633 5.33068C5.80615 5.4412 5.80629 5.55172 5.80644 5.66223C5.80638 5.74114 5.80629 5.82004 5.80619 5.89894C5.80598 6.11384 5.80606 6.32874 5.80621 6.54364C5.80633 6.76803 5.80622 6.99241 5.80615 7.21679C5.80606 7.59368 5.80617 7.97057 5.8064 8.34745C5.80665 8.78384 5.80657 9.22023 5.80631 9.65661C5.8061 10.0306 5.80607 10.4045 5.80619 10.7785C5.80626 11.0022 5.80627 11.2258 5.80612 11.4495C5.80598 11.6597 5.80608 11.8699 5.80635 12.0802C5.80641 12.1575 5.80639 12.2349 5.80629 12.3123C5.80616 12.4175 5.80632 12.5227 5.80655 12.6278C5.80657 12.6869 5.80659 12.7459 5.80661 12.8067C5.79757 12.9331 5.79757 12.9331 5.85938 12.9843C5.96321 12.9889 6.06718 12.9901 6.1711 12.99C6.20399 12.99 6.23687 12.9901 6.27075 12.9901C6.38211 12.9902 6.49346 12.9899 6.60482 12.9897C6.68555 12.9897 6.76628 12.9897 6.84701 12.9897C7.06397 12.9897 7.28093 12.9894 7.49789 12.9891C7.70118 12.9888 7.90448 12.9888 8.10777 12.9888C8.70304 12.9885 9.2983 12.9879 9.89356 12.9873C11.8876 12.9858 11.8876 12.9858 13.9219 12.9843C13.9219 10.3083 13.9219 7.63216 13.9219 4.87497C13.102 4.87497 12.2822 4.87497 11.4375 4.87497C11.4295 5.48358 11.4295 5.48358 11.4235 6.09221C11.4222 6.16864 11.4207 6.24508 11.4192 6.32151C11.4191 6.36103 11.4191 6.40056 11.419 6.44128C11.415 6.60689 11.4058 6.72121 11.3279 6.86895C11.1213 6.98242 10.9104 6.96414 10.6787 6.96237C10.6274 6.96255 10.5761 6.96273 10.5232 6.96292C10.4148 6.96305 10.3064 6.9627 10.1979 6.96192C10.0319 6.96091 9.8659 6.96191 9.69984 6.96311C9.59449 6.96298 9.48914 6.96274 9.3838 6.96237C9.33409 6.96275 9.28438 6.96313 9.23316 6.96352C8.89904 6.95926 8.89904 6.95926 8.73464 6.86895C8.63958 6.68874 8.64361 6.52255 8.64332 6.32151C8.64254 6.28015 8.64177 6.2388 8.64097 6.1962C8.6387 6.06438 8.63769 5.93259 8.63673 5.80075C8.63541 5.71128 8.634 5.6218 8.63251 5.53232C8.62905 5.31321 8.62673 5.09411 8.62501 4.87497C8.26522 4.87389 7.90544 4.87305 7.54566 4.87254C7.37861 4.8723 7.21157 4.87197 7.04452 4.87144C6.85266 4.87083 6.6608 4.8706 6.46894 4.87039C6.40869 4.87015 6.34843 4.86991 6.28636 4.86966C6.23099 4.86966 6.17562 4.86965 6.11858 4.86965C6.06955 4.86955 6.02053 4.86944 5.97001 4.86934C5.8614 4.86248 5.8614 4.86248 5.81251 4.92185ZM9.42188 4.87497C9.42188 5.3081 9.42188 5.74122 9.42188 6.18747C9.82407 6.18747 10.2263 6.18747 10.6406 6.18747C10.6406 5.75435 10.6406 5.32122 10.6406 4.87497C10.2384 4.87497 9.83626 4.87497 9.42188 4.87497ZM4.40333 11.1884C4.33771 11.2463 4.33771 11.2463 4.27076 11.3053C4.24741 11.3265 4.22405 11.3478 4.19999 11.3697C4.09208 11.4672 3.98161 11.5617 3.87134 11.6566C3.78143 11.7341 3.69189 11.8119 3.60242 11.8899C3.42684 12.0428 3.25018 12.1944 3.07325 12.3457C2.99431 12.4133 2.91538 12.481 2.83647 12.5486C2.77145 12.6044 2.70638 12.6601 2.6413 12.7157C2.60692 12.7454 2.57254 12.7751 2.53712 12.8056C2.50823 12.8305 2.47935 12.8553 2.44959 12.8809C2.43014 12.8996 2.41068 12.9182 2.39063 12.9375C2.39063 12.9529 2.39063 12.9684 2.39063 12.9843C3.27235 12.9843 4.15407 12.9843 5.06251 12.9843C5.0393 12.0098 5.0393 12.0098 5.01563 11.0156C4.64645 10.999 4.64645 10.999 4.40333 11.1884ZM16.9219 11.4375C16.8621 11.4897 16.8018 11.5414 16.7408 11.5922C16.6868 11.6392 16.6329 11.6862 16.5791 11.7334C16.5192 11.7856 16.4593 11.8378 16.3993 11.8899C16.3695 11.9159 16.3396 11.9419 16.3089 11.9686C16.1632 12.095 16.0167 12.2203 15.8701 12.3457C15.7912 12.4133 15.7123 12.481 15.6333 12.5486C15.5683 12.6044 15.5033 12.6601 15.4382 12.7157C15.4038 12.7454 15.3694 12.7751 15.334 12.8056C15.3051 12.8305 15.2762 12.8553 15.2465 12.8809C15.227 12.8996 15.2076 12.9182 15.1875 12.9375C15.1875 12.9529 15.1875 12.9684 15.1875 12.9843C15.6317 12.9942 16.0758 13.0016 16.52 13.0062C16.7264 13.0084 16.9326 13.0114 17.1389 13.0162C17.3383 13.0208 17.5376 13.0233 17.737 13.0244C17.8128 13.0251 17.8886 13.0267 17.9643 13.029C18.3427 13.0399 18.6338 13.0454 18.932 12.7783C18.9976 12.7074 19.0621 12.6356 19.125 12.5625C19.2102 12.4913 19.296 12.4208 19.3828 12.3515C19.5513 12.2152 19.7148 12.0757 19.875 11.9297C20.1173 11.709 20.3701 11.5027 20.625 11.2968C20.7201 11.2199 20.8137 11.1425 20.9063 11.0625C20.9063 11.047 20.9063 11.0315 20.9063 11.0156C20.4629 11.0058 20.0196 10.9983 19.5762 10.9937C19.3702 10.9915 19.1643 10.9886 18.9584 10.9838C18.7593 10.9792 18.5603 10.9767 18.3612 10.9756C18.2856 10.9748 18.21 10.9733 18.1344 10.971C17.6058 10.9556 17.3019 11.0429 16.9219 11.4375ZM21.2959 11.7539C21.2687 11.7771 21.2415 11.8002 21.2135 11.8241C21.1266 11.8982 21.0399 11.9725 20.9531 12.0468C20.8987 12.0934 20.8442 12.14 20.7898 12.1866C20.5682 12.3762 20.3469 12.5662 20.126 12.7567C20.0977 12.7811 20.0694 12.8055 20.0403 12.8306C19.9874 12.8762 19.9345 12.9218 19.8818 12.9675C19.8571 12.9888 19.8324 13.01 19.8069 13.032C19.7829 13.0533 19.7589 13.0747 19.7342 13.0967C19.6406 13.1718 19.6406 13.1718 19.5235 13.2407C19.3191 13.3711 19.1919 13.4682 19.1306 13.709C19.1176 13.9115 19.1191 14.109 19.1261 14.3115C19.127 14.3856 19.1276 14.4597 19.1281 14.5337C19.1299 14.7277 19.1345 14.9215 19.1397 15.1154C19.1445 15.3136 19.1466 15.5119 19.149 15.7102C19.154 16.0986 19.162 16.4867 19.1719 16.875C19.2397 16.86 19.3075 16.845 19.3753 16.83C19.413 16.8216 19.4508 16.8132 19.4897 16.8046C19.5648 16.7877 19.6397 16.7699 19.7144 16.7516C20.2839 16.6189 20.8143 16.6899 21.375 16.8281C21.4524 16.8436 21.5297 16.859 21.6094 16.875C21.6094 15.1115 21.6094 13.3481 21.6094 11.5312C21.5 11.5312 21.3789 11.6827 21.2959 11.7539ZM1.35938 13.8281C1.35473 13.9305 1.35346 14.0331 1.35343 14.1356C1.35336 14.1681 1.35328 14.2007 1.35321 14.2342C1.35302 14.3439 1.35317 14.4537 1.35332 14.5634C1.35325 14.6418 1.35317 14.7202 1.35307 14.7985C1.35285 15.012 1.35294 15.2254 1.35309 15.4389C1.3532 15.6618 1.35309 15.8847 1.35302 16.1077C1.35294 16.4821 1.35305 16.8566 1.35327 17.2311C1.35353 17.6646 1.35344 18.098 1.35318 18.5315C1.35297 18.903 1.35294 19.2745 1.35306 19.6461C1.35314 19.8682 1.35315 20.0904 1.35299 20.3126C1.35286 20.5215 1.35295 20.7303 1.35322 20.9392C1.35329 21.016 1.35327 21.0929 1.35316 21.1697C1.35304 21.2743 1.3532 21.3788 1.35343 21.4834C1.35345 21.542 1.35347 21.6006 1.35348 21.661C1.35 21.794 1.35 21.794 1.40626 21.8906C4.06688 21.8906 6.72751 21.8906 9.46876 21.8906C9.46876 19.2145 9.46876 16.5384 9.46876 13.7812C8.13941 13.7803 6.81007 13.7793 5.44044 13.7783C5.01994 13.7779 4.59945 13.7774 4.16622 13.777C3.79087 13.7768 3.79087 13.7768 3.41553 13.7767C3.24772 13.7767 3.07991 13.7765 2.9121 13.7763C2.69846 13.776 2.48483 13.7759 2.2712 13.7759C2.19253 13.7759 2.11386 13.7758 2.0352 13.7756C1.92946 13.7754 1.82372 13.7755 1.71798 13.7756C1.62886 13.7755 1.62886 13.7755 1.53794 13.7755C1.41075 13.7662 1.41075 13.7662 1.35938 13.8281ZM10.2656 13.8281C10.261 13.9312 10.2597 14.0345 10.2597 14.1377C10.2596 14.1705 10.2595 14.2032 10.2595 14.2369C10.2593 14.3475 10.2594 14.458 10.2596 14.5685C10.2595 14.6474 10.2594 14.7263 10.2593 14.8052C10.2591 15.0201 10.2592 15.235 10.2593 15.4499C10.2595 15.6743 10.2593 15.8987 10.2593 16.123C10.2592 16.4999 10.2593 16.8768 10.2595 17.2537C10.2598 17.6901 10.2597 18.1265 10.2594 18.5629C10.2592 18.9368 10.2592 19.3108 10.2593 19.6848C10.2594 19.9084 10.2594 20.1321 10.2592 20.3557C10.2591 20.566 10.2592 20.7762 10.2595 20.9864C10.2595 21.0638 10.2595 21.1412 10.2594 21.2186C10.2593 21.3237 10.2594 21.4289 10.2597 21.5341C10.2597 21.5931 10.2597 21.6521 10.2597 21.7129C10.2507 21.8393 10.2507 21.8393 10.3125 21.8906C10.4157 21.8951 10.5191 21.8963 10.6224 21.8962C10.6552 21.8963 10.688 21.8963 10.7218 21.8964C10.8324 21.8964 10.943 21.8962 11.0536 21.8959C11.1326 21.8959 11.2116 21.8959 11.2906 21.8959C11.5057 21.896 11.7208 21.8957 11.9358 21.8953C12.1604 21.8951 12.3849 21.895 12.6094 21.895C13.0349 21.8948 13.4604 21.8944 13.8859 21.894C14.3702 21.8934 14.8544 21.8932 15.3387 21.893C16.3352 21.8925 17.3317 21.8916 18.3281 21.8906C18.3089 21.8651 18.2897 21.8395 18.2699 21.8132C18.2446 21.7796 18.2193 21.746 18.1933 21.7114C18.1683 21.6781 18.1432 21.6449 18.1175 21.6106C17.5683 20.8712 17.3259 20.0866 17.451 19.1661C17.5328 18.7001 17.6875 18.1364 18.0544 17.8185C18.2739 17.6191 18.3969 17.4569 18.4199 17.1538C18.4252 16.9662 18.4216 16.7795 18.4162 16.5919C18.4154 16.5106 18.4148 16.4293 18.4144 16.348C18.4128 16.1354 18.4087 15.9229 18.404 15.7104C18.3996 15.4929 18.3977 15.2755 18.3956 15.058C18.3911 14.6324 18.3839 14.2068 18.375 13.7812C17.3246 13.7801 16.2742 13.7793 15.2238 13.7788C14.7361 13.7786 14.2484 13.7782 13.7607 13.7777C13.3358 13.7772 12.9109 13.7769 12.486 13.7768C12.2609 13.7768 12.0357 13.7766 11.8106 13.7763C11.599 13.7759 11.3873 13.7759 11.1757 13.7759C11.0978 13.7759 11.0198 13.7758 10.9419 13.7756C10.836 13.7754 10.7301 13.7755 10.6242 13.7756C10.5351 13.7755 10.5351 13.7755 10.4442 13.7755C10.317 13.7662 10.317 13.7662 10.2656 13.8281ZM18.7106 18.2071C18.2886 18.7115 18.1368 19.3207 18.1875 19.9687C18.3144 20.5973 18.619 21.1281 19.1446 21.5026C19.6866 21.8446 20.2706 21.9765 20.9004 21.8379C21.5255 21.6677 22.0053 21.3155 22.3339 20.759C22.6227 20.2239 22.6864 19.6605 22.5612 19.0633C22.5182 18.9364 22.4679 18.8219 22.4063 18.7031C22.3869 18.6634 22.3676 18.6237 22.3477 18.5828C22.0531 18.0346 21.5645 17.6915 20.9824 17.4933C20.1302 17.2727 19.3017 17.5823 18.7106 18.2071Z" fill="#535353"/>
<path d="M21.7031 18.5629C21.8203 18.6332 21.8203 18.6332 21.8906 18.7504C21.9191 18.906 21.9305 18.9784 21.8906 19.1254C21.702 19.3969 21.442 19.621 21.1992 19.8432C20.9235 20.0981 20.6548 20.3578 20.3925 20.6265C20.2726 20.7427 20.2228 20.7629 20.0566 20.7895C19.7926 20.7554 19.6831 20.6225 19.5 20.4379C19.451 20.3899 19.4019 20.342 19.3528 20.2942C18.8979 19.8475 18.8979 19.8475 18.876 19.6498C18.8945 19.4605 18.937 19.3927 19.0781 19.266C19.2305 19.2074 19.2305 19.2074 19.4062 19.2192C19.5483 19.3124 19.6634 19.4256 19.7812 19.5473C19.8393 19.6038 19.8393 19.6038 19.8984 19.6615C19.9216 19.6857 19.9448 19.7099 19.9688 19.7348C20.1731 19.669 20.2874 19.5728 20.4364 19.4198C20.4794 19.3762 20.5224 19.3325 20.5668 19.2875C20.6116 19.2413 20.6564 19.1951 20.7012 19.1488C20.7895 19.0583 20.8781 18.9681 20.9667 18.8779C21.0057 18.8377 21.0447 18.7975 21.0849 18.7562C21.279 18.568 21.438 18.5213 21.7031 18.5629Z" fill="#535353"/>
</svg>
