<svg width="25" height="24" viewBox="0 0 25 24" fill="none" xmlns="http://www.w3.org/2000/svg">
<g clip-path="url(#clip0_193_276)">
<path d="M14.5625 5.01592C14.7269 5.14889 14.8804 5.28976 15.0312 5.4378C15.0607 5.46607 15.0901 5.49435 15.1204 5.52349C15.7651 6.19592 15.9923 7.13838 15.9788 8.04302C15.9464 8.97389 15.5007 9.8106 14.8438 10.4534C14.7073 10.569 14.5674 10.6776 14.4219 10.7815C14.5785 10.8859 14.7416 10.9547 14.9141 11.0276C15.4873 11.2758 15.9832 11.5832 16.4844 11.9534C16.5038 11.9375 16.5233 11.9215 16.5433 11.9051C16.9811 11.5607 17.4836 11.3028 17.9844 11.0628C17.9515 11.0332 17.9186 11.0036 17.8848 10.9731C17.2578 10.3819 16.9443 9.72886 16.9037 8.85784C16.9145 8.07278 17.1963 7.3845 17.7548 6.82665C18.4157 6.22714 19.162 6.04362 20.0314 6.0851C20.6655 6.13705 21.3067 6.46709 21.7344 6.9378C21.9963 7.27037 22.2181 7.6078 22.3438 8.01592C22.3594 8.06196 22.3594 8.06196 22.3754 8.10894C22.5731 8.80266 22.4418 9.57122 22.127 10.2044C21.9381 10.5299 21.6739 10.8531 21.3594 11.0628C21.4075 11.0861 21.4557 11.1093 21.5053 11.1333C22.1413 11.4435 22.6819 11.7829 23.1875 12.2815C23.2253 12.3187 23.263 12.3559 23.3019 12.3942C24.2575 13.3929 24.5 14.6378 24.5 15.9847C22.5819 16.0001 20.6637 16.0156 18.6875 16.0315C18.6875 16.542 18.6875 17.0525 18.6875 17.5784C18.4388 18.3865 18.1073 18.9391 17.375 19.3597C16.8481 19.6373 16.3358 19.6548 15.7522 19.6538C15.6736 19.654 15.595 19.6542 15.5164 19.6545C15.3039 19.6551 15.0914 19.6552 14.8789 19.6551C14.7011 19.655 14.5232 19.6552 14.3454 19.6555C13.9255 19.656 13.5056 19.656 13.0857 19.6557C12.6536 19.6554 12.2215 19.656 11.7894 19.657C11.4175 19.6578 11.0455 19.6581 10.6736 19.658C10.4519 19.6579 10.2302 19.658 10.0085 19.6587C9.79982 19.6592 9.59117 19.6592 9.38252 19.6585C9.30633 19.6584 9.23015 19.6586 9.15396 19.6589C8.28944 19.663 7.5794 19.4861 6.94092 18.8706C6.51075 18.4118 6.25999 17.8355 6.2594 17.206C6.25935 17.1754 6.25931 17.1449 6.25926 17.1134C6.25923 17.0492 6.25932 16.985 6.25951 16.9208C6.25977 16.8225 6.25952 16.7243 6.25922 16.6261C6.25925 16.5635 6.25931 16.501 6.2594 16.4384C6.25945 16.3817 6.25951 16.325 6.25956 16.2666C6.26562 16.1253 6.26562 16.1253 6.3125 15.9847C4.39438 15.9847 2.47625 15.9847 0.5 15.9847C0.5 14.4036 0.858864 13.2737 1.94141 12.1351C2.41242 11.6771 2.9597 11.3873 3.54688 11.1097C3.57781 11.0942 3.60875 11.0787 3.64062 11.0628C3.61736 11.044 3.5941 11.0252 3.57013 11.0058C3.0301 10.5539 2.66291 9.98672 2.5625 9.28155C2.4938 8.37949 2.68212 7.62016 3.28357 6.91948C3.62146 6.5826 4.02718 6.32829 4.48438 6.1878C4.51561 6.17734 4.54685 6.16689 4.57904 6.15612C5.32084 5.94762 6.09763 6.11603 6.76257 6.46538C7.38534 6.8462 7.80486 7.40927 8 8.10967C8.16849 8.89079 8.07842 9.64632 7.66602 10.3392C7.4837 10.6148 7.2571 10.8388 7.01562 11.0628C7.0399 11.075 7.06418 11.0873 7.0892 11.0999C7.94454 11.5335 7.94454 11.5335 8.32208 11.8456C8.41526 11.9148 8.41526 11.9148 8.51233 11.9045C8.64654 11.8425 8.75697 11.7599 8.87598 11.6722C9.38123 11.311 9.93659 11.0121 10.5312 10.8284C10.4137 10.7086 10.2936 10.5964 10.165 10.4886C9.4894 9.89537 9.04232 9.06116 8.97774 8.15742C8.92688 7.21588 9.17415 6.30645 9.7926 5.57567C9.81979 5.54564 9.84698 5.51561 9.875 5.48467C9.90219 5.45319 9.92938 5.42171 9.9574 5.38927C11.1366 4.10896 13.1868 4.04306 14.5625 5.01592ZM10.4166 6.08269C10.1715 6.39253 9.99984 6.70389 9.875 7.07842C9.86352 7.11286 9.85204 7.1473 9.84021 7.18279C9.66349 7.82915 9.76872 8.57438 10.0947 9.15557C10.261 9.40791 10.4605 9.62891 10.6719 9.84405C10.7116 9.88465 10.7116 9.88465 10.7521 9.92608C11.2144 10.3591 11.8496 10.5388 12.4707 10.5677C13.2859 10.54 13.9582 10.1949 14.5156 9.60967C14.9948 9.04368 15.1984 8.37439 15.166 7.63799C15.0913 6.86386 14.7144 6.21796 14.1229 5.71868C12.9657 4.86059 11.3819 4.9941 10.4166 6.08269ZM3.80927 7.54461C3.40846 8.06007 3.30004 8.59791 3.35938 9.23467C3.45841 9.72096 3.74448 10.1619 4.15442 10.4421C4.66695 10.7543 5.20271 10.8821 5.80164 10.7493C6.32446 10.5726 6.78695 10.2455 7.04254 9.747C7.28096 9.19091 7.32371 8.69924 7.1275 8.11956C6.90675 7.6084 6.53031 7.22594 6.0166 7.01397C5.22481 6.72071 4.38846 6.92844 3.80927 7.54461ZM18.1603 7.58416C17.8759 7.94266 17.7314 8.3669 17.7324 8.82158C17.7325 8.85662 17.7326 8.89165 17.7327 8.92775C17.7419 9.34834 17.8691 9.69563 18.125 10.0315C18.1501 10.0693 18.1753 10.107 18.2012 10.1458C18.5548 10.5273 19.0016 10.7466 19.5177 10.7993C20.125 10.8184 20.6291 10.6452 21.0752 10.2278C21.4584 9.81818 21.6674 9.31255 21.652 8.75182C21.6029 8.20514 21.3965 7.74353 20.9932 7.36553C20.0991 6.64304 18.9394 6.7626 18.1603 7.58416ZM8.98438 12.6097C8.94462 12.6418 8.90486 12.6738 8.86389 12.7069C7.85761 13.5602 7.19847 14.866 7.0625 16.1722C7.04675 16.391 7.03936 16.6091 7.03613 16.8284C7.03487 16.8804 7.0336 16.9324 7.0323 16.986C7.0346 17.4743 7.19034 17.9661 7.53125 18.3284C7.94176 18.7086 8.42508 18.8492 8.97635 18.8506C9.0074 18.8508 9.03844 18.8509 9.07043 18.8511C9.17383 18.8515 9.27723 18.8515 9.38064 18.8516C9.45504 18.8518 9.52945 18.8521 9.60385 18.8523C9.8056 18.8529 10.0074 18.8532 10.2091 18.8534C10.3354 18.8536 10.4616 18.8538 10.5879 18.854C10.9835 18.8546 11.3791 18.8551 11.7746 18.8552C12.2302 18.8555 12.6857 18.8563 13.1413 18.8576C13.4941 18.8586 13.847 18.8591 14.1998 18.8592C14.4102 18.8592 14.6206 18.8595 14.831 18.8603C15.0291 18.8611 15.2273 18.8612 15.4254 18.8608C15.4978 18.8608 15.5701 18.861 15.6424 18.8614C16.314 18.8655 16.8808 18.8012 17.384 18.3249C17.8939 17.7869 17.9122 17.2287 17.9036 16.5206C17.8595 15.0462 17.1478 13.732 16.1013 12.7261C15.8574 12.4993 15.5982 12.3131 15.3125 12.1409C15.2857 12.1247 15.2589 12.1085 15.2313 12.0918C13.2541 10.9136 10.7476 11.1505 8.98438 12.6097ZM2.75 12.5159C2.71205 12.5472 2.67411 12.5784 2.63501 12.6106C1.85422 13.2752 1.40924 14.1765 1.29688 15.1878C2.99844 15.1878 4.7 15.1878 6.45312 15.1878C6.56141 14.8784 6.66969 14.569 6.78125 14.2503C7.05894 13.6861 7.36169 13.1371 7.80536 12.6857C7.82318 12.6606 7.84101 12.6355 7.85938 12.6097C7.79732 12.4235 7.68136 12.3668 7.52246 12.2669C7.4931 12.2483 7.46374 12.2298 7.43348 12.2107C5.9839 11.3182 4.05521 11.3798 2.75 12.5159ZM17.8438 12.0472C17.7943 12.0735 17.7448 12.0997 17.6938 12.1268C17.4451 12.2651 17.2628 12.3762 17.0938 12.6097C17.1439 12.6718 17.1439 12.6718 17.195 12.7351C17.8029 13.4935 18.1923 14.2648 18.5 15.1878C20.217 15.1878 21.9341 15.1878 23.7031 15.1878C23.5066 14.205 23.2231 13.5204 22.5312 12.7972C22.4873 12.748 22.4873 12.748 22.4424 12.6977C21.8227 12.0284 20.8691 11.6519 19.9692 11.6105C19.1994 11.589 18.5325 11.6811 17.8438 12.0472Z" fill="#535353"/>
</g>
<defs>
<clipPath id="clip0_193_276">
<rect width="24" height="24" fill="white" transform="translate(0.5)"/>
</clipPath>
</defs>
</svg>
