<svg width="61" height="60" viewBox="0 0 61 60" fill="none" xmlns="http://www.w3.org/2000/svg">
<g clip-path="url(#clip0_1_14977)">
<path d="M56.9477 9.64638C58.8583 11.2742 60.1534 13.4369 60.5 15.9379C60.6239 17.6187 60.5917 19.2611 60.0312 20.8598C59.9888 20.9839 59.9463 21.1081 59.9026 21.236C59.337 22.7276 58.2534 24.3748 56.9111 25.2877C56.606 25.5233 56.606 25.5233 56.5598 25.8725C56.56 25.9985 56.5601 26.1244 56.5602 26.2542C56.559 26.3991 56.5577 26.544 56.5564 26.6932C56.5579 26.8535 56.5595 27.0137 56.5611 27.174C56.5607 27.343 56.56 27.5121 56.5591 27.6811C56.5576 28.0451 56.5581 28.409 56.5599 28.773C56.5627 29.3493 56.5614 29.9256 56.5594 30.5019C56.5566 31.5183 56.5573 32.5347 56.5587 33.551C56.5609 35.0786 56.5603 36.6062 56.5564 38.1338C56.555 38.7058 56.5555 39.2778 56.5575 39.8498C56.5585 40.2071 56.558 40.5644 56.5571 40.9216C56.557 41.0863 56.5575 41.251 56.5587 41.4156C56.5691 42.9594 56.366 44.0828 55.2618 45.2023C54.7438 45.676 54.1937 46.0551 53.4687 46.0551C53.4712 46.1554 53.4736 46.2558 53.4762 46.3592C53.4842 46.737 53.4901 47.1148 53.4945 47.4927C53.4968 47.6553 53.5 47.8178 53.5041 47.9803C53.534 49.197 53.4765 50.3251 52.5971 51.2553C52.4601 51.3989 52.3212 51.5408 52.1797 51.6801C52.0926 51.7671 52.0056 51.8541 51.916 51.9437C50.6001 52.7811 49.2051 52.6843 47.7023 52.6782C47.4385 52.6789 47.1747 52.6797 46.9108 52.6807C46.1974 52.6828 45.4839 52.682 44.7704 52.6805C44.0232 52.6793 43.276 52.6805 42.5288 52.6812C41.1948 52.6821 39.8609 52.6806 38.527 52.6783C37.3176 52.6762 36.1082 52.6765 34.8988 52.6787C33.4926 52.6812 32.0864 52.6821 30.6801 52.6807C29.9364 52.68 29.1926 52.6799 28.4488 52.6815C27.7504 52.6828 27.052 52.6819 26.3535 52.6792C26.0969 52.6785 25.8403 52.6787 25.5837 52.6798C25.2342 52.681 24.8847 52.6794 24.5352 52.6771C24.433 52.6781 24.3309 52.6792 24.2256 52.6803C23.5417 52.6713 23.5417 52.6713 23.1746 52.401C22.946 52.0709 22.891 51.847 22.8828 51.4457C23.1324 50.9107 23.1324 50.9107 23.4687 50.7426C23.8097 50.7299 24.1479 50.7244 24.489 50.724C24.5959 50.7235 24.7028 50.7229 24.813 50.7223C25.1734 50.7205 25.5338 50.7195 25.8942 50.7185C26.1517 50.7174 26.4092 50.7162 26.6667 50.715C27.3676 50.7118 28.0685 50.7094 28.7695 50.707C29.5013 50.7045 30.2331 50.7013 30.9649 50.6981C32.1938 50.6929 33.4226 50.6881 34.6515 50.6837C35.9174 50.6791 37.1834 50.6742 38.4493 50.669C38.5273 50.6687 38.6053 50.6684 38.6856 50.668C39.0769 50.6664 39.4682 50.6648 39.8595 50.6632C43.1068 50.6499 46.3542 50.6374 49.6015 50.6254C49.2856 50.4208 48.9697 50.2163 48.6538 50.0118C48.5653 49.9544 48.4767 49.8971 48.3855 49.838C47.519 49.2772 46.6492 48.7218 45.7783 48.1679C45.6608 48.0929 45.5432 48.0179 45.4221 47.9406C45.2509 47.8337 45.2509 47.8337 45.0762 47.7247C44.8074 47.5521 44.5603 47.3677 44.3148 47.1635C43.0412 46.1441 41.8839 46.1214 40.2993 46.1378C40.0389 46.1362 39.7784 46.1341 39.518 46.1316C38.8153 46.1263 38.1128 46.1283 37.4101 46.132C36.6718 46.135 35.9335 46.1322 35.1953 46.1304C33.8765 46.1281 32.5578 46.1318 31.2391 46.1377C30.0472 46.143 28.8554 46.1421 27.6635 46.1367C26.2744 46.1304 24.8853 46.1281 23.4962 46.1315C22.7627 46.1333 22.0293 46.1336 21.2958 46.1297C20.6058 46.1263 19.916 46.1287 19.2259 46.1355C18.9741 46.137 18.7222 46.1366 18.4703 46.134C16.8638 46.1189 15.7978 46.3281 14.512 47.3214C14.2525 47.5188 13.9786 47.6909 13.7023 47.8637C13.5226 47.9809 13.343 48.0982 13.1635 48.2157C12.9658 48.3447 12.768 48.4736 12.5703 48.6025C12.4731 48.6659 12.376 48.7293 12.2759 48.7946C11.8106 49.0981 11.3446 49.4005 10.8784 49.7025C10.7568 49.7815 10.7568 49.7815 10.6328 49.862C10.5569 49.9112 10.481 49.9604 10.4028 50.0111C10.3373 50.0535 10.2718 50.096 10.2044 50.1398C9.94098 50.3062 9.67354 50.4654 9.40622 50.6254C9.54025 50.6258 9.67427 50.6262 9.81236 50.6267C11.0746 50.631 12.3368 50.6378 13.599 50.6469C14.248 50.6516 14.8969 50.6553 15.5459 50.6571C16.172 50.6589 16.7981 50.6629 17.4242 50.6685C17.6632 50.6703 17.9022 50.6712 18.1413 50.6713C18.4758 50.6716 18.8101 50.6748 19.1446 50.6786C19.2437 50.678 19.3428 50.6774 19.445 50.6768C20.1149 50.6888 20.1149 50.6888 20.4802 50.9594C20.7107 51.2892 20.7652 51.5123 20.7734 51.9144C20.5237 52.4494 20.5237 52.4494 20.1875 52.6176C20.0271 52.6293 19.8661 52.6339 19.7053 52.6348C19.6043 52.6357 19.5033 52.6365 19.3992 52.6374C19.2881 52.6377 19.177 52.638 19.0625 52.6383C18.9457 52.6391 18.8289 52.6399 18.7085 52.6406C18.3203 52.643 17.9321 52.6443 17.5439 52.6455C17.4112 52.646 17.2786 52.6465 17.142 52.6469C16.4391 52.6494 15.7363 52.6511 15.0335 52.6522C14.3093 52.6535 13.5851 52.6575 12.8609 52.6621C12.3028 52.6652 11.7447 52.6662 11.1866 52.6666C10.9198 52.6672 10.653 52.6685 10.3862 52.6707C10.0112 52.6736 9.63634 52.6735 9.26137 52.6726C9.09793 52.6749 9.09793 52.6749 8.93119 52.6772C7.67906 52.6674 6.69191 52.253 5.79309 51.3885C5.0625 50.542 4.82012 49.6828 4.82446 48.5874C4.82463 48.5049 4.8248 48.4223 4.82497 48.3372C4.82562 48.0745 4.82709 47.8119 4.82858 47.5492C4.82917 47.3707 4.82971 47.1922 4.83018 47.0136C4.83147 46.5769 4.8335 46.1402 4.83591 45.7035C4.72538 45.706 4.61485 45.7084 4.50097 45.7109C4.08927 45.719 3.67766 45.7248 3.26592 45.7293C3.08803 45.7316 2.91014 45.7348 2.73228 45.7389C2.47598 45.7446 2.2198 45.7472 1.96344 45.7493C1.8094 45.7517 1.65537 45.7542 1.49666 45.7567C1.0223 45.6953 0.832346 45.5718 0.499969 45.2348C0.42627 45.0004 0.42627 45.0004 0.434052 44.766C0.4339 44.6887 0.433749 44.6113 0.433594 44.5316C0.532439 44.1826 0.682759 44.0511 0.968719 43.8285C1.28256 43.7876 1.5479 43.7735 1.86044 43.7827C1.97377 43.7834 1.97377 43.7834 2.08938 43.7842C2.37016 43.7866 2.65089 43.7932 2.93161 43.7992C3.56003 43.8089 4.18845 43.8186 4.83591 43.8285C4.83591 41.6242 4.83591 39.4199 4.83591 37.1488C3.58428 37.1674 3.58428 37.1674 2.33274 37.1911C2.17531 37.1924 2.01788 37.1936 1.86044 37.1946C1.77934 37.197 1.69824 37.1994 1.61468 37.2019C1.21059 37.2022 1.00606 37.1779 0.68276 36.9262C0.485948 36.6612 0.433414 36.5375 0.434052 36.2113C0.431483 36.134 0.428915 36.0566 0.42627 35.977C0.543612 35.6038 0.762416 35.4836 1.08591 35.2738C1.49666 35.2206 1.49666 35.2206 1.96344 35.2281C2.11425 35.2292 2.26505 35.2304 2.42043 35.2316C2.61087 35.2359 2.80132 35.2401 2.99753 35.2445C3.60419 35.2542 4.21086 35.2639 4.83591 35.2738C4.83591 33.4176 4.83591 31.5613 4.83591 29.6488C3.62809 29.672 3.62809 29.672 2.42043 29.7016C2.19422 29.7038 2.19422 29.7038 1.96344 29.706C1.8094 29.7091 1.65537 29.7122 1.49666 29.7153C0.983423 29.6322 0.815495 29.4677 0.499969 29.0629C0.426727 28.7113 0.426727 28.7113 0.499969 28.3598C0.815495 27.955 0.983423 27.7904 1.49666 27.7073C1.6507 27.7104 1.80474 27.7134 1.96344 27.7166C2.08705 27.7178 2.08705 27.7178 2.21315 27.7191C2.47474 27.7224 2.73603 27.7297 2.99753 27.7372C3.17552 27.7401 3.35351 27.7428 3.53151 27.7452C3.96641 27.7517 4.40113 27.7618 4.83591 27.7738C4.83345 27.6457 4.831 27.5175 4.82847 27.3855C4.8199 26.9044 4.81457 26.4232 4.81016 25.9421C4.80782 25.7349 4.80463 25.5277 4.80054 25.3205C4.77315 23.8957 4.78908 22.5723 5.71024 21.394C6.48316 20.6112 7.46677 20.1427 8.56393 20.1223C8.80566 20.1246 9.04737 20.1288 9.28903 20.1347C9.41336 20.1363 9.53768 20.1378 9.66577 20.1395C9.96994 20.1436 10.274 20.1493 10.5781 20.1566C10.5744 20.0177 10.5744 20.0177 10.5707 19.8759C10.5608 19.4495 10.5548 19.0231 10.5488 18.5966C10.5449 18.4509 10.5409 18.3052 10.5369 18.1551C10.5219 16.728 10.8081 15.7073 11.8072 14.6685C12.6889 13.9074 13.5859 13.6938 14.7207 13.6941C14.8203 13.6936 14.92 13.6932 15.0226 13.6928C15.3569 13.6915 15.6912 13.691 16.0255 13.6906C16.2649 13.6898 16.5044 13.6891 16.7438 13.6882C17.3947 13.6862 18.0455 13.685 18.6963 13.684C19.1026 13.6834 19.509 13.6827 19.9153 13.682C21.186 13.6797 22.4567 13.6781 23.7274 13.6771C25.1956 13.6759 26.6638 13.6728 28.1319 13.6681C29.2661 13.6646 30.4003 13.6628 31.5344 13.6625C32.2122 13.6622 32.89 13.6611 33.5678 13.6582C34.2049 13.6555 34.842 13.655 35.4792 13.6562C35.7133 13.6562 35.9474 13.6555 36.1816 13.6539C36.5006 13.6518 36.8195 13.6526 37.1386 13.6542C37.2317 13.6529 37.3249 13.6516 37.4209 13.6503C37.8367 13.6552 38.0703 13.6756 38.4058 13.9314C38.62 14.2271 38.6942 14.4001 38.7031 14.766C38.5131 15.1746 38.3791 15.3336 38 15.5863C37.6797 15.6089 37.3715 15.6177 37.0512 15.6158C36.9534 15.6162 36.8555 15.6165 36.7548 15.6169C36.4258 15.6178 36.0968 15.617 35.7678 15.6163C35.5324 15.6166 35.297 15.617 35.0616 15.6175C34.554 15.6185 34.0464 15.6187 33.5388 15.6185C32.7362 15.6181 31.9336 15.6198 31.1309 15.6219C28.8483 15.6274 26.5657 15.6302 24.283 15.631C23.0228 15.6314 21.7627 15.6335 20.5025 15.6374C19.7047 15.6398 18.9069 15.6401 18.1091 15.6388C17.6124 15.6385 17.1157 15.6401 16.619 15.6423C16.3888 15.6429 16.1586 15.6428 15.9284 15.6417C15.6138 15.6404 15.2994 15.642 14.9848 15.6443C14.894 15.6432 14.8031 15.6421 14.7095 15.641C13.9874 15.6512 13.4646 15.8557 12.9479 16.386C12.9031 16.4581 12.8582 16.5302 12.812 16.6044C12.765 16.6749 12.718 16.7455 12.6696 16.8182C12.5131 17.2777 12.4528 17.688 12.5703 18.1644C12.8262 18.4811 13.1428 18.6752 13.4858 18.8895C13.6809 19.0206 13.876 19.1518 14.0708 19.2832C14.1719 19.3498 14.2729 19.4163 14.377 19.4849C14.8583 19.8077 15.3212 20.1544 15.7856 20.5009C15.972 20.6386 16.1585 20.7762 16.345 20.9138C16.6257 21.1212 16.9063 21.3286 17.1869 21.536C18.1837 22.2725 19.1818 23.0067 20.1875 23.7309C21.1934 24.4552 22.1916 25.1896 23.1885 25.9262C23.6527 26.2691 24.1174 26.6113 24.582 26.9535C25.1403 27.3647 25.6984 27.7761 26.256 28.1881C27.245 28.9185 28.2372 29.6441 29.2351 30.3623C29.9947 30.9097 30.7487 31.4643 31.5013 32.0212C31.6729 32.1481 31.8449 32.2745 32.0172 32.4004C32.1759 32.5179 32.3329 32.6378 32.4879 32.7602C32.8547 33.0733 32.8547 33.0733 33.3072 33.1405C33.5774 33.0354 33.7741 32.9052 34.0055 32.7305C34.0936 32.6647 34.1817 32.5989 34.2724 32.5311C34.3665 32.4598 34.4606 32.3884 34.5576 32.3148C34.7592 32.164 34.961 32.0132 35.1628 31.8626C35.2649 31.7861 35.3671 31.7095 35.4723 31.6307C35.9206 31.2971 36.3741 30.9708 36.8281 30.6449C38.0253 29.7831 39.2115 28.9064 40.3976 28.0294C40.6848 27.8172 40.972 27.605 41.2592 27.393C41.3511 27.3251 41.4429 27.2573 41.5375 27.1873C41.9678 26.8701 42.3996 26.5553 42.8362 26.2467C42.9129 26.1925 42.9896 26.1383 43.0686 26.0825C43.2108 25.9825 43.3534 25.8829 43.4963 25.7838C43.8524 25.5426 43.8524 25.5426 44.0937 25.1957C44.0239 25.1637 43.9541 25.1317 43.8822 25.0987C42.3558 24.2838 41.2896 22.0949 40.7873 20.5347C40.006 17.8182 40.2702 14.9193 41.6359 12.4296C43.0875 9.95097 45.4189 8.31892 48.1738 7.58141C51.2958 6.90337 54.4438 7.67179 56.9477 9.64638ZM44.1303 12.1952C42.6724 14.0614 42.0162 16.2868 42.292 18.6478C42.6571 20.8164 43.8528 22.8217 45.6172 24.141C47.5176 25.3972 49.691 25.9922 51.9659 25.5885C54.1721 25.1211 56.0624 23.9081 57.3359 22.0316C58.5946 19.9333 59.021 17.6339 58.4419 15.2274C57.7142 12.9147 56.1871 11.1787 54.0766 10.0346C50.5808 8.41971 46.6725 9.30169 44.1303 12.1952ZM12.4531 20.5082C12.4531 27.1211 12.4531 33.734 12.4531 40.5473C13.2912 40.0857 13.2912 40.0857 14.0974 39.5855C14.2521 39.4838 14.2521 39.4838 14.4099 39.3801C14.5182 39.3085 14.6266 39.2368 14.7383 39.163C15.7181 38.5193 16.7016 37.882 17.6899 37.2514C18.8666 36.5001 20.0385 35.7419 21.2081 34.9798C21.6364 34.701 22.0655 34.4234 22.4946 34.1459C22.5751 34.0938 22.6555 34.0418 22.7384 33.9881C23.1541 33.7193 23.57 33.4507 23.986 33.1823C24.4782 32.8647 24.9697 32.5461 25.4609 32.227C25.5341 32.1796 25.6072 32.1322 25.6826 32.0833C25.8826 31.9536 26.0819 31.823 26.2812 31.6923C26.3924 31.6196 26.5036 31.547 26.6181 31.4721C26.8794 31.3097 26.8794 31.3097 26.9843 31.0551C26.9321 31.0175 26.8799 30.98 26.826 30.9413C25.8005 30.2035 24.7777 29.4622 23.7617 28.7113C23.0421 28.1796 22.3199 27.652 21.5937 27.1293C20.5878 26.405 19.5896 25.6706 18.5927 24.9339C18.1285 24.5911 17.6638 24.2489 17.1992 23.9066C16.6315 23.4884 16.0638 23.07 15.4963 22.6515C15.0319 22.3089 14.5673 21.9667 14.1025 21.6247C13.948 21.5109 13.7935 21.3971 13.639 21.2832C13.4539 21.1467 13.2684 21.0105 13.083 20.8744C12.9848 20.8022 12.8866 20.73 12.7854 20.6556C12.5976 20.4972 12.5976 20.4972 12.4531 20.5082ZM7.22131 22.6876C6.85653 23.1451 6.69608 23.4608 6.69681 24.0422C6.69665 24.1413 6.69649 24.2404 6.69633 24.3425C6.69675 24.4508 6.69717 24.5591 6.6976 24.6707C6.69759 24.7851 6.69757 24.8994 6.69755 25.0173C6.69763 25.3958 6.69855 25.7743 6.69946 26.1529C6.69968 26.4151 6.69985 26.6774 6.69997 26.9396C6.70041 27.6303 6.70156 28.3209 6.70286 29.0116C6.70406 29.7162 6.70459 30.4208 6.70518 31.1253C6.70644 32.5082 6.7085 33.891 6.71091 35.2738C7.98708 35.2738 9.26325 35.2738 10.5781 35.2738C10.5781 30.9039 10.5781 26.534 10.5781 22.0316C8.5261 21.8236 8.5261 21.8236 7.22131 22.6876ZM45.2912 26.786C45.1594 26.8844 45.1594 26.8844 45.0248 26.9848C44.9303 27.0566 44.8357 27.1285 44.7383 27.2025C44.5367 27.3535 44.3351 27.5044 44.1335 27.6553C44.03 27.7332 43.9266 27.811 43.8199 27.8913C43.424 28.1882 43.0254 28.4815 42.6265 28.7743C42.348 28.9788 42.07 29.184 41.7921 29.3893C41.4719 29.6258 41.1509 29.8611 40.8289 30.0951C40.6989 30.1905 40.5689 30.2859 40.4389 30.3812C40.3285 30.4616 40.2181 30.542 40.1043 30.6248C40.0286 30.6894 39.9529 30.7541 39.875 30.8207C39.875 30.898 39.875 30.9754 39.875 31.0551C40.0828 31.2197 40.0828 31.2197 40.3565 31.3833C40.4608 31.4487 40.5651 31.5142 40.6725 31.5816C40.7864 31.652 40.9002 31.7223 41.0175 31.7948C41.2555 31.9439 41.4934 32.0932 41.7312 32.2425C41.8522 32.3182 41.9732 32.394 42.0978 32.472C42.6226 32.8024 43.1423 33.1404 43.6616 33.4794C43.856 33.606 44.0504 33.7327 44.2448 33.8593C44.3379 33.92 44.431 33.9807 44.5269 34.0432C45.7506 34.8405 46.9791 35.6301 48.2099 36.4164C49.1847 37.0392 50.1565 37.6662 51.125 38.2987C51.2352 38.3707 51.3455 38.4426 51.4591 38.5168C51.9789 38.8562 52.4982 39.1963 53.0169 39.5374C53.1992 39.6568 53.3816 39.7761 53.5639 39.8954C53.688 39.9775 53.688 39.9775 53.8146 40.0613C54.1958 40.3365 54.1958 40.3365 54.6406 40.4301C54.6406 35.9055 54.6406 31.3809 54.6406 26.7191C53.7965 26.9488 53.7965 26.9488 52.9533 27.1819C50.7183 27.7363 48.5052 27.4823 46.3958 26.6006C45.8982 26.4146 45.6978 26.4793 45.2912 26.786ZM37.4287 32.5932C37.3574 32.6442 37.2861 32.6953 37.2126 32.7479C36.771 33.0654 36.3331 33.3875 35.897 33.7124C35.7988 33.7854 35.7006 33.8584 35.5994 33.9337C35.406 34.0777 35.213 34.2222 35.0204 34.3673C33.669 35.3741 33.669 35.3741 32.8437 35.2738C31.9141 34.8568 31.0849 34.1077 30.2879 33.4818C29.7538 33.0647 29.207 32.6914 28.625 32.3441C26.9522 33.412 25.2827 34.4844 23.62 35.5679C22.9472 36.0057 22.2727 36.4411 21.5986 36.8769C21.3642 37.0285 21.1299 37.1804 20.8956 37.3324C20.039 37.8879 19.1805 38.4405 18.3201 38.9901C17.2041 39.703 16.0899 40.4183 14.9799 41.1405C14.8726 41.2102 14.7653 41.2799 14.6547 41.3517C13.9496 41.8115 13.257 42.287 12.5703 42.7738C12.6528 43.2753 12.7459 43.4716 13.1416 43.7992C13.2234 43.8687 13.3053 43.9382 13.3897 44.0098C13.7973 44.3048 14.1409 44.3121 14.6288 44.313C14.7653 44.3135 14.9018 44.314 15.0425 44.3146C15.1932 44.3146 15.3439 44.3145 15.4992 44.3145C15.6604 44.3149 15.8216 44.3153 15.9827 44.3158C16.4266 44.317 16.8705 44.3174 17.3144 44.3177C17.7927 44.3182 18.2711 44.3193 18.7494 44.3203C19.9051 44.3227 21.0608 44.3238 22.2164 44.3249C22.7605 44.3254 23.3045 44.326 23.8485 44.3266C25.6566 44.3286 27.4647 44.3303 29.2728 44.3312C29.7421 44.3314 30.2114 44.3316 30.6807 44.3319C30.7973 44.3319 30.914 44.332 31.0341 44.332C32.9243 44.333 34.8144 44.336 36.7045 44.3398C38.6444 44.3436 40.5843 44.3458 42.5242 44.3461C43.6136 44.3464 44.703 44.3474 45.7925 44.3504C46.7202 44.3529 47.6478 44.3539 48.5755 44.3528C49.0489 44.3522 49.5222 44.3524 49.9956 44.3547C50.429 44.3568 50.8624 44.3567 51.2959 44.3548C51.5267 44.3544 51.7576 44.3563 51.9885 44.3583C52.7816 44.3525 53.2974 44.3128 53.9375 43.8285C54.3127 43.4435 54.4346 43.1783 54.5234 42.6566C53.3811 41.915 52.236 41.178 51.0883 40.4447C49.8959 39.6825 48.7078 38.9138 47.5221 38.1413C46.4243 37.4263 45.3233 36.7165 44.2193 36.0112C42.2873 34.7769 40.3558 33.5406 38.4586 32.253C38.0286 31.9783 37.7949 32.329 37.4287 32.5932ZM6.71091 37.1488C6.70296 38.6952 6.69652 40.2415 6.69269 41.7879C6.69086 42.5059 6.68837 43.2239 6.68439 43.942C6.68056 44.6349 6.67846 45.3279 6.67755 46.0209C6.6769 46.2852 6.67563 46.5496 6.67374 46.8139C6.67118 47.1843 6.67083 47.5545 6.671 47.9249C6.66973 48.0341 6.66847 48.1434 6.66717 48.2559C6.67006 48.8636 6.73153 49.2742 7.06247 49.8051C7.79642 49.4104 8.49865 48.9825 9.19382 48.5233C10.0905 47.9356 10.9914 47.355 11.8965 46.7802C12.0102 46.7079 12.124 46.6356 12.2412 46.5612C12.5071 46.3924 12.773 46.2237 13.039 46.0551C12.8206 45.8257 12.6394 45.674 12.3652 45.5058C11.4457 44.8515 10.9849 44.0918 10.6953 43.0082C10.6333 42.5379 10.6244 42.0746 10.6239 41.6006C10.6219 41.4723 10.62 41.3441 10.618 41.212C10.6124 40.8073 10.6098 40.4027 10.6074 39.9979C10.6041 39.7215 10.6006 39.4451 10.5969 39.1687C10.5879 38.4954 10.5831 37.8222 10.5781 37.1488C9.30192 37.1488 8.02575 37.1488 6.71091 37.1488ZM46.4375 46.1723C46.8487 46.5835 47.2365 46.8657 47.7265 47.161C48.6145 47.7047 49.4872 48.2696 50.3557 48.8437C50.4508 48.9061 50.5459 48.9685 50.6439 49.0328C50.7283 49.0886 50.8127 49.1443 50.8997 49.2018C51.1365 49.3542 51.1365 49.3542 51.4765 49.4535C51.6283 49.3281 51.6283 49.3281 51.607 49.0326C51.6064 48.9006 51.6058 48.7687 51.6052 48.6327C51.6049 48.5046 51.6046 48.3764 51.6043 48.2443C51.6032 48.0802 51.6021 47.9161 51.601 47.747C51.5986 47.2273 51.5962 46.7077 51.5937 46.1723C49.8922 46.1723 48.1906 46.1723 46.4375 46.1723Z" fill="#282021"/>
<path d="M53.835 13.8652C54.2891 13.9458 54.2891 13.9458 54.5821 14.1216C54.7751 14.4433 54.867 14.7006 54.848 15.0792C54.6793 15.5899 54.2828 15.9288 53.9128 16.306C53.6042 16.6224 53.3271 16.948 53.0513 17.293C52.6316 17.8131 52.1925 18.3095 51.7421 18.8031C51.3707 19.2213 51.0214 19.656 50.6728 20.0931C49.9523 20.949 49.9523 20.949 49.4112 21.0796C48.7261 21.0321 48.2695 20.5276 47.7874 20.0828C47.6011 19.9149 47.409 19.7565 47.2144 19.5983C47.0847 19.4892 46.9552 19.3799 46.8257 19.2705C46.7637 19.2211 46.7016 19.1716 46.6377 19.1207C46.3923 18.9056 46.2203 18.7204 46.1564 18.3953C46.1438 17.9583 46.1674 17.7403 46.4449 17.3955C46.8984 17.1736 47.1216 17.2292 47.6094 17.3442C47.9592 17.5782 47.9592 17.5782 48.2833 17.8643C48.601 18.1408 48.8993 18.3995 49.2501 18.6333C49.9731 17.8589 50.672 17.0758 51.337 16.2502C51.6804 15.8328 52.0411 15.4332 52.4077 15.0362C52.6478 14.775 52.6478 14.775 52.838 14.5107C53.1364 14.109 53.3177 13.8948 53.835 13.8652Z" fill="#282021"/>
</g>
<defs>
<clipPath id="clip0_1_14977">
<rect width="60" height="60" fill="white" transform="translate(0.5)"/>
</clipPath>
</defs>
</svg>
